<svg id="Layer_1" xmlns="http://www.w3.org/2000/svg" viewBox="0 0 127.6 127.6"><style>.st0{opacity:.251}.st1{fill:#79c484}.st2{opacity:.502}.st3{opacity:.749}.st4{fill:#bababa}.st5{fill:#010101}</style><path class="st0 st1" d="M55.5 68.6l-5 3 1 1.8 5-3z" id="Rectangle_25_copy_15_4_"/><path class="st2 st1" d="M48.5 72.6l-5 3 1 1.8 5-3z" id="Rectangle_25_copy_12_4_"/><path class="st3 st1" d="M41.5 76.6l-5 3 1 1.8 5-3z" id="Rectangle_25_copy_13_4_"/><path class="st1" d="M34.5 80.6l-5 3 1 1.8 5-3z" id="Rectangle_25_copy_14_4_"/><path class="st0 st1" d="M63 51h2v5h-2z" id="Rectangle_25_copy_4_"/><path class="st2 st1" d="M63 44h2v5h-2z" id="Rectangle_25_copy_2_4_"/><path class="st3 st1" d="M63 37h2v5h-2z" id="Rectangle_25_copy_3_4_"/><path class="st1" d="M63 30h2v5h-2z" id="Rectangle_25_copy_4_4_"/><circle class="st4" cx="19.5" cy="82.5" r="2.5" id="Ellipse_7_8_"/><circle class="st4" cx="12.5" cy="89.5" r="2.5" id="Ellipse_7_copy_3_8_"/><circle class="st1" cx="19.5" cy="89.5" r="1.5" id="Ellipse_7_copy_8_"/><circle class="st4" cx="12.5" cy="82.5" r="1.5" id="Ellipse_7_copy_4_8_"/><circle class="st1" cx="19.5" cy="75.5" r="1.5" id="Ellipse_7_copy_2_8_"/><circle class="st1" cx="5.5" cy="89.5" r="1.5" id="Ellipse_7_copy_5_8_"/><path class="st4" d="M122.5 98H76l-4 3H56l-4-3H5.5c-.8 0-1.5.7-1.5 1.5s.7 1.5 1.5 1.5h117c.8 0 1.5-.7 1.5-1.5s-.7-1.5-1.5-1.5z" id="Rectangle_13_6_"/><path class="st4" d="M63 66h2v39h-2z" id="Rectangle_23_4_"/><path class="st4" d="M98 46.4L63.2 64.8l.8 1.8 34.8-18.4z" id="Rectangle_24_4_"/><path class="st4" d="M30 46.4l-.8 1.8L64 66.6l.8-1.8z" id="Rectangle_24_copy_4_"/><path class="st5" d="M64 26L27 46v40l37 20 37-20V46L64 26zm34 58.5L64 103 30 84.5v-37L64 29l34 18.5v37z" id="Rectangle_23_copy_5_4_"/><path class="st1" d="M95.5 56.4l-1-1.7-26 14 1 1.7 26-14zm-27 17.2l1 1.7 26-14-1-1.7-26 14zm0 5l1 1.7 26-14-1-1.7-26 14zm0 5l1 1.7 26-14-1-1.7-26 14zm0 5l1 1.7 26-14-1-1.7-26 14zm0 5l1 1.7 26-14-1-1.7-26 14z" id="Rectangle_25_copy_5_4_"/><path class="st1" d="M31.5 37.8L22 43v10.5l9.5 5.3 9.5-5.3V43z" id="Rectangle_23_copy_4_4_"/><path class="st5" d="M31.5 36.8L21 42.5V54l10.5 5.7L42 54V42.5l-10.5-5.7zM39 52.5l-7.5 4.2-7.5-4.2V44l7.5-4.3L39 44v8.5z" id="Rectangle_23_copy_6_4_"/><path transform="rotate(-60.02 27.507 46.298)" class="st5" d="M27 41.8h1v9h-1z" id="Rectangle_25_copy_6_4_"/><path class="st5" d="M31 47.8h1v9h-1z" id="Rectangle_25_4_"/><path transform="rotate(-30 35.502 46.3)" class="st5" d="M31 45.8h9v1h-9z" id="Rectangle_25_copy_7_4_"/></svg>