<?xml version="1.0" encoding="utf-8"?>
<!-- Generator: Adobe Illustrator 20.1.0, SVG Export Plug-In . SVG Version: 6.00 Build 0)  -->
<svg version="1.1" id="Layer_1" xmlns="http://www.w3.org/2000/svg" xmlns:xlink="http://www.w3.org/1999/xlink" x="0px" y="0px"
	 viewBox="0 0 300 200" style="enable-background:new 0 0 300 200;" xml:space="preserve">
<style type="text/css">
	.st0{fill:#FFFFFF;}
</style>
<g id="JEWELRY">
	<g>
		<path class="st0" d="M181.7,139.3c1.2-0.6,2.3-1.5,3-2.7l0.4,3h7.9v-2.9l-3.9-0.6v-33.4h-8.5v3l3.9,0.6v10.5
			c-0.9-1.1-1.8-1.8-3-2.5c-1.2-0.5-2.5-0.9-4-0.9c-3.1,0-5.6,1.3-7.3,3.8s-2.7,5.8-2.7,10v0.5c0,3.7,0.9,6.7,2.7,9
			c1.7,2.3,4.2,3.5,7.3,3.5C179,140.2,180.4,139.8,181.7,139.3z M173.7,134c-1.1-1.6-1.6-3.7-1.6-6.3v-0.5c0-2.9,0.5-5.4,1.6-7.2
			c1.1-1.8,2.7-2.8,5-2.8c1.3,0,2.5,0.3,3.5,1c1,0.6,1.7,1.5,2.4,2.6v11.9c-0.6,1.2-1.4,2.1-2.4,2.7s-2.2,1-3.6,1
			C176.4,136.4,174.8,135.6,173.7,134z M164.9,156.6h-2.6v12.2h7.8v-2.3h-5.2V156.6z M133.6,136.7l-3.9-0.6v-8.2h3l6.8,8.5l-2.4,0.3
			v3h10.7v-3l-2.9-0.5l-8.2-10.4l6.8-8.1l3.1-0.6v-3h-10.8v3l2.4,0.3l-5.5,6.8h-3v-21.5h-8.5v3l3.9,0.6V136l-3.9,0.6v3h12.4
			L133.6,136.7L133.6,136.7z M147.1,168.9h8.6v-2.3h-6v-2.8h5.9v-2.3h-5.9v-2.6h6v-2.3h-8.6V168.9z M216.4,117.3
			c-2.1-2.5-4.9-3.7-8.4-3.7s-6.4,1.2-8.4,3.7s-3.1,5.6-3.1,9.4v0.5c0,3.8,1.1,6.9,3.1,9.4c2.1,2.5,4.9,3.7,8.4,3.7s6.4-1.2,8.4-3.7
			c2.1-2.5,3.1-5.6,3.1-9.4v-0.5C219.6,122.8,218.5,119.6,216.4,117.3z M214.9,127.1c0,2.7-0.5,5-1.7,6.7s-2.8,2.7-5.1,2.7
			s-4-0.9-5.1-2.7c-1.2-1.7-1.7-4-1.7-6.7v-0.5c0-2.7,0.5-5,1.7-6.7c1.2-1.8,2.8-2.7,5.1-2.7s4,0.9,5.1,2.7c1.2,1.8,1.7,4,1.7,6.7
			V127.1z M186.3,160.6c0-2.3-1.6-4-4.1-4h-5.7v12.2h2.6v-4.3h1.9l2.4,4.3h3l-2.8-4.6C184.9,163.9,186.3,162.7,186.3,160.6z
			 M181.8,162.2h-2.7v-3.3h2.7c1.1,0,1.8,0.6,1.8,1.6S182.8,162.2,181.8,162.2z M100.8,164.8c0,1.2-0.8,1.9-1.9,1.9
			c-0.9,0-1.5-0.4-1.9-0.9l-1.2,1.9c0.9,0.9,2.1,1.2,3.3,1.2c2.5,0,4.3-1.4,4.3-4.2v-8.2h-2.6C100.8,156.6,100.8,164.8,100.8,164.8z
			 M118.3,136.7l-3.9-0.6v-22h-8.5v3l3.9,0.6v18.4l-3.9,0.6v3h12.4V136.7z M110.4,168.9h8.6v-2.3h-6v-2.8h5.9v-2.3H113v-2.6h6v-2.3
			h-8.6V168.9z M102,139.7v-3l-1.9-0.2c0-0.3,0-0.6-0.1-1c0-0.3,0-0.6,0-1v-12.3c0-2.8-0.9-4.9-2.7-6.4c-1.8-1.5-4.2-2.3-7-2.3
			c-1.9,0-3.8,0.3-5.4,0.9c-1.6,0.5-3,1.3-4.2,2.3v5h3.6l0.5-2.7c0.5-0.5,1.3-1,2.2-1.2c0.9-0.3,1.9-0.4,3.1-0.4c1.7,0,3,0.4,4,1.3
			s1.4,2.1,1.4,3.6v3h-4.9c-3.5,0-6.2,0.6-8.1,1.9c-1.9,1.3-2.9,3.2-2.9,5.6s0.6,4.2,2.1,5.5c1.4,1.3,3.5,1.9,6,1.9
			c1.5,0,3-0.4,4.3-1.2c1.4-0.8,2.5-1.7,3.3-2.9c0,0.5,0.1,1.1,0.2,1.6s0.2,1.2,0.3,1.8h6.2V139.7z M95.4,132.5
			c-0.5,1.1-1.5,1.9-2.7,2.7c-1.3,0.8-2.7,1.1-4.2,1.1c-1.4,0-2.5-0.3-3.1-0.9c-0.6-0.5-1.1-1.4-1.1-2.6c0-1.3,0.5-2.4,1.6-3.2
			c1.1-0.9,2.6-1.3,4.5-1.3h5C95.4,128.3,95.4,132.5,95.4,132.5z M182.3,53.5l-11-23.1h-44l-11,23.1l33,34.1L182.3,53.5z
			 M139.6,53.5h19.2l-9.7,25.7L139.6,53.5z M153.6,77.6l9.1-24.1h14.2L153.6,77.6z M176.7,50.2h-12.8l5.3-14.2L176.7,50.2z
			 M167.9,33.7L167.9,33.7h-0.1H167.9z M166.3,33.7l-5.5,14.7l-7.9-14.7C152.9,33.7,166.3,33.7,166.3,33.7z M158,50.2h-18.3l9.6-16
			L158,50.2z M145.6,33.7l-8.2,13.6l-5.2-13.6C132.2,33.7,145.6,33.7,145.6,33.7z M130.6,33.7h0.1H130.6L130.6,33.7z M129.3,36
			l5.3,14.2h-12.8L129.3,36z M121.8,53.5H136l9.1,24.1L121.8,53.5z M160,102.7h-4.6v4.7h4.6V102.7z M151.4,136.7v3h12.4v-3l-3.9-0.6
			v-22h-8.5v3l3.9,0.6v18.4L151.4,136.7z M136.2,165.4l-2.3-8.9h-2.1l-2.4,8.9l-2.2-8.9h-2.9l3.5,12.2h2.8l2.2-8.4l2.2,8.4h2.8
			l3.5-12.2h-2.9L136.2,165.4z M114.5,102.7h-4.6v4.7h4.6V102.7z M197.2,161.5l-3-4.9h-3l4.7,7.2v5h2.6v-5l4.6-7.2h-2.9L197.2,161.5
			z"/>
	</g>
</g>
</svg>
