<?xml version="1.0" encoding="utf-8"?>
<!-- Generator: Adobe Illustrator 20.1.0, SVG Export Plug-In . SVG Version: 6.00 Build 0)  -->
<svg version="1.1" id="Layer_1" xmlns="http://www.w3.org/2000/svg" xmlns:xlink="http://www.w3.org/1999/xlink" x="0px" y="0px"
	 viewBox="0 0 300 200" style="enable-background:new 0 0 300 200;" xml:space="preserve">
<style type="text/css">
	.st0{fill:#FFFFFF;}
</style>
<g>
	<path class="st0" d="M40.1,133.4h4.1l11.1,25.4h-4.7l-2.6-6.1H36.1l-2.6,6.1H29L40.1,133.4z M46.5,148.9l-4.4-10.1l-4.3,10.1H46.5z
		"/>
	<path class="st0" d="M64.4,155.2l2.9-3c1.5,1.9,3,3,5.1,3c2.4,0,4-1.6,4-4.9v-16.6h4.5v16.7c0,3-0.9,5.2-2.3,6.7s-3.6,2.2-6.1,2.2
		C68.6,159.2,66.1,157.4,64.4,155.2z"/>
	<path class="st0" d="M92.1,133.6H97l7.6,19.4l7.6-19.4h4.8l-10.5,25.5h-3.9L92.1,133.6z"/>
	<path class="st0" d="M128.9,133.6h4.4v25.3h-4.4V133.6z"/>
	<path class="st0" d="M153.5,137.7h-8v-4.1H166v4.1h-8v21.2h-4.5V137.7z"/>
	<path class="st0" d="M183.6,133.4h4.1l11.1,25.4h-4.7l-2.6-6.1h-11.9l-2.6,6.1h-4.5L183.6,133.4z M189.9,148.9l-4.4-10.1l-4.3,10.1
		H189.9z"/>
	<path class="st0" d="M210.4,133.6h11.3c3.2,0,5.7,0.9,7.3,2.5c1.3,1.4,2.1,3.2,2.1,5.5v0.1c0,4.2-2.5,6.6-6,7.7l6.8,9.6h-5.2
		l-6.2-8.8h-5.6v8.8h-4.4v-25.4L210.4,133.6L210.4,133.6z M221.3,146.1c3.2,0,5.2-1.7,5.2-4.2v-0.1c0-2.7-1.9-4.2-5.2-4.2h-6.5v8.5
		H221.3z"/>
	<path class="st0" d="M242.6,146.3L242.6,146.3c0-7.2,5.5-13.1,13.2-13.1c7.7,0,13.2,5.9,13.2,13v0.1c0,7.1-5.5,13.1-13.2,13.1
		C248,159.3,242.6,153.4,242.6,146.3z M264.3,146.3L264.3,146.3c0-5-3.6-9.1-8.6-9.1c-5,0-8.5,4-8.5,8.9v0.1c0,4.9,3.6,9,8.6,9
		C260.8,155.2,264.3,151.2,264.3,146.3z"/>
</g>
<g>
	<polygon class="st0" points="142.1,77.4 149,85.4 155.9,77.4 149,69.3 	"/>
	<path class="st0" d="M149,45.2c-19.9,0-36,16.1-36,36s16.1,36,36,36s36-16.1,36-36S168.9,45.2,149,45.2z M171.5,90.6h-4.4
		l-9.1-10.7l-6.8,7.9c1.7,1.9,4.7,5.6,4.7,8.7c0,3.8-3.2,7-7,7s-7-3.2-7-7c0-3.2,2.9-6.9,4.7-8.7l-6.8-7.9l-9.1,10.7h-4.4l11.4-13.3
		L126.7,64h4.5l0.1,0.1l8.9,10.5l9.1-10.6l9.1,10.6l9.1-10.6h4.4l-11.2,13.3L171.5,90.6z"/>
	<path class="st0" d="M149,90.6c-0.4,0.4-0.9,0.9-1.4,1.5c-1.5,1.7-2.3,3.4-2.3,4.4c0,2.1,1.6,3.7,3.7,3.7s3.7-1.6,3.7-3.7
		c0-1.1-0.8-2.7-2.3-4.4C150,91.6,149.5,91.1,149,90.6z"/>
</g>
</svg>
