<svg id="Layer_1" xmlns="http://www.w3.org/2000/svg" width="60" height="60" viewBox="-9.918 -10 60 60"><style>.st0{fill:#fff}</style><path class="st0" d="M20.082 27.8c-.3.3-.7.8-1.2 1.3-1.2 1.5-1.9 2.8-1.9 3.7 0 1.7 1.4 3.1 3.1 3.1s3.1-1.4 3.1-3.1c0-.9-.7-2.2-1.9-3.7-.4-.4-.7-.8-1.2-1.3zm-5.7-11l5.7 6.7 5.7-6.7-5.7-6.7-5.7 6.7zm5.7-26.8c-16.6 0-30 13.4-30 30s13.4 30 30 30 30-13.4 30-30-13.4-30-30-30zm18.8 37.8h-3.6l-7.6-8.9-5.6 6.6c1.5 1.6 3.9 4.6 3.9 7.3 0 3.2-2.6 5.9-5.9 5.9-3.2 0-5.9-2.6-5.9-5.9 0-2.7 2.4-5.7 3.9-7.3l-5.6-6.6-7.6 8.9h-3.7l9.4-11-9.4-11h3.7l.1.1 7.4 8.7 7.6-8.9 7.6 8.9 7.6-8.9h3.7l-9.4 11 9.4 11.1z" id="AJV"/></svg>