<?xml version="1.0" encoding="utf-8"?>
<!-- Generator: Adobe Illustrator 20.1.0, SVG Export Plug-In . SVG Version: 6.00 Build 0)  -->
<svg version="1.1" id="Layer_1" xmlns="http://www.w3.org/2000/svg" xmlns:xlink="http://www.w3.org/1999/xlink" x="0px" y="0px"
	 viewBox="0 0 300 200" style="enable-background:new 0 0 300 200;" xml:space="preserve">
<style type="text/css">
	.st0{fill:#FFFFFF;}
</style>
<g id="Shape_1">
	<g>
		<path class="st0" d="M87.5,163.6l-4.9-12.3h-2.8v15.9h1.9v-13.3l5.4,13.3h0.8l5.4-13.3v13.3h2v-15.9h-2.8L87.5,163.6z M106,151.1
			c-4.6,0-7.9,3.5-7.9,8.2s3.1,8.2,7.9,8.2c4.6,0,7.9-3.5,7.9-8.2S110.7,151.1,106,151.1z M106,165.8c-3.6,0-5.8-2.8-5.8-6.4
			c0-3.7,2.2-6.4,5.8-6.4c3.5,0,5.8,2.8,5.8,6.4C111.8,163,109.6,165.8,106,165.8z M115,153.1h5v14.2h1.9v-14.2h5v-1.8h-12
			C115,151.3,115,153.1,115,153.1z M135.9,151.1c-4.6,0-7.9,3.5-7.9,8.2s3.1,8.2,7.9,8.2c4.6,0,7.9-3.5,7.9-8.2
			S140.6,151.1,135.9,151.1z M135.9,165.8c-3.6,0-5.8-2.8-5.8-6.4c0-3.7,2.2-6.4,5.8-6.4c3.5,0,5.8,2.8,5.8,6.4
			C141.8,163,139.5,165.8,135.9,165.8z M145.4,154.3h4.6v12.9h3.4v-12.9h4.6v-3h-12.7L145.4,154.3L145.4,154.3z M166.9,151.1
			c-4.8,0-8.3,3.4-8.3,8.2s3.5,8.2,8.3,8.2c4.8,0,8.2-3.4,8.2-8.2S171.7,151.1,166.9,151.1z M166.9,164.5c-2.9,0-4.8-2.2-4.8-5.2
			c0-3,1.9-5.2,4.8-5.2s4.8,2.2,4.8,5.2C171.7,162.2,169.8,164.5,166.9,164.5z M188.2,160.7c0,2.2-1.3,3.7-3.7,3.7
			c-2.4,0-3.7-1.5-3.7-3.7v-9.4h-3.4v9.5c0,3.9,2.3,6.7,7.1,6.7c4.8,0,7.1-2.7,7.1-6.7v-9.5h-3.4L188.2,160.7L188.2,160.7z
			 M207.3,156.5c0-2.9-2-5.1-5.3-5.1h-7.4v15.9h3.4v-5.6h2.5l3.1,5.6h3.9l-3.6-6.1C205.5,160.7,207.3,159.2,207.3,156.5z
			 M201.5,158.6h-3.6v-4.3h3.6c1.3,0,2.3,0.8,2.3,2.1C203.8,157.8,202.8,158.6,201.5,158.6z M212.5,155.6c0-1,0.8-1.6,2.2-1.6
			c1.6,0,3.3,0.5,4.6,1.7l1.9-2.5c-1.6-1.4-3.7-2.2-6.1-2.2c-3.7,0-6,2.2-6,4.9c0,6,9.1,4,9.1,6.8c0,0.9-0.9,1.8-2.8,1.8
			c-2.2,0-3.9-1-5-2.2l-1.9,2.6c1.5,1.5,3.7,2.5,6.7,2.5c4.3,0,6.4-2.2,6.4-5.1C221.5,156.5,212.5,158.2,212.5,155.6z M99.3,106.8
			v35.3h23.2v-7.9h-14.2v-27.4H99.3z M157,118.5c0-6.4-4.3-11.8-12.2-11.8h-17.6v35.3h9.1v-11.8h8.5
			C152.7,130.2,157,124.8,157,118.5z M143.4,122.3h-7.2v-7.6h7.2c2.4,0,4.3,1.3,4.3,3.8C147.8,120.9,145.8,122.3,143.4,122.3z
			 M170.1,106.8h-9.1v35.3h9.1V106.8z M185.6,121.6l14.9,20.5h8.8v-35.3h-9.1v19.4l-14.2-19.4h-9.4v35.3h9.1V121.6z M241.3,114.7
			v-7.9h-8.6l-4.3-9.4L213,86.7l-5.8-2.1l-7.8-6.3l-4.1-7.9l-14.5-6.1l-4,3.6l-18.2-26.5l-0.1-0.2l-5.6-5.3l-6.2-3.2l-16.7,21.7
			l-10.7,6.8l-9.7-3.1l-1.7,1.2l-3-1.6l-7.2,11.1l-2.5,4l-2.2,5.1l-2.5,2l-1.9,9l-9.9,9.3l-3.1,8.7h-3.3l-13.3,35.3h10.3l1.7-5.1h14
			l1.7,5.1h10.3l-13.3-35.3H80l2.1-6.1l10.2-9.5l1.8-8.8l2.1-1.6l2.5-5.8l2.3-3.9l2-3.1l7.3,13c0.5,0.9,1.3,1.2,2.1,0.8
			c0.4-0.2,0.9,0,1.1,0.6l2.5,7.5h2.7v-0.1c-1-3.5-1.6-7.3-1.6-11.1c0-1.4-0.5-2.7-1.3-3.4l-2.5-2.2l-5.4-8.7l2-1.4l1.4,0.4l4,6
			c0.2,0.3,0.3,0.7,0.2,1.1c-0.1,0.4-0.3,0.7-0.5,0.7l-0.9,0.3c-0.1,0.1-0.1,0.1-0.1,0.4c0,0.1,0.1,0.3,0.1,0.4l2.5,1.2
			c1.4,0.7,2.5,2.5,2.8,4.6l0.7,5.2c0.4,2.2,0.8,4.5,1.5,6.5h9.2l-0.4-4.6c-0.3-3.4-1.3-6.7-2.8-9.4l-6.2-11.1l11.1-7l13.8-18
			l1.4,2.5l-1.4,28.6l3.8-9.5c0.4-1,0.6-2.1,0.6-3.2v-4.8c0,0,1.6-9.8,3.4-9.8l0.5,0.5c0.6,1.3,0.9,4.6,1,6.7
			c0.1,1.1-0.1,2.2-0.4,3.2l0,0c-0.1,0.2,0,0.5,0.1,0.7s0.4,0.1,0.4-0.1c0.7-1.1,1.5-1.9,2-1.6c0.7,0.4,0.4,3.7,0.1,5.3
			c0,0.2,0,0.4,0.1,0.5c0.1,0.1,0.2,0.1,0.4,0.1l0.9-0.4c0.4-0.1,0.7,0,1,0.4c0.2,0.4,0.3,0.9,0.2,1.4l-2.5,10l3.4-2.6
			c1.1-0.9,1.9-2.5,2.2-4.3l0.6-4.4l3.1,3.6c-0.7,1.1-1.2,3.8-1.2,5.5v5.9l-3.9,8.5c-0.4,1-0.7,2.2-0.7,3.4v12.9l2.6-4
			c0.7-1.2,1.2-2.7,1.2-4.3V84c0-0.6,0.1-1.2,0.4-1.6L168,78c0.4-0.6,0.5-1.5,0.4-2.2l-0.2-1.2c-0.2-1.3,0.2-2.5,1.1-3l3.1-1.5
			c0.1-0.1,0.3-0.1,0.4,0l0.7,1.1c0,0.3,0,0.6-0.1,0.9l-0.3,0.8c-0.7,1.9-1.3,4-1.6,6.3l-0.5,4.5l4-10.2l0.7,1l2-1.8L173,89.5
			l3.9-5.8l2.4-2.2c0.4-0.3,0.6-0.9,0.6-1.6v-3l1.3-1.1c0.3-0.3,0.7-0.3,1-0.1c0.4,0.1,0.6-0.6,0.7-0.1c0.4,1.3,0.7,2.8,0.8,2.9
			c0.1,0.3,0.4,0.4,0.6,0.2c1.3-0.9,2.7-1.6,3.4-1.3c1,0.4,2.3,4,2.3,4l-1.3,3.1c-0.1,0.4-0.2,0.9-0.1,1.3l0.4,2.5
			c0.1,0.2,0,0.5-0.1,0.7c-1.6,2.1-2.2,5.4-1.4,8.3c0.1-0.1,0.1-0.1,0.2-0.1c5.1-3.5,11.5-11.1,16.8-3.6c1,1.4,1.8,3.4,3.4,3.1
			c1.6-0.1,3.4-0.9,4.9-0.6c0.6,0.1,1.2,0.2,1.8,0.4l10.2,3.2l1.6,6.9h-10.9v35.3h25.8V134h-16.7v-6h16.3V120h-16.3v-5.5h16.6V114.7
			z M82.3,129h-8.9l4.5-13.3L82.3,129z"/>
	</g>
</g>
</svg>
