<?xml version="1.0" encoding="utf-8"?>
<!-- Generator: Adobe Illustrator 20.1.0, SVG Export Plug-In . SVG Version: 6.00 Build 0)  -->
<svg version="1.1" id="Layer_1" xmlns="http://www.w3.org/2000/svg" xmlns:xlink="http://www.w3.org/1999/xlink" x="0px" y="0px"
	 viewBox="0 0 300 200" style="enable-background:new 0 0 300 200;" xml:space="preserve">
<style type="text/css">
	.st0{fill:#FFFFFF;}
</style>
<g id="Yours_For_Better_Audio">
	<g>
		<path class="st0" d="M149.6,100.5c21,0,38.4-17.2,38.4-38.4s-17.2-38.4-38.4-38.4S111.2,41,111.2,62.2
			C111.3,83.4,128.4,100.5,149.6,100.5z M159.5,91.2c-2,0.5-5.3,1.6-6.4,1.8c0,0,0,1.3,0,3c-1.2,0.1-2.2,0.2-3.5,0.2
			c-1.6,0-3.2-0.1-4.8-0.3c-0.2-2.4-0.7-6.9,0.1-9.1c0.1-0.1,0.1-0.3,0.2-0.4c0.6-1.1,2.1-1.4,3.5-0.5c1.8,1.1,2.4,3.1,2.9,4.4
			c0.3,1.4,0.3,3.3,1.3,3.1c0,0,0.1,0,0.2,0c-0.3-0.2-0.6-0.6-0.7-1.4c-0.4-2-1.4-6.6-1.5-7.5c-0.2-1.4-1.5-1.9-6.1-3.3
			s-5-5.6-5-5.6s-2-21.4-2.3-28.2c0-0.1,0-0.2,0-0.3c0-2.1,1.5-9.7,19.7-9c2.1,0.6,3.3,1.7,4.5,3.1c1.1,1.2,2.7,3.3,2.4,4.8
			c0,0.6-0.2,1.4-0.5,1.6l-0.4,0.1l-0.3,0.1l0.7-0.3c-0.4-1-1.4-2.1-4.6-4l0.2,2.4V46h0.2v-0.3c0.1,0,0.2,0.1,0.3,0.1l0,0l0,0l0,0
			V46h0.5l0,0c0.1,0.1,0.3,0.1,0.4,0.2c0.1,0,0.1,0.1,0.2,0.1h-0.3v0.5h0.5v-0.4c0.1,0.1,0.2,0.1,0.3,0.2v0.2h0.3
			c0.2,0.2,0.4,0.3,0.5,0.4v0.3h0.2v-0.1l0.1,0.4h-0.2v0.5h0.3v0.3h-0.3v0.4l0.3,0.1c0,0,1.2,0.2,1.3,1.1c0.1,0.6,0.2,2.2,0.2,2.2
			l0,0c-0.5-0.6-2.9-1.6-4.7-2.2l0.2,2h0.1v0.5h0.5v-0.4c0.1,0,0.2,0,0.3,0v0.3h0.5v-0.2c0.1,0,0.1,0,0.2,0.1h0.1v0.1h0.1
			c0.2,0.1,0.5,0.2,0.7,0.2h-0.1v0.5h0.5v-0.3h0.1v0.2l0.3,2.2c0,0,1.1,0.2,1.2,1.1c0.1,0.4,0.2,2.3,0.2,2.3l0,0
			c-0.6-0.5-3.2-1.5-4.7-1.9l0.2,2l0.1,0.5h0.2v-0.4c0.1,0,0.2,0,0.3,0v0.4h0.5v-0.3c0.1,0,0.2,0,0.3,0v0.3h0.5v-0.2
			c0.1,0,0.2,0,0.3,0v0.2h0.5l0,0c0.2,0,0.4,0.1,0.5,0.1V60v0.1l0.1,1.3V61h0.3v0.5h0.3l0.1,0.7l0,0v0.5c0,0,1.1,0.1,1.2,1.1
			c0.1,1,0.3,2.1,0.3,2.1l0,0c-0.7-0.5-3.6-1.1-4.7-1.2l0.1,1.7c0.1,0,0.1,0,0.2,0v0.4h0.5v-0.3c0.1,0,0.2,0,0.3,0v0.3h0.5v-0.3
			c0.1,0,0.2,0,0.3,0v0.3h0.5v-0.2c0.1,0,0.2,0,0.3,0v0.2h0.5v-0.2c0.1,0,0.1,0,0.2,0l0.2,1.9l0,0l0,0V69l0,0v0.5h0.1v-0.2v0.2v0.2
			v0.1l1.4,0.1c0,0,1,0.2,0.7,1.4c0,0.1,0,0.1,0,0.2l0,0v0.1l0,0v0.1l0,0v0.1l0,0v0.1l0,0V72l0,0v0.3l0,0c0,0,0,0,0,0.1l0,0
			c0,0,0,0,0,0.1l0,0c0,0,0,0,0,0.1l0,0l0,0l0,0l0,0l0,0l0,0l0,0l0,0l0,0l0,0l0,0c-2.2,0.2-5.8,0.6-10.5,1.4
			c-8.2,1.2-11.8,2.3-11.8,2.3c0.5,1.8,1.7,4,4.1,4.1c3.3,0.2,4,1,5.2,1.7c1.7-0.5,3.3-0.6,5.3-1.1c-0.1,0.4,0.7,6.4,1.2,8.4
			c0.1,0.4,0,1-0.4,1.4C159.7,91.1,159.5,91.2,159.5,91.2L159.5,91.2z M149.6,28.5c18.7,0,33.9,15.2,33.9,33.9
			c0,15.1-9.9,27.8-23.5,32.2c0-0.6,0-1.5,0-2.7v-0.2c0-0.1,0.1-0.2,0.2-0.3c0.1-0.1,0.2-0.1,0.3-0.2c0.2-0.2,0.4-0.4,0.5-0.6
			c0.1-0.2,0.1-0.4,0.1-0.6c0-0.1,0-0.2,0-0.4c-0.1-1-0.4-2.8-0.6-4.6c-0.1-1-0.2-1.7-0.3-2.3c0-0.3-0.1-0.6-0.1-0.7s0-0.2,0-0.3
			c0-0.1,0-0.2,0.1-0.3c0-0.1,0.1-0.1,0.2-0.2c0.4-0.5,1.5-1.3,2-1.6c2.7-1.3,3.8-2.8,4.5-3.7c0.6-1.3,0.7-2.2,0.7-2.9l0,0v-0.1l0,0
			l0,0l0,0c0,0,0,0,0-0.1l0,0l0,0c0,0,0,0,0-0.1l0,0l0,0c0,0,0,0,0-0.1l0,0v-0.1l0,0v-0.1l0,0l0,0l0,0V72l0,0l0,0v-0.1l0,0l0,0v-0.1
			v-0.1c0-0.1,0-0.1,0-0.2s0-0.1,0-0.2c0-0.3-0.1-0.5-0.2-1c-0.2-0.3-0.4-0.5-0.6-0.6c-0.1-0.1-0.2-0.1-0.4-0.2h-0.1l-0.5-0.1
			c-0.2,0-0.3-0.1-0.3-0.3l-0.2-1.7c0-0.1,0.1-0.3,0.2-0.4l0.4-0.2c0.2-0.1,0.2-0.3,0.2-0.5l0,0c0-0.1-0.2-1.3-0.3-2.1
			c0-0.3-0.1-0.5-0.3-0.7c-0.1-0.2-0.3-0.3-0.5-0.4c-0.1-0.1-0.2-0.2-0.2-0.3l-0.2-1.7c0-0.1,0-0.3,0.2-0.4l0.4-0.2
			c0.1-0.1,0.2-0.3,0.2-0.4l0,0c0-0.1,0-0.5-0.1-1.1c-0.1-0.5-0.1-1.2-0.1-1.4c0-0.3-0.2-0.5-0.3-0.6c-0.2-0.2-0.3-0.3-0.6-0.4
			c-0.1-0.1-0.2-0.2-0.2-0.3l-0.2-1.5c0-0.1,0-0.3,0.2-0.3l0.4-0.3c0.1-0.1,0.2-0.3,0.2-0.4v-0.1c0-0.3-0.2-1.6-0.2-2.1
			c0-0.3-0.1-0.5-0.3-0.7c-0.2-0.2-0.4-0.4-0.6-0.4c-0.1-0.1-0.2-0.2-0.2-0.3l-0.1-0.5c0-0.2,0.1-0.3,0.2-0.4h0.1c0,0,0.1,0,0.1-0.1
			c0.1-0.1,0.2-0.2,0.3-0.4c0.1-0.2,0.2-0.4,0.3-0.7c0.1-0.2,0.1-0.5,0.1-0.7c0-0.1,0-0.1,0-0.2c0-0.4-0.1-0.7-0.2-1.4
			c-0.4-1.1-1.2-2.2-2.2-3.6c-0.7-1-1.8-1.9-3.3-2.8c-1.5-0.6-3.5-1.3-6.4-1.6c-1.7-0.2-3.2-0.3-4.6-0.3c-2.1,0-3.9,0.2-5.4,0.7
			c-1.5,0.5-2.7,1.4-3.6,2c0,0-0.1,0-0.1,0.1l0,0l0,0l-0.2,0.2l0,0l0,0c-0.1,0.1-0.1,0.1-0.2,0.2l0,0c-0.1,0.1-0.1,0.1-0.2,0.2l0,0
			l0,0l0,0l0,0c-0.1,0.1-0.2,0.2-0.4,0.3l0,0l-0.1,0.1l0,0l0,0c0,0-0.1,0.1-0.2,0.2l0,0l0,0l-0.1,0.1l-0.1,0.2
			c-0.5,0.6-1.3,1.5-2,2.4c-0.3,0.3-0.6,0.7-1.1,1.3c-0.7,1-1.3,1.8-1.6,2.9s-0.4,2.1-0.5,3.5c0,0.2,0,0.3,0,0.5
			c0,1,0.1,2.1,0.2,3.9c0.4,4.9,1.6,12.4,2.7,18.1c0.3,1.6,0.7,3,1.6,3.9c1.1,1.6,2.3,2.3,3.4,2.8c0.7,0.3,1.5,0.4,1.9,0.4
			c0.1,0,0.1,0,0.2,0.1l0.5,0.4c0.1,0.1,0.1,0.1,0.1,0.2l0.6,3.4c0,0.2,0.3,0.4,0.5,0.4l0.6-0.1c0.2,0,0.4,0.1,0.4,0.3l0.1,0.6
			c0,0.1,0,0.2,0,0.2c0,0.1-0.1,0.2-0.1,0.2c-0.4,1.2-0.5,2.7-0.5,3.7c0,1.3,0.1,2.4,0.2,3.7v0.4c0,0.4,0.1,1,0.1,1.4
			c-16.3-2.7-28.6-16.6-28.6-33.5C115.8,43.7,131,28.5,149.6,28.5z M152.7,62.6l-0.1-0.5l-0.5,0.1l0.1,0.5L152.7,62.6z M150.6,60
			l0.1,0.5l0.5-0.1l-0.1-0.5L150.6,60z M152.4,61.5l-0.1-0.5l-0.5,0.1l0.1,0.5L152.4,61.5z M151.6,62.6l-0.1-0.5l-0.5,0.1l0.1,0.5
			L151.6,62.6z M151.5,61.6l-0.1-0.5l-0.5,0.1l0.1,0.5L151.5,61.6z M152.7,59.9l0.1,0.5l0.5-0.1l-0.1-0.5L152.7,59.9z M149.8,60.1
			l0.1,0.5l0.5-0.1l-0.1-0.5L149.8,60.1z M154.5,61.3l-0.1-0.5l-0.5,0.1l0.1,0.5L154.5,61.3z M153.5,62.5l-0.1-0.5l-0.5,0.1l0.1,0.5
			L153.5,62.5z M153.4,61.4l-0.1-0.5l-0.5,0.1l0.1,0.5L153.4,61.4z M151.7,60l0.1,0.5l0.5-0.1l-0.1-0.5L151.7,60z M150.5,62.7
			l-0.1-0.5l-0.5,0.1l0.1,0.5L150.5,62.7z M154.6,62.4l-0.1-0.5l-0.5,0.1l0.1,0.5L154.6,62.4z M147.2,63c0.1,0,0.1,0,0.2,0
			c0,0,0.1,0,0.2,0h0.1l-0.1-0.5l-0.5,0.1l0.1,0.5C147.1,63,147.1,63,147.2,63z M148.5,61.8l-0.1-0.5l-0.5,0.1L148,62L148.5,61.8z
			 M148.6,62.9l-0.1-0.5l-0.5,0.1l0.1,0.5L148.6,62.9z M147.7,62.1l-0.1-0.5l-0.5,0.1l0.1,0.5L147.7,62.1z M147.8,70.1l0.1,0.5
			l0.5-0.1l-0.1-0.5L147.8,70.1z M146.8,60.6l0.1,0.5l0.5-0.1l-0.1-0.5L146.8,60.6z M147.9,60.5L148,61l0.5-0.1l-0.1-0.5L147.9,60.5
			z M150.5,61.7l-0.1-0.5l-0.5,0.1l0.1,0.5L150.5,61.7z M148.7,60.4l0.1,0.5l0.5-0.1l-0.1-0.5L148.7,60.4z M149.7,62.8l-0.1-0.5
			l-0.5,0.1l0.1,0.5L149.7,62.8z M149.6,61.8l-0.1-0.5l-0.5,0.1L149,62L149.6,61.8z M155.5,59.6l0.1,0.6l0.5-0.1l-0.1-0.5H155.5z
			 M147,52.6l0.1,0.5l0.5-0.1l-0.1-0.5L147,52.6z M148,55.3l-0.1-0.5l-0.5,0.1l0.1,0.5L148,55.3z M146.9,55.3l-0.1-0.5l-0.5,0.1
			l0.1,0.5L146.9,55.3z M146.2,52.7l0.1,0.5l0.5-0.1l-0.1-0.5L146.2,52.7z M147.9,54.2l-0.1-0.5l-0.5,0.1l0.1,0.5L147.9,54.2z
			 M151,55.5v-0.2l-0.5,0.1v0.1C150.4,55.5,150.6,55.5,151,55.5z M148.8,55l-0.1-0.5l-0.5,0.1l0.1,0.5L148.8,55z M150.7,54.8
			l-0.1-0.5l-0.5,0.1l0.1,0.5L150.7,54.8z M149,53.3l0.1,0.5l0.5-0.1l-0.1-0.5L149,53.3z M148.1,53.6l0.1,0.5l0.5-0.1l-0.1-0.5
			L148.1,53.6z M149.9,54.9l-0.1-0.5l-0.5,0.1l0.1,0.5L149.9,54.9z M149.4,55.5c0.2,0,0.4,0,0.6,0c0,0,0,0-0.1,0v-0.1L149.4,55.5
			L149.4,55.5L149.4,55.5z M156.4,61.2l-0.1-0.5l-0.5,0.1l0.1,0.5L156.4,61.2z M148.2,68.2l-0.5,0.1l0.1,0.5l0.5-0.1L148.2,68.2z
			 M146.8,54.3l-0.1-0.5l-0.5,0.1l0.1,0.5L146.8,54.3z M156.4,61.5l-0.5,0.1l0.1,0.5l0.5-0.1L156.4,61.5z M155.8,62.6
			c0.1,0,0.3,0,0.4,0h0.1v-0.1L155.8,62.6L155.8,62.6L155.8,62.6z M155.5,62.6L155.5,62.6h-0.2C155.3,62.6,155.3,62.6,155.5,62.6
			C155.4,62.6,155.4,62.6,155.5,62.6z M155.7,62.6c-0.1,0-0.2,0-0.3,0l0,0C155.6,62.6,155.7,62.6,155.7,62.6z M153.6,59.8l0.1,0.5
			l0.5-0.1l-0.1-0.5L153.6,59.8z M155.4,62.3l-0.1-0.5l-0.5,0.1l0.1,0.5L155.4,62.3z M155.3,61.3l-0.1-0.5l-0.5,0.1l0.1,0.5
			L155.3,61.3z M154.7,59.7l0.1,0.5l0.5-0.1l-0.1-0.5L154.7,59.7z M148.8,55.5C148.8,55.5,148.9,55.5,148.8,55.5L148.8,55.5h-0.5
			l0,0C148.5,55.5,148.7,55.5,148.8,55.5z M160,55.3h0.4h0.1v-0.5H160V55.3z M160.4,53.6V53h-0.5v0.5H160.4z M160,54.4h0.5v-0.5H160
			V54.4z M142.7,63.8c0.5-0.1,1.7-0.4,3.2-0.5c0.2,0,0.4,0,0.7-0.1l0,0c0,0,0,0,0.1,0l-0.1-0.5h-0.1v-0.3h0.1l-0.1-0.5h-0.1v-0.3
			h0.1l-0.1-0.5h-0.1v-0.3h0.2v-0.2c0.1,0,0.2,0,0.3,0v0.2l0.5-0.1v-0.2c0.1,0,0.2,0,0.3,0v0.2l0.5-0.1v-0.1c0.1,0,0.2,0,0.3,0v0.1
			l0.5-0.1v-0.1c0.1,0,0.2,0,0.3,0v0.1l0.5-0.1V60c0.1,0,0.2,0,0.3,0l0,0l0.9-0.4l0,0c2-0.1,4-0.1,5.2-0.2v0.2v-0.1l0,0l0.1,0.5l0,0
			v0.4v-0.1l0,0l0.1,0.5l0,0v0.3l0,0l0.1,0.5l0,0v0.3l0,0v0.1l0,0l2.9-0.1l-0.5-5.4l0,0c0,0-7.5,1-12.1,1.4
			c-4.7,0.4-5.6,1.7-5.6,1.7l1,0.3L142.7,63.8z M157.1,69.3l-0.5,0.1v0.5c0.3,0,0.5-0.1,0.7-0.1h-0.1L157.1,69.3z M147.6,71
			l-0.3-2.3v-0.2l0,0v-0.3l0,0v-0.2c0.1,0,0.1,0,0.2,0h0.1l0,0c0.1,0,0.2,0,0.3,0c-0.1,0-0.2,0-0.3,0v0.2l0.5-0.1v-0.2
			c0.1,0,0.2,0,0.3,0V68l0.5-0.1v-0.2c0.1,0,0.2,0,0.3,0v0.2l0.5-0.1v-0.2c0.1,0,0.2,0,0.3,0v0.2l0.5-0.1v-0.2c0.1,0,0.2,0,0.3,0
			l0,0c0.1,0,0.1,0,0.2,0c-0.1,0-0.1,0-0.2,0v0.2l0.5-0.1v-0.2c0.1,0,0.2,0,0.3,0v0.2l0.5-0.1v-0.2c0.1,0,0.2,0,0.3,0v0.2l0.5-0.1
			v-0.2c0.1,0,0.2,0,0.3,0v0.2l0.5-0.1v-0.2c0.1,0,0.2,0,0.3,0v0.2l0.5-0.1v-0.2c0.5,0,1.1-0.1,1.4-0.1v0.2h0.1v0.3h-0.1l0.1,0.5
			h0.1v0.2h-0.1l0.1,0.5h0.1V69h-0.1v0.5h0.1l2.9-0.3l-0.5-5.1l0,0l0,0l0,0l0,0c-0.1,0-7.8,1.2-12.1,1.8c-4.1,0.5-5.6,1.7-5.6,1.7
			l1.7,0.5l0.4,3.7c0.5-0.2,2-0.7,3.6-1C147.3,71,147.3,71,147.6,71z M160.7,62.2L160.7,62.2l0.1-0.5h-0.1V62.2z M157,68.3l-0.5,0.1
			l0.1,0.5l0.5-0.1L157,68.3z M156.9,66.7c-0.2,0-0.3,0-0.5,0v0.2l0.5-0.1V66.7z M160.7,60.5v-0.5h-0.2l0.1,0.5H160.7z M156.9,67.4
			l-0.5,0.1l0.1,0.5l0.5-0.1L156.9,67.4z M160.6,61.3h0.1v-0.5h-0.2L160.6,61.3z M163.7,61.4V62h0.4l-0.1-0.5
			C164,61.4,163.7,61.4,163.7,61.4z M163.7,60.4h0.3v-0.4l0,0v-0.1h-0.2L163.7,60.4z M159.1,46.8v-0.5H159v0.5H159.1z M163.8,62.4
			L163.8,62.4l0.4,0.1v-0.1H163.8z M159.1,47.5L159.1,47.5l0.1-0.5h-0.1V47.5z M159.2,48.5L159.2,48.5L159.2,48.5v-0.5h-0.1
			L159.2,48.5z M153.6,69.6l0.1,0.5h0.2c0.1,0,0.2,0,0.3,0l-0.1-0.5H153.6z M151.2,67.9l-0.5,0.1l0.1,0.5l0.5-0.1L151.2,67.9z
			 M151.3,69l-0.5,0.1l0.1,0.5l0.5-0.1L151.3,69z M150.6,69.9l0.1,0.5l0.5-0.1l-0.1-0.5L150.6,69.9z M150.2,69.1l-0.5,0.1l0.1,0.5
			l0.5-0.1L150.2,69.1z M152,67.8l-0.5,0.1l0.1,0.5l0.5-0.1L152,67.8z M151.7,69.8l0.1,0.5l0.5-0.1l-0.1-0.5L151.7,69.8z
			 M148.7,70.1l0.1,0.5l0.5-0.1l-0.1-0.5L148.7,70.1z M150.1,68l-0.5,0.1l0.1,0.5l0.5-0.1L150.1,68z M149.3,68.1l-0.5,0.1l0.1,0.5
			l0.5-0.1L149.3,68.1z M152.1,68.9l-0.5,0.1l0.1,0.5l0.5-0.1L152.1,68.9z M156.1,68.4l-0.5,0.1l0.1,0.5l0.5-0.1L156.1,68.4z
			 M149.4,69.1l-0.5,0.1l0.1,0.5l0.5-0.1L149.4,69.1z M149.8,70l0.1,0.5l0.5-0.1l-0.1-0.5L149.8,70z M154.6,69.6l0.1,0.5
			c0.2,0,0.4,0,0.5-0.1l-0.1-0.5L154.6,69.6z M155,67.6l-0.5,0.1l0.1,0.5l0.5-0.1L155,67.6z M155.1,68.4l-0.5,0.1l0.1,0.5l0.5-0.1
			L155.1,68.4z M156.1,67.5l-0.5,0.1l0.1,0.5l0.5-0.1L156.1,67.5z M155.5,69.5l0.1,0.5c0.2,0,0.4,0,0.5-0.1l-0.1-0.5L155.5,69.5z
			 M154,68.5l-0.5,0.1l0.1,0.5l0.5-0.1L154,68.5z M152.7,69.7l0.1,0.5l0.5-0.1l-0.1-0.5L152.7,69.7z M153.1,67.8l-0.5,0.1l0.1,0.5
			l0.5-0.1L153.1,67.8z M153.2,68.6l-0.5,0.1l0.1,0.5l0.5-0.1L153.2,68.6z M148.3,69.2l-0.5,0.1l0.1,0.5l0.5-0.1L148.3,69.2z
			 M154,67.7l-0.5,0.1l0.1,0.5l0.5-0.1L154,67.7z M161.4,48.2h0.5v-0.5h-0.5V48.2z M163,67.3v-0.5h-0.5v0.5H163z M163.3,68.1h0.5
			v-0.5h-0.5V68.1z M162.4,69.4l0.5-0.1l0,0L162.4,69.4L162.4,69.4z M161.3,62.2h0.5v-0.5h-0.5V62.2z M162.3,68.1h0.5v-0.5h-0.5
			V68.1z M163.7,67.3v-0.5h-0.5v0.5H163.7z M164.7,67.2v-0.5h-0.5v0.5H164.7z M162.4,69.1h0.5v-0.5h-0.5V69.1z M161.2,61.3h0.5v-0.5
			h-0.5V61.3z M164,68h0.5v-0.5H164V68z M164.1,69h0.5v-0.5h-0.5V69z M163.3,69h0.5v-0.5h-0.5V69z M155.2,48
			C155.1,48,155.1,48,155.2,48L155.2,48h-0.6l0,0C154.8,48,155,48,155.2,48z M154.4,46.1l0.1,0.5l0.5-0.1l-0.1-0.5L154.4,46.1z
			 M160.4,48.2h0.5v-0.5h-0.5V48.2z M154,47.7l-0.1-0.5l-0.5,0.1l0.1,0.5L154,47.7z M162.5,55.3h0.5v-0.5h-0.5V55.3z M161.6,69.5
			l0.5-0.1l0,0L161.6,69.5L161.6,69.5z M140.5,46l0.3,3c0.4-0.1,1.8-0.5,3.5-0.7c0.2,0,0.4,0,0.7-0.1c0,0,0,0,0.1,0v-0.2h-0.4v-0.3
			h0.4l-0.1-0.5h-0.4v-0.3h0.4l-0.1-0.5h-0.3v-0.3h0.4v-0.4c0.1,0,0.2,0,0.3,0l0,0h0.1h-0.1v0.3l0.5-0.1v-0.3c0.1,0,0.2,0,0.3,0v0.3
			l0.5-0.1v-0.2c0.1,0,0.2,0,0.3,0v0.2l0.5-0.1v-0.1c0.1,0,0.2,0,0.3,0v0.1l0.5-0.1l0,0c0.1,0,0.2,0,0.3,0l0,0h0.2
			c1.2,0,2.2,0,3.2,0h-0.4l0.1,0.5l0.5-0.1l-0.1-0.5c0.1,0,0.2,0,0.3,0v0.5l0.5-0.1v-0.4c0.1,0,0.2,0,0.3,0v0.4l0.5-0.1v-0.3h0.1
			l0.3,2.8l2.9,0.1l-0.5-5.3c0,0-8.3,0.5-12.5,1.1c-4.4,0.4-5.1,1.6-5.1,1.6L140.5,46L140.5,46z M161.6,68.1h0.5v-0.5h-0.5V68.1z
			 M162,67.4v-0.5h-0.5v0.5H162z M161.6,69.1h0.5v-0.5h-0.5V69.1z M150.1,53.3l0.1,0.5l0.5-0.1l-0.1-0.5L150.1,53.3z M162.5,55.6
			l0.5,0.1v-0.1H162.5L162.5,55.6z M159.6,47.5h0.5V47h-0.5V47.5z M161.7,60.5v-0.5h-0.5v0.5H161.7z M160.1,46.5V46h-0.5v0.5H160.1z
			 M163.1,54.3v-0.5h-0.5v0.5H163.1z M161.7,55.3h0.5v-0.5h-0.5V55.3z M162.1,53.3v-0.5h-0.5v0.5H162.1z M161.4,53.6V53h-0.5v0.5
			H161.4z M161.7,54.3h0.5v-0.5h-0.5V54.3z M160.8,55.3h0.5v-0.5h-0.5V55.3z M159.7,48.5h0.5v-0.5h-0.5V48.5z M162,61.2h0.5v-0.5
			H162V61.2z M162.4,60.4v-0.5h-0.5v0.5H162.4z M163,62.1h0.5v-0.5H163V62.1z M162.5,62.4L162.5,62.4h-0.1H162.5z M162,62.2h0.5
			v-0.5H162V62.2z M163.4,60.4v-0.5h-0.5v0.5H163.4z M160.7,54.4h0.5v-0.5h-0.5V54.4z M153.3,46.1l0.1,0.5l0.5-0.1l-0.1-0.5
			L153.3,46.1z M163,61.2h0.5v-0.5H163V61.2z M163,62.4h0.5v-0.1L163,62.4L163,62.4z M155,47.6l-0.1-0.5l-0.5,0.1l0.1,0.5L155,47.6z
			 M141.7,56.3c0.5-0.2,1.8-0.4,3.2-0.6c0.2,0,0.4,0,0.7-0.1c0,0,0,0-0.1,0v-0.2h0.2l-0.1-0.5h-0.3v-0.3h0.3l-0.1-0.5h-0.3v-0.3h0.3
			l-0.1-0.5h-0.3v-0.2l0,0c0.6,0,1.8,0,3-0.1h-0.3l0.1,0.5l0.5-0.1v-0.5c0.1,0,0.2,0,0.3,0v0.5l0.5-0.1v-0.4c0.1,0,0.2,0,0.3,0v0.4
			l0.5-0.1v-0.4c0.1,0,0.2,0,0.3,0v0.3l0.5-0.1v-0.3c0.1,0,0.2,0,0.3,0v0.3l0.5-0.1v-0.2c0.1,0,0.2,0,0.3,0v0.2l0.5-0.1v-0.1
			c0.1,0,0.2,0,0.3,0v0.1l0.5-0.1v-0.3c-0.1,0-0.2,0-0.4,0c0.3,0,0.6,0,1.1,0c-0.1,0-0.1,0-0.2,0l0,0h0.4c0.1,0,0.2,0,0.3,0L155,55
			l2.9-0.1l-0.5-5.3l0,0c-0.1,0-8.3,0.5-12.6,1.1c-4.4,0.4-5.2,1.6-5.2,1.6l1,0.5L141.7,56.3z M161.4,48.9l0.5,0.1v-0.3h-0.5V48.9z
			 M154.9,52.8l0.1,0.5l0.5-0.1l-0.1-0.5L154.9,52.8z M161.8,47.4v-0.5h-0.5v0.5H161.8z M155.6,54.4l-0.1-0.5L155,54l0.1,0.5
			L155.6,54.4z M153.9,52.9l0.1,0.5l0.5-0.1l-0.1-0.5L153.9,52.9z M155.7,55.4l-0.1-0.5l-0.5,0.1v0.5
			C155.4,55.4,155.5,55.4,155.7,55.4z M160.9,47.5V47h-0.5v0.5H160.9z M146.3,48v-0.2l-0.5,0.1v0.2l0,0l0,0
			C145.9,48.1,146.1,48,146.3,48C146.3,48,146.2,48,146.3,48L146.3,48z M147.1,47.4l-0.1-0.5l-0.5,0.1l0.1,0.5L147.1,47.4z
			 M145.4,45.9l0.1,0.5l0.5-0.1l-0.1-0.5L145.4,45.9z M146.3,47.5l-0.1-0.5l-0.5,0.1l0.1,0.5L146.3,47.5z M153.8,55.4v-0.4l-0.5,0.1
			v0.3C153.4,55.5,153.6,55.5,153.8,55.4z M151.8,54.7l-0.1-0.5l-0.5,0.1l0.1,0.5L151.8,54.7z M152.7,53l-0.5,0.1l0.1,0.5l0.5-0.1
			L152.7,53z M151.3,55.5c0.2,0,0.5,0,0.7,0c-0.1,0-0.1,0-0.2,0v-0.2l-0.5,0.1V55.5L151.3,55.5z M152.8,54.6l-0.1-0.5l-0.5,0.1
			l0.1,0.5L152.8,54.6z M153.1,47.8l-0.1-0.5l-0.5,0.1l0.1,0.5L153.1,47.8z M152.9,55.5v-0.3l-0.5,0.1v0.3
			C152.3,55.5,152.7,55.5,152.9,55.5z M153,53l0.1,0.5l0.5-0.1l-0.1-0.5L153,53z M154.8,54.8l-0.5,0.1v0.4c0.2,0,0.4,0,0.5,0V54.8z
			 M154.1,55.4L154.1,55.4C154.1,55.4,154,55.4,154.1,55.4L154.1,55.4z M151.1,53.2l0.1,0.5l0.5-0.1l-0.1-0.5L151.1,53.2z M146.7,48
			c0.2,0,0.4,0,0.6,0h-0.1v-0.3l-0.6,0.1L146.7,48C146.6,48,146.7,48,146.7,48z M153.7,54.6l-0.1-0.5l-0.5,0.1l0.1,0.5L153.7,54.6z
			 M154.8,54.5l-0.1-0.5l-0.5,0.1l0.1,0.5L154.8,54.5z M151.1,47.1l-0.1-0.5l-0.5,0.1l0.1,0.5L151.1,47.1z M150.3,45.5l0.1,0.5
			l0.5-0.1l-0.1-0.5L150.3,45.5z M150.5,48h0.5l-0.1-0.5l-0.5,0.1L150.5,48L150.5,48z M160.9,48.8v-0.1h-0.5L160.9,48.8z M152,47
			l-0.1-0.5l-0.5,0.1l0.1,0.5L152,47z M151.3,45.4l0.1,0.5l0.5-0.1l-0.1-0.5L151.3,45.4z M152.2,46.2l0.1,0.5l0.5-0.1l-0.1-0.5
			L152.2,46.2z M152.1,47.8l-0.1-0.5l-0.5,0.1l0.1,0.5L152.1,47.8z M148.2,48L148.2,48v-0.4l-0.5,0.1V48C147.9,48,148,48,148.2,48z
			 M149.4,45.6l0.1,0.5L150,46l-0.1-0.5L149.4,45.6z M147.3,45.8l0.1,0.5l0.5-0.1l-0.1-0.5L147.3,45.8z M149,47.2l-0.1-0.5l-0.5,0.1
			l0.1,0.5L149,47.2z M146.4,45.9l0.1,0.5l0.5-0.1l-0.1-0.5L146.4,45.9z M148.2,47.3l-0.1-0.5l-0.5,0.1l0.1,0.5L148.2,47.3z
			 M148.6,48c0.1,0,0.3,0,0.4,0v-0.4l-0.5,0.1v0.4C148.6,48,148.6,48,148.6,48z M150.1,47.2l-0.1-0.5l-0.5,0.1l0.1,0.5L150.1,47.2z
			 M150.1,47.5l-0.5,0.1v0.5h0.1c0.1,0,0.3,0,0.4,0l0,0h0.1L150.1,47.5z M148.3,45.7l0.1,0.5l0.5-0.1l-0.1-0.5L148.3,45.7z
			 M155.8,83.9c-1.4,0.2-2.1,1.8-1.9,3.5c0.3,1.7,1.6,2.9,3,2.7c1.4-0.2,2.1-1.8,1.9-3.5C158.5,84.9,157.2,83.7,155.8,83.9z
			 M147.6,88.2c-0.7,0-1.5,1-1.4,2c0.1,1.1,0.7,1.8,1.7,1.8c0.7,0,1.5-1,1.4-2C149,88.9,148.4,88.2,147.6,88.2z M80.3,119.4
			L65,153.2h3.8l3.9-8.8H91l3.9,8.8h4l-15.3-33.8H80.3z M74.2,141l7.8-17.1l7.5,17.1H74.2z M132.6,119.9h-3.7v26.9l-21-26.9h-3.5
			v33.5h3.7v-27.4l21.7,27.4h3.1v-33.5H132.6z M147.2,139.6H163V133h-15.7v-6.8h18v-6.6h-25.3v33.6h25.5v-6.6h-18.3v-7H147.2z
			 M196.1,133.7h-15.9v-7.1h18.2v-6.7h-25.5v33.5h7.3v-13h15.9V133.7z M226.4,153.2h8.6l-11.7-17.1l11.3-16.4h-8.4l-7.1,10.8
			l-7-10.8h-8.6l11.3,16.5l-11.7,17h8.4l7.5-11.5L226.4,153.2z M74,165.4l-3.6,5.3l-3.6-5.3h-1.5l4.5,6.5v4.1h1.3v-4.4l4.5-6.5h-1.4
			v0.2H74z M78.9,168.2c-2.3,0-4.1,1.9-4.1,4.1l0,0c0,2.2,1.7,4,4,4s4.1-1.9,4.1-4.1l0,0C83.1,170,81.4,168.2,78.9,168.2z
			 M81.8,172.2c0,1.7-1.3,3.1-3,3.1s-3-1.4-3-3.1l0,0c0-1.7,1.2-3.1,3-3.1C80.5,169.3,81.8,170.5,81.8,172.2L81.8,172.2z
			 M90.5,172.9c0,1.5-1.1,2.4-2.3,2.4c-1.3,0-2.1-1-2.1-2.3v-4.7h-1.2v4.9c0,1.9,1.2,3.2,3.1,3.2c1.4,0,2.1-0.6,2.8-1.6v1.4h1.2v-8
			h-1.2v4.7L90.5,172.9L90.5,172.9z M95.2,170.3v-2H94v8h1.2v-3.2c0-2.3,1.4-3.6,3.2-3.6h0.1v-1.3C96.9,168.1,95.7,169.2,95.2,170.3
			z M102.7,171.7c-1.1-0.3-2-0.5-2-1.4l0,0c0-0.6,0.5-1.2,1.6-1.2c0.7,0,1.6,0.3,2.3,0.7l0.5-1c-0.7-0.5-1.9-1-2.9-1
			c-1.6,0-2.8,1-2.8,2.2l0,0c0,1.5,1.4,1.9,2.7,2.2c1.1,0.3,1.9,0.5,1.9,1.4l0,0c0,0.7-0.6,1.3-1.6,1.3c-1,0-1.9-0.3-2.8-1.1
			l-0.5,0.7c1,0.6,2.1,1.2,3.3,1.2c1.6,0,2.9-1,2.9-2.3l0,0C105.4,172.7,104,172,102.7,171.7z M111.6,176.3h1.3v-4.7h5.7v-1.2h-5.7
			v-3.8h6.5v-1.2h-7.8C111.6,165.4,111.6,176.3,111.6,176.3z M124.6,168.2c-2.3,0-4.1,1.9-4.1,4.1l0,0c0,2.2,1.7,4,4,4
			c2.3,0,4.1-1.9,4.1-4.1l0,0C128.9,170,126.9,168.2,124.6,168.2z M127.6,172.2c0,1.7-1.3,3.1-3,3.1c-1.7,0-3-1.4-3-3.1l0,0
			c0-1.7,1.2-3.1,3-3.1C126.3,169.3,127.6,170.5,127.6,172.2L127.6,172.2z M131.7,170.3v-2h-1.2v8h1.2v-3.2c0-2.3,1.4-3.6,3.2-3.6
			h0.1v-1.3C133.5,168.1,132.4,169.2,131.7,170.3z M147.7,170.6c0.7-0.4,1.6-1.2,1.6-2.3l0,0c0-0.6-0.2-1.3-0.6-1.8
			c-0.5-0.5-1.6-1-2.9-1H141v10.7h5c2.3,0,3.9-1.1,3.9-3l0,0C149.8,171.8,148.8,171.2,147.7,170.6z M142.8,167.1h2.8
			c1.3,0,1.9,0.5,1.9,1.4l0,0c0,1.1-0.7,1.5-2,1.5h-2.7L142.8,167.1L142.8,167.1z M147.9,173.1c0,1.1-0.7,1.5-2,1.5h-3.2v-3h3
			C147.1,171.6,147.9,172.1,147.9,173.1L147.9,173.1z M154.9,168c-2.2,0-3.9,1.9-3.9,4.1l0,0c0,2.4,1.8,4.1,4.1,4.1
			c1.5,0,2.4-0.5,3.3-1.5l-1.2-1.1c-0.6,0.6-1.3,1.1-2.1,1.1c-1.3,0-2.1-0.6-2.3-2h5.8c0-0.2,0-0.3,0-0.5
			C158.7,170,157.4,168,154.9,168z M152.9,171.6c0.1-1.3,1.1-2.1,2.1-2.1c1.3,0,1.9,1,2,2.1H152.9z M162.5,166h-1.8v2.2h-1.1v1.6
			h1.1v4.4c0,1.8,1.1,2.3,2.3,2.3c0.6,0,1.3-0.1,1.7-0.4v-1.5c-0.3,0.2-0.6,0.2-1.2,0.2c-0.6,0-1.1-0.3-1.1-1.1v-3.9h2.1v-1.6h-2.1
			V166L162.5,166L162.5,166z M168.6,166h-1.8v2.2h-1.1v1.6h1.1v4.4c0,1.8,1.1,2.3,2.3,2.3c0.6,0,1.3-0.1,1.7-0.4v-1.5
			c-0.3,0.2-0.6,0.2-1.2,0.2c-0.6,0-1.1-0.3-1.1-1.1v-3.9h2.1v-1.6h-2.1V166L168.6,166L168.6,166z M175.6,168
			c-2.2,0-3.9,1.9-3.9,4.1l0,0c0,2.4,1.8,4.1,4.1,4.1c1.5,0,2.4-0.5,3.3-1.5l-1.2-1.1c-0.6,0.6-1.3,1.1-2.1,1.1
			c-1.3,0-2.1-0.6-2.3-2h5.8c0-0.2,0-0.3,0-0.5C179.4,170,178.2,168,175.6,168z M173.5,171.6c0.1-1.3,1.1-2.1,2.1-2.1
			c1.3,0,1.9,1,2,2.1H173.5z M182.8,170v-1.8H181v8.1h1.8v-3.1c0-2.1,1.2-3.2,2.8-3.2h0.1v-2C184.3,168,183.4,168.7,182.8,170z
			 M195.4,165.4l-4.8,10.7h1.9l1.2-2.7h5.1l1.2,2.7h2l-4.8-10.7H195.4z M194.3,171.9l1.8-4.4l1.8,4.4H194.3z M208.2,172.8
			c0,1.3-0.7,2-1.8,2c-1.2,0-1.7-0.6-1.7-1.9v-4.7h-1.8v5.1c0,1.9,1.1,3.1,2.9,3.1c1.3,0,2-0.6,2.4-1.5v1.3h1.8v-8.1h-1.8V172.8
			L208.2,172.8z M218.2,169.5c-0.5-0.7-1.5-1.5-2.8-1.5c-1.9,0-3.7,1.5-3.7,4.1l0,0c0,2.8,1.8,4.1,3.7,4.1c1.4,0,2.1-0.6,2.8-1.5
			v1.4h1.8v-11.3h-1.8V169.5z M218.2,172.1c0,1.6-1.2,2.7-2.3,2.7s-2.3-1.1-2.3-2.7l0,0c0-1.6,1.1-2.7,2.3-2.7
			S218.2,170.5,218.2,172.1L218.2,172.1z M222.1,176.3h1.8v-8.1h-1.8V176.3z M222,166.9h2v-1.8h-2V166.9z M230,168
			c-2.4,0-4.4,1.9-4.4,4.1l0,0c0,2.2,1.8,4.1,4.4,4.1c2.6,0,4.4-1.9,4.4-4.1l0,0C234.4,169.9,232.6,168,230,168z M232.6,172.2
			c0,1.4-1,2.7-2.4,2.7c-1.5,0-2.4-1.3-2.4-2.7l0,0c0-1.4,1-2.7,2.4-2.7C231.5,169.6,232.6,170.9,232.6,172.2L232.6,172.2z"/>
	</g>
</g>
</svg>
