<svg id="Layer_1" xmlns="http://www.w3.org/2000/svg" width="210" height="24.912" viewBox="-84.926 7.454 210 24.912"><style>.st0{fill:#fff}</style><path class="st0" d="M36.731 7.854l-8.604 24.211h4.602l2.101-6.203h8.504l2.101 6.203h4.602L41.433 7.854h-4.702zm-.9 14.407l2.201-6.503c.5-1.401 1-3.702 1-3.702h.1s.5 2.401 1 3.702l2.201 6.503h-6.502zm33.315-.4c2.601-1.101 4.102-3.802 4.102-6.703 0-3.202-1.501-5.503-4.002-6.603-1.101-.5-2.301-.7-4.902-.7H56.54v24.211h4.402v-9.004h4.302l4.802 9.004h4.902l-5.002-9.004c-.499-.901-.8-1.201-.8-1.201zm-4.202-2.601h-4.002v-7.604h3.402c3.502 0 4.502 1.401 4.502 3.702-.1 2.501-1.6 3.902-3.902 3.902zM90.757 7.854h-8.304v24.211h8.304c7.504 0 12.406-4.502 12.406-12.106.1-7.702-4.803-12.105-12.406-12.105zm-.2 20.41h-3.602V11.656h3.602c4.902 0 8.104 2.901 8.104 8.304s-3.202 8.304-8.104 8.304zm23.11-13.806c0-1.701 1.601-2.901 3.702-2.901 3.001 0 5.403 2.101 5.403 2.101l1.901-3.602s-2.501-2.601-7.303-2.601c-4.702 0-8.204 3.001-8.204 7.003 0 7.404 11.505 6.703 11.505 11.005 0 2.001-1.701 2.901-3.502 2.901-3.402 0-6.103-2.601-6.103-2.601l-2.401 3.302s3.001 3.302 8.404 3.302c5.102 0 8.004-3.202 8.004-7.103.1-7.605-11.406-6.604-11.406-10.806zM-6.589 7.854l-4.002 16.708c-.3 1.401-.4 2.501-.4 2.501h-.1s-.1-1.201-.4-2.501l-4.402-16.708h-3.802l-4.402 16.708c-.4 1.401-.4 2.501-.4 2.501h-.1s-.1-1.201-.4-2.501l-2.901-12.506-2.201 9.104 2.701 10.805h5.102l3.702-14.307c.4-1.601.6-3.202.6-3.202h.1s.2 1.601.6 3.202l3.702 14.307h5.102l6.303-24.211-4.402.1zm23.411 16.708c-.3 1.401-.4 2.501-.4 2.501h-.1s-.1-1.201-.4-2.501L11.619 7.854H7.817L3.415 24.562c-.4 1.401-.4 2.501-.4 2.501h-.1s-.1-1.201-.4-2.501L-.386 11.956l-2.201 9.104L.214 31.965h5.102l3.702-14.307c.4-1.601.6-3.202.6-3.202h.1s.2 1.601.6 3.202l3.702 14.307h5.102l6.303-24.211h-4.602l-4.001 16.808zM-76.322 7.854l-8.604 24.211h4.602l2.101-6.203h8.504l2.101 6.203h4.602L-71.62 7.854h-4.702zm-.901 14.407l2.201-6.503c.5-1.401 1-3.702 1-3.702h.1s.5 2.401 1 3.702l2.201 6.503h-6.502zm43.121-14.407l-4.002 16.708c-.3 1.401-.4 2.501-.4 2.501h-.1s-.1-1.201-.4-2.501l-4.302-16.708h-3.802l-4.402 16.708c-.4 1.401-.4 2.501-.4 2.501h-.1s-.1-1.201-.4-2.501l-3.802-16.708h-4.702l6.103 24.211h5.102l3.802-14.307c.4-1.601.6-3.202.6-3.202h.1s.2 1.601.6 3.202l3.702 14.307h5.102L-29.5 7.854h-4.602z" id="Forma_1"/></svg>