<svg id="Layer_1" xmlns="http://www.w3.org/2000/svg" viewBox="0 0 127.6 127.6"><style>.st0{fill:#bababa}.st1{fill:#79c484}.st2{fill:#010101}</style><path class="st0" d="M64 59c-16.6 0-30 13.4-30 30s13.4 30 30 30 30-13.4 30-30-13.4-30-30-30zm0 59c-16 0-29-13-29-29s13-29 29-29 29 13 29 29-13 29-29 29z" id="Ellipse_5_copy_4"/><path class="st1" d="M86 7C69.4 7 56 20.4 56 37s13.4 30 30 30 30-13.4 30-30S102.6 7 86 7zm0 59c-16 0-29-13-29-29S70 8 86 8s29 13 29 29-13 29-29 29z" id="Ellipse_5_copy"/><path class="st0" d="M122.5 98H5.5c-.8 0-1.5.7-1.5 1.5s.7 1.5 1.5 1.5h117c.8 0 1.5-.7 1.5-1.5s-.7-1.5-1.5-1.5z" id="Rounded_Rectangle_7"/><path class="st2" d="M64 29c6.8 0 13.1 2.4 18 6.3l2.1-2.1C78.7 28.7 71.7 26 64 26c-17.7 0-32 14.3-32 32 0 16.3 12.2 29.8 28 31.7v-3c-14.1-1.9-25-14-25-28.7 0-16 13-29 29-29zm25.7 9.9l-2.2 2.2C91 45.9 93 51.7 93 58c0 14.7-10.9 26.8-25 28.7v3c15.8-2 28-15.4 28-31.7 0-7.1-2.3-13.7-6.3-19.1z" id="Rectangle_21_copy"/><path class="st2" d="M58.6 38L54 55.5 67.5 69 85 64.3 58.6 38zM57 55l3-12 20 20-12 3-11-11z" id="_x32__copy_3"/><path class="st0" d="M53 59l-4 15 15-4-11-11zm.9 5l5.1 5.1-6 .9.9-6z" id="_x32__copy_4"/><path class="st1" d="M67 84h-6c-1.1 0-2 .9-2 2v6c0 1.1.9 2 2 2h6c1.1 0 2-.9 2-2v-6c0-1.1-.9-2-2-2zm0 7c0 .6-.4 1-1 1h-4c-.6 0-1-.4-1-1v-4c0-.6.4-1 1-1h4c.6 0 1 .4 1 1v4z" id="Rounded_Rectangle_9"/><path class="st1" d="M87 88H68c-.6 0-1 .4-1 1s.4 1 1 1h19c.6 0 1-.4 1-1s-.4-1-1-1z" id="Rounded_Rectangle_10"/><circle class="st1" cx="86" cy="89" r="3" id="Ellipse_5"/><path class="st1" d="M60 88H41c-.6 0-1 .4-1 1s.4 1 1 1h19c.6 0 1-.4 1-1s-.4-1-1-1z" id="Rounded_Rectangle_10_copy"/><circle class="st1" cx="42" cy="89" r="3" id="Ellipse_5_copy_2"/><path class="st1" d="M91.7 35.6l-4.2-4.2c-.8-.8-2-.8-2.8 0l-4.2 4.2c-.8.8-.8 2 0 2.8l4.2 4.2c.8.8 2 .8 2.8 0l4.2-4.2c.7-.8.7-2 0-2.8zm-2.2 2.1l-2.8 2.8c-.4.4-1 .4-1.4 0l-2.8-2.8c-.4-.4-.4-1 0-1.4l2.8-2.8c.4-.4 1-.4 1.4 0l2.8 2.8c.4.4.4 1 0 1.4z" id="Rounded_Rectangle_9_1_"/><path class="st1" d="M103 52.6L89.5 39.1c-.4-.4-1-.4-1.4 0s-.4 1 0 1.4L101.6 54c.4.4 1 .4 1.4 0s.4-1.1 0-1.4z" id="Rounded_Rectangle_10_1_"/><ellipse transform="rotate(-45.001 101.619 52.564)" class="st1" cx="101.6" cy="52.6" rx="3" ry="3" id="Ellipse_5_1_"/><path class="st1" d="M83.9 33.5L70.4 20c-.4-.4-1-.4-1.4 0s-.4 1 0 1.4l13.4 13.4c.4.4 1 .4 1.4 0 .5-.3.5-.9.1-1.3z" id="Rounded_Rectangle_10_copy_1_"/><ellipse transform="rotate(-45.001 70.383 21.448)" class="st1" cx="70.4" cy="21.4" rx="3" ry="3" id="Ellipse_5_copy_2_1_"/><circle class="st0" cx="101.5" cy="78.5" r="2.5" id="Ellipse_7_1_"/><circle class="st0" cx="108.5" cy="71.5" r="2.5" id="Ellipse_7_copy_3_1_"/><circle class="st1" cx="101.5" cy="71.5" r="1.5" id="Ellipse_7_copy_1_"/><circle class="st0" cx="108.5" cy="78.5" r="1.5" id="Ellipse_7_copy_4_1_"/><circle class="st1" cx="101.5" cy="85.5" r="1.5" id="Ellipse_7_copy_2_1_"/><circle class="st1" cx="115.5" cy="71.5" r="1.5" id="Ellipse_7_copy_5_1_"/></svg>