<?xml version="1.0" encoding="utf-8"?>
<!-- Generator: Adobe Illustrator 20.1.0, SVG Export Plug-In . SVG Version: 6.00 Build 0)  -->
<svg version="1.1" id="Layer_1" xmlns="http://www.w3.org/2000/svg" xmlns:xlink="http://www.w3.org/1999/xlink" x="0px" y="0px"
	 viewBox="0 0 300 200" enable-background="new 0 0 300 200" xml:space="preserve">
<g id="Rectangle_6">
	<g>
		<path fill-rule="evenodd" clip-rule="evenodd" fill="#FFFFFF" d="M157.7,116.6l-12.8,12.8l-6.9-6.9l-1.5,1.5l8.4,8.4l14.8-14.7h-2
			V116.6z M208.9,68.5h-28.5v2H204l-41.3,41.2h1v2L208.9,68.5z M121.2,108.6l1.5-1.5L85.8,70.4h74.8l2-2H80.9L121.2,108.6z
			 M110.5,68.5h9.8v2h-9.8V68.5z"/>
	</g>
</g>
<g id="Rectangle_2_copy_2">
	<g>
		<path fill-rule="evenodd" clip-rule="evenodd" fill="#FFFFFF" d="M143.1,78.9c-10.7-8.9-22.6-16-34.4-17.5l25.7,25.7
			C137.2,84.3,140.1,81.5,143.1,78.9z M133.1,88.5l-25.7-25.7c1.5,11.8,8.6,23.7,17.6,34.4C127.5,94.3,130.2,91.4,133.1,88.5z
			 M146.7,118.8c12.9,11,23.9,18,23.9,18l0.5-10.3l-15.7-15.7C152.5,113.6,149.6,116.3,146.7,118.8z M164.9,100.8
			c-2.6,3-5.4,5.8-8.1,8.6l15.7,15.7l10.4-0.5C182.9,124.6,175.9,113.6,164.9,100.8z M182.7,61.3c-37.2,3.2-75.7,63.3-75.7,63.3
			l11.7,0.6l0.6,11.7C119.2,136.8,179.5,98.3,182.7,61.3z M111.4,122.5c0,0,35.4-52.8,66.3-57.7l-57.9,57.7H111.4z M121.3,132.3
			v-8.4l57.8-57.7C173.6,97.4,121.3,132.3,121.3,132.3z"/>
	</g>
</g>
<g id="Shop">
	<g>
		<path fill-rule="evenodd" clip-rule="evenodd" fill="#FFFFFF" d="M79.7,81.6c-2.2,0-3.9,1.8-3.9,3.9s1.7,3.9,3.9,3.9
			s3.9-1.7,3.9-3.9S81.8,81.6,79.7,81.6z M82.2,92h-7l-3.5,16.7c-0.1,0.5-0.2,1.1-0.2,1.6c-1.2,1-2.5,1.8-3.5,1.8
			c-1.9,0-2.5-0.7-2.5-1.8c0-0.4,0.1-0.8,0.2-1.6l5.7-26.5l-7.3,1l-5.5,25.5c-0.1,0.7-0.2,1.3-0.3,1.9c-1.1,0.8-2.1,1.4-3.1,1.4
			c-2,0-2.5-0.8-2.5-1.9c0-0.4,0.1-1,0.2-1.5L56.4,92h-7.1l-0.3,1.3c-0.9-0.7-2.1-1.2-3.3-1.2c-9.2,0-12.5,8.9-12.9,17
			c-2,2.2-5,3.4-8.2,3.4c-5.3,0-6.5-2.8-6.5-9.2c0-8.7,3.9-21.2,9.9-21.2c3.1,0,3.4,2.7,3.4,3.5c0,1.2-0.9,3.7-2.2,4
			c0.9,1.1,2,1.3,2.8,1.3c2.5,0,3.4-1.9,3.4-4.5c0-4.8-4-6.6-8.6-6.6c-13.1,0-16.6,13.9-16.6,24.6c0,10.1,5.8,12.5,10.8,12.5
			c3.7,0,8.6-0.9,11.7-4.9c0.4,2.5,2,4.9,6,4.9c3,0,5.2-2,6.7-4c0.6,2.6,2.8,3.7,6,3.7c2,0,4.5-1.8,6.7-3.8c0.6,2.6,2.7,3.8,5.9,3.8
			c2.1,0,4.8-2,7.1-4.2c0.4,2.4,1.9,4.2,4.9,4.2c1.7,0,3.7-0.3,5.1-4.5c-0.4,0.1-0.9,0.1-1.3,0.1c-1.4,0-1.8-0.8-1.8-1.8
			c0-0.5,0.1-1.1,0.2-1.7L82.2,92z M45.8,108.7c-0.1,0.6-0.2,1.1-0.3,1.6c-0.9,1.4-2,2.5-3.1,2.5c-1.2,0-2.9-0.5-2.9-3.5
			c0-6.7,3-14.5,6.6-14.5c0.7,0,1.6,0.2,2.4,0.9L45.8,108.7z M218.7,88.6c0.6,0.7,1.4,1,2.2,1c2.6,0,4.1-2.2,4.1-5
			c0-5.5-5.7-5.9-8.3-5.9c-5.9,0-11.7,4-11.7,9.1c0,7.3,10.6,9.3,10.6,18.6c0,3.6-1.5,7-5.4,7c-2.3,0-4.9-1.4-4.9-4.7
			c0-3.4,1.8-5.1,5.8-5.4c-0.4-1.8-1.8-2.5-4-2.5c-3.8,0-7.2,2.5-7.2,7.1c0,7.1,6.9,7.9,10.9,7.9c7.9,0,13-4.5,13-11.4
			c0-11-11.1-11.4-11.1-19.1c0-2.7,1.9-4.3,4.6-4.3c2.6,0,3.6,1.6,3.6,3.3C221,86,220.1,87.8,218.7,88.6z M264.9,94.8
			c1.5,0,0.1,3.2,2.9,3.2c2.4,0,3.7-2.1,3.7-3.8c0-1.9-1.3-3.1-3.5-3.1c-2.1,0-4,1.1-5.8,2.5l0.5-2.5h-7.1l-3.9,18.6
			c-1.1,0.9-2.2,1.5-3.2,1.5c-2,0-2.5-0.8-2.5-1.9c0-0.4,0.1-1,0.2-1.5l3.5-16.7h-7.1l-3.5,16.7c-0.1,0.6-0.2,1.1-0.3,1.6
			c-1.2,1-2.5,1.8-3.5,1.8c-2,0-2.5-0.8-2.5-1.9c0-0.4,0.1-1,0.2-1.5l3.5-16.7h-7.1l-3.5,16.7c-0.2,0.9-0.3,1.8-0.3,2.5
			c0,3.7,2.4,5.4,6.2,5.4c2.1,0,4.8-2,7.1-4.1c0.4,2.8,2.7,4.1,6.1,4.1c1.8,0,4-1.5,6.1-3.3l-0.7,3.3h7.1l4.1-19.3
			C262.6,95.3,263.4,94.8,264.9,94.8z M284.7,78.8c-3.2,0-7.5,1.3-9,8.3l-6,28c-4.7,1.4-8.5,2.8-8.5,7.4c0,3.2,2.8,5.3,5.8,5.3
			c3.2,0,7.3-1.3,8.8-8.3l5.7-26.5h3.6l0.3-2H282l0.8-3.9c0.7-3.3,2.4-4,3.4-4c1,0,1.9,0.5,1.9,1.7c0,0.4,0,0.8-0.1,1.3h2.3
			c0.1-0.6,0.1-1.2,0.1-2C290.5,80.9,287.7,78.8,284.7,78.8z M268.8,119.7c-0.6,2.9-1.8,3.8-2.8,3.8c-1.1,0-2-0.9-2-1.6
			c0-2.7,2.3-4,5.4-5.1L268.8,119.7z M128.3,47.7v8.9h1.8V45.5h-1.7l-2.9,2.1l0.9,1.5L128.3,47.7z M142,46.3
			c-0.3-0.3-0.6-0.6-1.1-0.7c-0.4-0.2-0.9-0.3-1.4-0.3c-0.5,0-0.9,0.1-1.3,0.3c-0.4,0.2-0.8,0.4-1.1,0.7c-0.3,0.3-0.5,0.7-0.7,1.2
			c-0.2,0.5-0.3,1-0.3,1.6c0,0.6,0.1,1.1,0.2,1.6c0.2,0.4,0.4,0.8,0.6,1.1c0.3,0.3,0.6,0.5,0.9,0.6c0.3,0.1,0.7,0.2,1.1,0.2
			c0.2,0,0.4,0,0.6-0.1c0.2,0,0.3-0.1,0.5-0.2l0,0l-2.4,4.4h2.1l2.2-4.3c0.3-0.5,0.5-1,0.6-1.6c0.2-0.5,0.2-1.1,0.2-1.7
			c0-0.6-0.1-1.1-0.2-1.6C142.6,47,142.3,46.6,142,46.3z M140.7,50.6c-0.3,0.4-0.7,0.6-1.1,0.6c-0.5,0-0.9-0.2-1.1-0.6
			c-0.3-0.4-0.4-0.9-0.4-1.6c0-0.6,0.1-1.2,0.4-1.6s0.6-0.6,1.1-0.6c0.5,0,0.9,0.2,1.1,0.6c0.3,0.4,0.4,0.9,0.4,1.6
			C141.2,49.7,141,50.2,140.7,50.6z M148.2,51.7c0.3,0.3,0.6,0.5,0.9,0.6c0.3,0.1,0.7,0.2,1.1,0.2c0.2,0,0.4,0,0.6-0.1
			c0.2,0,0.3-0.1,0.5-0.2l0,0l-2.4,4.4h2.1l2.2-4.3c0.3-0.5,0.5-1,0.6-1.6c0.2-0.5,0.2-1.1,0.2-1.7c0-0.6-0.1-1.1-0.2-1.6
			c-0.2-0.5-0.4-0.9-0.7-1.2c-0.3-0.3-0.6-0.6-1.1-0.7c-0.4-0.2-0.9-0.3-1.4-0.3c-0.5,0-0.9,0.1-1.3,0.3c-0.4,0.2-0.8,0.4-1.1,0.7
			c-0.3,0.3-0.5,0.7-0.7,1.2c-0.2,0.5-0.3,1-0.3,1.6c0,0.6,0.1,1.1,0.2,1.6C147.7,51.1,147.9,51.4,148.2,51.7z M149.5,47.5
			c0.3-0.4,0.6-0.6,1.1-0.6c0.5,0,0.9,0.2,1.1,0.6c0.3,0.4,0.4,0.9,0.4,1.6c0,0.6-0.1,1.2-0.4,1.6c-0.3,0.4-0.7,0.6-1.1,0.6
			c-0.5,0-0.9-0.2-1.1-0.6c-0.3-0.4-0.4-0.9-0.4-1.6C149.1,48.4,149.2,47.9,149.5,47.5z M161.7,50.9l-3.2,4.1v1.7h6V55h-3.8l2.3-2.9
			c0.2-0.3,0.4-0.6,0.6-0.9c0.2-0.3,0.4-0.6,0.5-0.8c0.2-0.3,0.3-0.6,0.4-0.9c0.1-0.3,0.1-0.6,0.1-1c0-0.5-0.1-0.9-0.2-1.3
			c-0.1-0.4-0.3-0.7-0.6-1c-0.3-0.3-0.6-0.5-0.9-0.7c-0.4-0.2-0.8-0.2-1.3-0.2c-0.9,0-1.6,0.3-2.2,0.8c-0.6,0.5-0.9,1.3-1.1,2.3
			l1.8,0.2c0.1-0.5,0.2-0.9,0.5-1.2c0.2-0.3,0.5-0.4,0.9-0.4c0.4,0,0.7,0.2,0.9,0.5c0.2,0.3,0.3,0.7,0.3,1.1c0,0.4-0.1,0.8-0.3,1.1
			C162.3,50.1,162,50.5,161.7,50.9z M126.6,145.5c0.1-0.1,0.3-0.2,0.5-0.3c0.2-0.1,0.3-0.1,0.5-0.1c0.6,0,1.1,0.2,1.5,0.7l1-1.4
			c-0.3-0.4-0.7-0.6-1.1-0.8c-0.4-0.2-1-0.3-1.5-0.3c-0.4,0-0.8,0.1-1.1,0.2c-0.4,0.1-0.7,0.3-1,0.6c-0.3,0.3-0.5,0.6-0.7,1
			c-0.2,0.4-0.3,0.9-0.3,1.5c0,0.5,0.1,0.9,0.2,1.2c0.1,0.3,0.3,0.6,0.5,0.9c0.2,0.2,0.4,0.5,0.7,0.6c0.3,0.2,0.6,0.3,0.9,0.5
			c0.5,0.2,0.9,0.5,1.2,0.8c0.3,0.3,0.5,0.7,0.5,1.1c0,0.5-0.1,0.9-0.4,1.1c-0.3,0.3-0.6,0.4-1,0.4c-0.4,0-0.7-0.1-1-0.3
			c-0.3-0.2-0.6-0.4-0.9-0.7l-1,1.4c0.3,0.4,0.7,0.7,1.3,0.9c0.5,0.2,1.1,0.4,1.7,0.4c0.4,0,0.8-0.1,1.2-0.2c0.4-0.1,0.7-0.4,1-0.7
			c0.3-0.3,0.5-0.6,0.7-1.1c0.2-0.4,0.3-0.9,0.3-1.4c0-0.5-0.1-0.9-0.2-1.2c-0.1-0.3-0.3-0.6-0.6-0.9c-0.2-0.3-0.5-0.5-0.8-0.6
			c-0.3-0.2-0.6-0.3-0.8-0.5c-0.5-0.2-0.8-0.5-1.1-0.7c-0.3-0.3-0.4-0.6-0.4-1.1c0-0.3,0-0.5,0.1-0.7
			C126.4,145.8,126.5,145.7,126.6,145.5z M140.2,148.3h-3.3v-4.5H135v11.1h1.9v-4.9h3.3v4.9h1.9v-11.1h-1.9V148.3z M154,145.1
			c-0.3-0.5-0.8-0.9-1.3-1.2c-0.5-0.3-1.1-0.4-1.7-0.4c-0.6,0-1.2,0.1-1.7,0.4c-0.5,0.3-0.9,0.7-1.3,1.2c-0.3,0.5-0.6,1.1-0.8,1.8
			c-0.2,0.7-0.3,1.5-0.3,2.4s0.1,1.7,0.3,2.4c0.2,0.7,0.4,1.3,0.8,1.8c0.3,0.5,0.8,0.9,1.3,1.2c0.5,0.3,1.1,0.4,1.7,0.4
			c0.6,0,1.2-0.1,1.7-0.4c0.5-0.3,0.9-0.7,1.3-1.2c0.3-0.5,0.6-1.1,0.8-1.8c0.2-0.7,0.3-1.5,0.3-2.4s-0.1-1.7-0.3-2.4
			C154.6,146.2,154.3,145.6,154,145.1z M153,150.9c-0.1,0.5-0.2,0.9-0.4,1.3c-0.2,0.4-0.4,0.7-0.6,0.9c-0.3,0.2-0.6,0.3-0.9,0.3
			s-0.6-0.1-0.9-0.3c-0.3-0.2-0.5-0.5-0.6-0.9c-0.2-0.4-0.3-0.8-0.4-1.3c-0.1-0.5-0.1-1-0.1-1.6c0-0.6,0-1.1,0.1-1.6
			c0.1-0.5,0.2-0.9,0.4-1.3c0.2-0.4,0.4-0.6,0.6-0.9c0.3-0.2,0.6-0.3,0.9-0.3c0.3,0,0.6,0.1,0.9,0.3c0.3,0.2,0.5,0.5,0.6,0.9
			c0.2,0.4,0.3,0.8,0.4,1.3c0.1,0.5,0.1,1,0.1,1.6C153.1,149.9,153,150.4,153,150.9z M165.1,144.5c-0.3-0.3-0.6-0.4-1-0.5
			c-0.4-0.1-0.7-0.2-1.1-0.2h-3.1v11.1h1.9v-4.5h1.3c0.4,0,0.8-0.1,1.1-0.2c0.4-0.1,0.7-0.3,1-0.6s0.5-0.6,0.7-1.1
			c0.2-0.4,0.3-0.9,0.3-1.5c0-0.6-0.1-1.2-0.3-1.6C165.7,145,165.4,144.7,165.1,144.5z M164,148.4c-0.3,0.3-0.6,0.5-1.1,0.5h-1.1
			v-3.5h1.1c0.4,0,0.8,0.1,1.1,0.4c0.3,0.3,0.4,0.7,0.4,1.3C164.4,147.7,164.2,148.1,164,148.4z"/>
	</g>
</g>
</svg>
