<?xml version="1.0" encoding="utf-8"?>
<!-- Generator: Adobe Illustrator 20.1.0, SVG Export Plug-In . SVG Version: 6.00 Build 0)  -->
<svg version="1.1" id="Layer_1" xmlns="http://www.w3.org/2000/svg" xmlns:xlink="http://www.w3.org/1999/xlink" x="0px" y="0px"
	 viewBox="0 0 300 200" style="enable-background:new 0 0 300 200;" xml:space="preserve">
<style type="text/css">
	.st0{fill:#FFFFFF;}
</style>
<g id="Shape_1_1_">
	<g>
		<path class="st0" d="M34.5,97.2c-0.6,0-1.1,0.3-1.7,0.6c-2.2,1.9-4.4,2.9-7.6,2.9c-5.7,0-9.9-4.9-9.9-10.7v-0.1
			c0-5.9,4.1-10.6,9.9-10.6c2.9,0,5.1,0.9,7.2,2.7c0.3,0.3,0.8,0.5,1.7,0.5c1.6,0,2.6-1,2.6-2.6c0-0.8-0.5-1.8-0.9-2.2
			c-2.6-2.1-5.6-3.4-10.4-3.4C16.2,74.5,10,81.4,10,90v0.1c0,8.6,6.4,15.5,15.1,15.5c4.9,0,8-1.6,10.9-3.9c0.5-0.4,0.8-1,0.8-2
			C37,98.2,35.9,97.2,34.5,97.2z M72.7,102.7c0-1.2-1-2.4-2.4-2.4H56.8V77.4c0-1.6-1.1-2.6-2.6-2.6c-1.6,0-2.7,1.1-2.7,2.6v25
			c0,1.6,1.1,2.7,2.7,2.7h16.2C71.6,105.1,72.7,103.9,72.7,102.7z M89.4,105.3c1.6,0,2.6-1.1,2.6-2.6V77.4c0-1.6-1.1-2.6-2.6-2.6
			c-1.6,0-2.7,1.1-2.7,2.6v25.3C86.8,104,87.9,105.3,89.4,105.3z M138.5,102.9c0-0.8-0.4-1.6-0.9-2.2l-2-1.7c2-2.6,3-5.8,3-9.1v-0.1
			c0-8.5-6.3-15.5-15.7-15.5s-15.8,7.2-15.8,15.7v0.1c0,8.5,6.3,15.5,15.7,15.5c3.5,0,6.5-0.9,9.1-2.8l2.2,2c0.5,0.5,1,0.7,1.9,0.7
			C137.3,105.5,138.5,104.4,138.5,102.9z M133.1,90c0,2.2-0.5,4-1.6,5.7l-3.8-3.5c-0.6-0.5-1-0.7-1.9-0.7c-1.3,0-2.5,1.1-2.5,2.5
			c0,0.8,0.4,1.6,0.9,2.2l3.6,3.2c-1.6,0.8-3.2,1.3-5.2,1.3c-5.9,0-10.3-4.9-10.3-10.7v-0.1c0-5.8,4-10.6,10.2-10.6
			C128.8,79.4,133.1,84.1,133.1,90L133.1,90z M165.9,105.6c7.8,0,13-4.6,13-13.5V77.4c0-1.6-1.1-2.6-2.6-2.6c-1.6,0-2.7,1.1-2.7,2.6
			v14.8c0,5.5-2.9,8.3-7.6,8.3c-4.8,0-7.7-3-7.7-8.6V77.4c0-1.6-1.1-2.6-2.6-2.6c-1.6,0-2.7,1.1-2.7,2.6v14.8
			C153,100.9,158,105.6,165.9,105.6z M214.7,100.3h-14.9v-8.1h13c1.2,0,2.4-0.9,2.4-2.3c0-1.2-1-2.4-2.4-2.4h-13v-7.8h14.7
			c1.2,0,2.4-0.9,2.4-2.4c0-1.2-1-2.4-2.4-2.4h-17.4c-1.6,0-2.7,1.1-2.7,2.7v24.8c0,1.6,1.1,2.7,2.7,2.7h17.5c1.2,0,2.4-0.9,2.4-2.4
			C217.1,101.3,216,100.3,214.7,100.3z M58,113.5l-5.3,12h2.2l1.1-2.9h5.7l1.1,2.9h2.2l-5.3-12H58z M56.9,120.7l2.2-4.9l2.2,4.9
			H56.9z M76.7,116.3c-1.3,0-2.2,0.7-2.8,1.7v-1.3h-2.2v9.1h2.2v-5.2c0-1.3,0.7-2.3,2.1-2.3c1.1,0,2,0.7,2,2.2v5.2h2.2v-5.9
			C79.9,117.6,78.7,116.3,76.7,116.3z M86.1,116.3c-2.6,0-4.5,2.2-4.5,4.8l0,0c0,2.8,2.1,4.8,4.7,4.8c1.8,0,2.8-0.7,3.6-1.8l-1.1-1
			c-0.7,0.7-1.3,1-2.4,1c-1.2,0-2.4-0.7-2.6-2.3h6.5c0-0.2,0-0.4,0-0.6C90.5,118.7,89,116.3,86.1,116.3z M83.8,120.4
			c0.2-1.3,1-2.4,2.3-2.4c1.3,0,2.2,0.9,2.3,2.4H83.8z M100.9,122.8l-2.1-6.3H97l-2.1,6.3l-1.9-6.2h-2.2l2.9,9.1h2l2.1-6.2l2.1,6.2
			h1.9l3-9.1h-2.2L100.9,122.8z M120.4,122.8l-2.1-6.3h-1.8l-2.1,6.3l-1.9-6.2h-2.1l2.9,9.1h1.9l2.1-6.2l2.1,6.2h1.9l3-9.1h-2.2
			L120.4,122.8z M129.4,116.4c-1.6,0-2.4,0.3-3.4,0.7l0.6,1.8c0.7-0.3,1.7-0.6,2.6-0.6c1.3,0,2.2,0.7,2.2,2v0.2
			c-0.7-0.2-1.3-0.4-2.5-0.4c-2.2,0-3.6,0.9-3.6,3l0,0c0,1.9,1.6,2.8,3.2,2.8c1.3,0,2.3-0.6,2.9-1.2v1h2.2v-5.4
			C133.3,117.7,132.1,116.4,129.4,116.4z M131.2,122.3c0,1-0.9,2-2.4,2c-0.9,0-1.8-0.5-1.8-1.2l0,0c0-0.8,0.7-1.3,2.2-1.3
			c0.7,0,1.6,0.2,2.2,0.4L131.2,122.3L131.2,122.3z M139.1,123.2l-2.6-6.6h-2.1l3.7,9.1c-0.3,0.7-0.7,0.9-1.2,0.9
			c-0.4,0-0.7-0.1-1.1-0.3l-0.7,1.6c0.6,0.3,1.2,0.6,2.2,0.6c1.6,0,2.3-0.7,3-2.5l3.5-9.2h-2.2L139.1,123.2z M152.7,114h-2.2v2.5h-1
			v1.9h1v4.9c0,2.1,1,2.7,2.6,2.7c0.7,0,1.3-0.2,2-0.5v-1.8c-0.4,0.2-0.7,0.3-1.2,0.3c-0.7,0-1-0.3-1-1v-4.6h2.4v-1.9h-2.4V114
			H152.7z M161.1,116.3c-2.8,0-4.9,2.2-4.9,4.8l0,0c0,2.6,2.1,4.8,4.9,4.8c2.8,0,4.9-2.2,4.9-4.8l0,0
			C166,118.6,163.9,116.3,161.1,116.3z M163.9,121.1c0,1.7-1,2.9-2.7,2.9c-1.7,0-2.8-1.2-2.8-2.9l0,0c0-1.7,1-2.9,2.7-2.9
			C162.8,118.2,163.9,119.5,163.9,121.1L163.9,121.1z M176.5,120.2c-1-0.3-2.1-0.6-2.1-1.2l0,0c0-0.5,0.5-0.8,1.2-0.8
			s1.8,0.3,2.6,0.8l0.7-1.6c-0.9-0.6-2.2-0.9-3.3-0.9c-1.9,0-3.2,0.9-3.2,2.8l0,0c0,1.8,1.6,2.3,2.8,2.7c1,0.3,2.1,0.6,2.1,1.2l0,0
			c0,0.6-0.5,0.9-1.3,0.9s-2.1-0.4-3-1l-0.8,1.3c1,0.8,2.6,1.3,3.7,1.3c2,0,3.4-0.8,3.4-2.9l0,0
			C179.3,121.4,177.8,120.6,176.5,120.2z M186.1,116.3c-1.3,0-2.2,0.7-2.8,1.7v-5h-2.2v12.6h2.2v-5.1c0-1.3,0.7-2.3,2.1-2.3
			c1.2,0,2,0.7,2,2.2v5.2h2.2v-5.8C189.3,117.6,188.1,116.3,186.1,116.3z M196,116.3c-2.8,0-4.9,2.2-4.9,4.8l0,0
			c0,2.6,2.1,4.8,4.9,4.8c2.8,0,4.9-2.2,4.9-4.8l0,0C200.8,118.6,198.6,116.3,196,116.3z M198.6,121.1c0,1.7-1,2.9-2.7,2.9
			c-1.7,0-2.8-1.2-2.8-2.9l0,0c0-1.7,1-2.9,2.7-2.9C197.6,118.2,198.6,119.5,198.6,121.1L198.6,121.1z M207.9,116.3
			c-1.6,0-2.4,0.7-3.1,1.8v-1.6h-2.2v11.8h2.2v-4.1c0.6,0.7,1.7,1.7,3.1,1.7c2.2,0,4.1-1.8,4.1-4.8l0,0
			C212.1,117.9,210,116.3,207.9,116.3z M210,121.1c0,1.9-1.1,2.9-2.6,2.9c-1.3,0-2.6-1.1-2.6-2.9l0,0c0-1.8,1.1-2.9,2.6-2.9
			C208.8,118.2,210,119.3,210,121.1L210,121.1z M214.1,114.2l0.7,7.7h1l0.6-7.7v-0.6h-2.4V114.2L214.1,114.2z M214.2,125.6h2.3v-2.4
			h-2.3V125.6z M270.7,85.8l-4.9,4.9c-0.4,0.4-0.6,0.9-0.6,1.6c0,0.6,0.2,1,0.6,1.6c0.4,0.4,0.9,0.6,1.6,0.6s1-0.2,1.6-0.6l4.9-4.9
			c0.7-0.7,0.7-2.2,0-3.1c-0.4-0.4-0.9-0.6-1.6-0.6C271.6,85.2,271.2,85.4,270.7,85.8z M284.8,76.6l-8.3,8.4c0.9,2,0.7,4.4-0.7,5.9
			l-4.9,4.9c-0.9,0.9-2.2,1.6-3.5,1.6c-0.7,0-1.8-0.2-2.4-0.6l-2.8,2.8l0,0l0,0c-0.5,0.5-1.3,0.5-2,0c-0.5-0.5-0.5-1.3,0-2l0,0l0,0
			l2.8-2.8c-0.9-2-0.7-4.4,0.7-5.9l4.9-4.9c0.9-0.9,2.2-1.6,3.5-1.6c0.7,0,1.7,0.2,2.4,0.6l8.3-8.4c-8.2-7.3-20.5-6.8-28.4,0.8
			L235,95.1c-8.1,8.2-8.1,21.5,0,29.5c8.1,8.1,21.4,8.1,29.4,0l19.5-19.6C291.7,97.2,292,84.8,284.8,76.6z M256,123
			c-0.2,0.2-0.5,0.3-0.7,0.4c-5.3,2.2-11.6,0.9-16-3.3c-4.4-4.4-5.4-10.7-3.3-16.1c0-0.1,0.1-0.2,0.1-0.3l0,0l0,0
			c0.1-0.1,0.1-0.2,0.2-0.3c0.5-0.5,1.3-0.5,2.1,0c0.4,0.4,0.5,0.9,0.3,1.6l0,0c-1.9,4.5-0.9,9.5,2.6,13.3c3.5,3.5,8.8,4.5,13.2,2.6
			l0,0c0.5-0.2,1-0.1,1.6,0.3C256.7,121.7,256.7,122.5,256,123z"/>
	</g>
</g>
</svg>
