<svg id="Layer_1" xmlns="http://www.w3.org/2000/svg" width="56" height="59.144" viewBox="-8 -9.588 56 59.144"><style>.st0{fill:#fff}</style><path class="st0" d="M11.354 7.408c2.751-2.26 6.288-3.537 10.119-3.537 1.277 0 2.456.196 3.635.393 4.814 1.081 8.842 4.421 11.004 8.744l4.618-2.161C37.979 5.05 32.674.728 26.288-.648a19.38 19.38 0 0 0-4.716-.589c-5.011 0-9.628 1.768-13.263 4.618C3.397 7.311.253 13.304.253 19.985c0 6.779 3.144 12.772 8.056 16.604 3.635 2.947 8.253 4.618 13.263 4.618 1.67 0 3.242-.196 4.716-.589 6.386-1.474 11.691-5.796 14.442-11.495l-4.618-2.161c-2.161 4.421-6.091 7.663-11.004 8.744-1.179.295-2.358.393-3.635.393-3.832 0-7.368-1.375-10.119-3.537-3.733-2.947-6.091-7.565-6.091-12.674 0-4.915 2.358-9.532 6.091-12.48zm15.621 37.039c-1.768.393-3.635.589-5.6.589-5.895 0-11.298-2.063-15.621-5.502-5.698-4.618-9.432-11.691-9.432-19.551S.056 5.05 5.754.433c4.323-3.439 9.726-5.502 15.621-5.502 1.867 0 3.733.196 5.6.589 7.467 1.67 13.656 6.779 16.996 13.558L48 7.114C44.168-.844 36.8-6.837 28.056-8.802a28.765 28.765 0 0 0-6.582-.786c-6.975 0-13.361 2.358-18.372 6.386C-3.677 2.398-8 10.749-8 20.082S-3.677 37.766 3.102 43.17c5.011 4.028 11.396 6.386 18.372 6.386 2.26 0 4.421-.295 6.582-.786C36.898 46.805 44.168 40.812 48 32.854l-4.028-1.965c-3.242 6.779-9.432 11.888-16.997 13.558z" id="Shape_4"/></svg>