<svg id="Layer_1" xmlns="http://www.w3.org/2000/svg" width="110" height="69.065" viewBox="-34.994 -14.705 110 69.065"><style>.st0{fill:#fff}</style><path class="st0" d="M.433 12.745C3.507 7.39 3.309 1.044.135-3.816c-3.173-4.76-9.024-6.644-14.181-8.231l-.694-.198c-2.876-.892-6.049-1.884-9.123-2.281-2.281-.297-4.562-.198-6.942.099-.298 0-.496.099-.793.099-.892.099-1.884.198-2.677.793-.595.496-.793 1.19-.694 1.884.099.496.298.892.793 1.091.793.595 1.884.595 2.578.595.397 0 .893 0 1.289-.099H-29.318c.397 0 1.289-.099 2.082-.099 1.289 0 1.785.099 1.884.099 0 .297-.099.595-.099.892-.099.397-.099.893-.198 1.388 0 .892.099 1.785.198 2.677.099.397.099.793.198 1.19.099.793.198 1.587.298 2.281.298 3.272.793 6.545 1.289 9.718.198 1.289.397 2.677.595 3.967.099.793.298 1.587.496 2.38.298 1.091.496 2.182.595 3.272 0 .892 0 1.884-.397 2.578l-.496.496c-.496.397-.892.793-.793 1.19 0 .099.099.298.298.397.099.099.198.099.298.099h.099c1.091.397 2.38.595 3.768.595 4.462 0 9.024-2.082 10.809-2.975 3.075-1.386 6.645-3.567 8.827-7.336zm-12.495 4.264c-1.388.793-3.173 1.785-4.562 1.785-1.091 0-1.785-.694-1.983-2.082-.397-2.479-.793-4.958-1.091-7.338-.099-1.091-.298-2.182-.298-3.173-.099-.793-.099-1.686-.198-2.479-.198-3.372-.496-6.942-1.388-10.313-.298-1.289-.793-2.182-1.587-3.074v-.198h.099c.496 0 1.19.198 1.587.297.099 0 .198 0 .198.099 1.686.397 3.074.694 4.462 1.091 2.182.595 4.462 1.587 6.347 2.38 3.173 1.388 7.437 3.669 8.925 7.834 1.19 3.57-.397 7.338-4.859 11.007-1.983 1.587-3.57 2.876-5.454 3.967l-.198.197zm85.779-9.024c-5.256-1.289-4.264 5.057-5.652 8.33a7.167 7.167 0 0 1-.892 1.983c-1.091 1.587-3.471 2.182-5.057 1.091-.595-.496-.992-1.091-1.19-1.785a8.463 8.463 0 0 1-.298-2.281c-.198-.793-.099-1.785-.099-2.479-.595-1.686-1.487-2.777-3.173-2.182-1.19.397-1.091 2.777-1.289 3.768-.397 1.487-1.289 3.074-2.677 3.867-1.785 1.19-4.859.298-6.446-.793-.992-.595-2.479-2.082-2.578-3.372.595 0 1.388-.099 1.983-.397.793-.397 1.785-.992 2.479-1.587 1.884-1.785 1.587-4.363.595-6.446-3.173-3.967-5.057 1.587-7.537 3.372-1.388.892-2.975-1.19-2.578-2.182.397-1.289 1.487-2.578 1.19-3.967-.198-1.19-1.388-1.19-2.281-.893-1.686.496-2.677 3.372-3.471 4.661-1.19 1.983-2.38 3.967-3.372 6.049-.099.198-1.487 2.479-1.587 2.38-.496-.892-1.388-1.686-2.083-2.479-.694-.892-1.19-1.884-1.983-2.777-1.19-1.388-2.182-3.372-3.669-4.562-.892-.694-2.777-1.289-3.669-.198-.892 1.19-.992 1.884-.793 3.372.099.892.694 1.289 1.091 2.082.496 1.19 1.587 1.983 2.082 3.173.397.892.397 1.785.298 2.777s-.198 2.281-.892 3.074c-2.479 2.876-3.967-3.372-3.867-4.958 0-.595.496-1.487 0-1.983-.992-.992-1.785.694-2.182 1.289-.397.694-.892 1.19-1.289 1.785l-.595.595-.595.595c-1.388 1.289-2.777 1.785-4.562 1.289-1.19-.397-2.082-1.388-1.785-2.677.397-2.281 3.57-4.264 5.652-4.76.793-.198 1.785-.099 2.38-.694.496-.496.298-1.091-.099-1.487-.892-1.091-2.38-.595-3.471-.198-1.39.498-2.877.894-4.166 1.589-.793.496-2.182 1.289-2.777 1.983C1.623 13.34.83 14.629.136 16.315c-.496 1.388-1.091 3.471 0 4.76.694 1.091 2.182 1.487 2.182 1.487 4.562 1.091 8.231.198 11.007-3.272.198 0 .496-.099.694.099 1.19.793 1.388 1.587 2.182 2.677 1.19 1.785 4.066 2.975 5.553.992 1.091-1.388 1.19-3.669 1.587-5.355h.298c.595 1.289 2.182 5.752 3.967 5.355 4.462-.892 5.553-6.644 7.636-9.917.397-.595.793-2.677 1.884-2.479.694.099 1.289 1.785 1.587 2.38.198.298.397.694.595.992.198.397.298.694.496 1.091.595 1.587 1.19 3.074 2.083 4.462 1.487 2.182 3.867 3.372 6.347 3.768 2.281.298 5.157-.298 6.842-1.983a4.385 4.385 0 0 1 1.091-.793c.793-.496 1.785-1.686 2.578-.992s1.091 1.785 1.785 2.479c.892.892 2.182 1.587 3.57 1.686.496 0 1.19-.198 1.686-.298.496-.099.892 0 1.091.793.099.397.099.793.099 1.19-.496 3.867-.694 7.834-2.083 11.702-.099.397-.298.793-.496 1.19-1.091 2.777-2.677 5.256-4.76 7.338-.298.198-.496.496-.793.694-.298.198-.496.496-.793.694-.397.298-.694.595-1.091.893-2.083 1.686-6.049 2.479-6.545 4.165-.496 3.272 5.157 2.578 7.537.397.496-.298.892-.595 1.289-.892l1.19-.893c.397-.298.694-.595.992-.793 3.471-2.38 5.355-5.95 7.239-9.619.298-.694.595-1.388.793-2.082.496-1.388.892-2.876 1.091-4.363.099-.496.198-.893.298-1.388.694-2.777 1.19-5.454 1.388-8.231.099-.793.198-1.587.397-2.38.595-3.074 1.487-6.049 2.083-9.222 0-.298.099-.595.099-.793.099-.793.099-1.686.198-2.479-.003-.398-.3-1.39-1.292-1.39zm-26.18 1.19c.298 1.19-1.983 2.876-3.074 2.281 0 0 2.578-4.562 3.074-2.281zm-59.698 22.709l-2.975 7.041h1.587l.595-1.587h2.975l.595 1.587h1.587l-2.975-7.041h-1.389zm-.298 4.066l.892-2.281.892 2.281h-1.784zm16.164.694l-1.587-4.76H.83l-1.587 4.76-1.487-4.76H-3.93l2.38 7.041h1.289l1.587-4.562 1.587 4.562h1.289l2.38-7.041H4.995l-1.29 4.76zm9.421-4.76l-2.975 7.041h1.587l.595-1.587h2.975l.595 1.587h1.587l-2.975-7.041h-1.389zm-.198 4.066l.892-2.281.892 2.281h-1.784zm15.867-1.686c0-.694-.198-1.19-.595-1.587-.496-.496-1.19-.694-2.083-.694h-3.173v6.942h1.487v-2.281h1.19l1.487 2.281h1.785l-1.686-2.479c.993-.397 1.588-1.091 1.588-2.182zm-1.587 0c0 .595-.397.992-1.19.992h-1.587v-1.983h1.487c.893 0 1.29.396 1.29.991zm10.016-2.38h-2.677v6.942h2.677c2.182 0 3.669-1.487 3.669-3.471 0-1.983-1.488-3.471-3.669-3.471zm2.082 3.57c0 1.19-.892 2.082-2.083 2.082h-1.19v-4.165h1.19c1.29-.098 2.083.794 2.083 2.083zm12.297 1.389c0-1.19-.793-1.785-2.182-2.082-1.19-.298-1.487-.496-1.487-.893 0-.298.298-.595.892-.595.595 0 1.19.298 1.785.694l.793-1.19c-.694-.595-1.587-.892-2.578-.892-1.388 0-2.479.793-2.479 2.082 0 1.388.892 1.785 2.281 2.182 1.19.298 1.388.496 1.388.892 0 .397-.397.694-.992.694-.793 0-1.487-.298-2.083-.893l-.892 1.091c.793.793 1.884 1.091 2.975 1.091 1.488 0 2.579-.793 2.579-2.181z" id="Shape_5"/></svg>