<svg id="Layer_1" xmlns="http://www.w3.org/2000/svg" width="94" height="44.147" viewBox="-26.927 -2.065 94 44.147"><style>.st0{fill:#fff}</style><path class="st0" d="M26.731 32.071l-2.603-2.703s-1.201 1.702-3.304 3.704l-3.904-4.305c2.302-1.702 4.204-2.503 4.204-5.906 0-4.204-4.305-4.805-5.706-4.805-1.702 0-6.407.701-6.407 5.306 0 2.002.601 3.003 2.102 4.805-2.102 1.502-4.605 3.003-4.605 6.907 0 4.104 3.904 6.507 7.408 6.507 2.503 0 4.705-1.101 6.607-2.803a454.02 454.02 0 0 1 2.202 2.403h5.506l-4.805-5.306c1.302-1.401 2.203-2.603 3.305-3.804zM15.118 20.859c.901 0 2.002.601 2.002 2.102 0 1.201-.501 2.002-2.503 3.304 0 0-1.602-1.702-1.602-3.003.001-1.502 1.202-2.403 2.103-2.403zm-.901 16.618c-1.702 0-3.203-1.301-3.203-3.103 0-1.401 1.301-2.803 2.403-3.704 1.101 1.301 3.003 3.203 4.605 5.005-1.502 1.501-2.804 1.802-3.805 1.802zm-28.43-38.741h-12.714V40.98h13.715c8.709 0 20.822-7.308 20.822-20.922C7.71 6.544-2.801-1.264-14.213-1.264zm.2 34.536h-4.004V6.143h3.804c3.904 0 12.413 2.302 12.413 13.614.2 11.013-7.808 13.515-12.213 13.515zm61.666-14.615v6.907h9.31c0 5.306-5.206 9.01-10.311 9.01-7.508 0-12.613-7.108-12.613-14.115S38.143 5.343 46.452 5.343c7.608 0 10.511 6.607 10.511 6.607l7.708-3.804S60.567-2.065 46.552-2.065c-13.915 0-21.823 11.312-21.823 22.324 0 10.311 7.308 21.823 21.623 21.823 14.415 0 20.722-9.01 20.722-23.325H47.653v-.1z" id="D_x26_G"/></svg>