<svg id="Layer_1" xmlns="http://www.w3.org/2000/svg" width="94" height="42" viewBox="-26.918 -1 94 42"><style>.st0{fill:#fff}</style><path class="st0" d="M-15.418 10.5h13.6l-.8-11.5h-24.3v42h11.4V27.4h11.2V16h-11.1v-5.5zm70.3 8.6l11-20.1h-12.2l-5.1 9-5-9h-12.6l11.3 20.2-11.9 21.6h12.2l5.8-10.6 5.9 10.6h12.8l-12.2-21.7zm-18.6 1c0-11.3-8.6-20.4-19.2-20.4s-19.2 9.1-19.2 20.4 8.6 20.4 19.2 20.4 19.2-9.2 19.2-20.4zm-19.2 11.8c-1.8 0-3.3-1.6-3.3-3.5V11.7c0-1.9 1.5-3.6 3.3-3.6s3.4 1.7 3.4 3.6v16.8c.1 1.8-1.6 3.4-3.4 3.4z" id="Shape_7"/></svg>