<svg id="Layer_1" xmlns="http://www.w3.org/2000/svg" width="139" height="40.229" viewBox="-49.492 -0.098 139 40.229"><style>.st0{fill:#fff}</style><path class="st0" d="M48.679 28.222h17.212v-5.504H48.679v5.504zM80.302 11.01H78.1V8.808c0-4.904-4.103-8.906-9.207-8.906h-28.72c-3.703 0-6.805 2.001-8.306 5.004l-3.202 6.204-3.202-6.204C23.962 2.004 20.86.002 17.157.002c-3.703 0-6.805 2.001-8.306 5.004L5.648 11.21 2.446 5.006C.944 2.103-2.158.102-5.86.102h-23.017c-5.104 0-9.207 4.003-9.207 8.906v2.202h-2.202c-5.104 0-9.207 4.003-9.207 8.906s4.103 8.906 9.207 8.906h2.202v2.202c0 4.904 4.103 8.906 9.207 8.906s9.207-4.003 9.207-8.906v-2.202h8.006c1.901 0 3.603-.5 5.004-1.401l3.903 7.605c1.501 2.902 4.603 4.904 8.306 4.904 3.603 0 6.805-2.001 8.306-4.904l3.202-6.204 3.202 6.204c1.501 2.902 4.603 4.904 8.306 4.904 3.603 0 6.805-2.001 8.306-4.904l.4-.701c1.401 3.302 4.703 5.604 8.606 5.604h23.017c5.104 0 9.207-4.003 9.207-8.906v-2.202h2.202c5.104 0 9.207-4.003 9.207-8.906-.002-5.102-4.105-9.105-9.208-9.105zm0 11.708h-8.606v8.306c0 1.501-1.301 2.802-2.902 2.802H45.777c-1.601 0-2.902-1.201-2.902-2.802V19.916c0-1.501 1.301-2.802 2.902-2.802h20.114V11.61H41.774L31.066 32.225c-.5.901-1.401 1.501-2.602 1.501-1.101 0-2.102-.6-2.602-1.501l-8.906-17.212L8.05 32.225c-.5.901-1.401 1.501-2.602 1.501-1.101 0-2.102-.6-2.602-1.501L-7.662 11.61h-18.313v5.504h14.31c1.601 0 2.902 1.201 2.902 2.802 0 1.501-1.301 2.802-2.902 2.802h-14.31v8.306c0 1.501-1.301 2.802-2.902 2.802s-2.902-1.201-2.902-2.802v-8.306h-8.606c-1.601 0-2.902-1.201-2.902-2.802 0-1.501 1.301-2.802 2.902-2.802h8.606V8.808c0-1.501 1.301-2.802 2.902-2.802H-5.86c1.101 0 2.102.6 2.602 1.501L5.648 24.72l8.906-17.212c.5-.901 1.501-1.601 2.602-1.601s2.102.6 2.602 1.501l8.906 17.212L37.57 7.408c.5-.901 1.501-1.601 2.602-1.601h28.721c1.601 0 2.902 1.201 2.902 2.802v8.306h8.606c1.601 0 2.902 1.201 2.902 2.802-.199 1.7-1.5 3.001-3.001 3.001z" id="Shape_2"/></svg>