<?xml version="1.0" encoding="utf-8"?>
<!-- Generator: Adobe Illustrator 20.1.0, SVG Export Plug-In . SVG Version: 6.00 Build 0)  -->
<svg version="1.1" id="Layer_1" xmlns="http://www.w3.org/2000/svg" xmlns:xlink="http://www.w3.org/1999/xlink" x="0px" y="0px"
	 viewBox="0 0 300 200" enable-background="new 0 0 300 200" xml:space="preserve">
<g id="Bakery">
	<g>
		<path fill-rule="evenodd" clip-rule="evenodd" fill="#FFFFFF" d="M274.4,131.6c-3.9,0.2-6.2,1.7-8.8,4.9c0,0,4.8,1.4,7.6,0.4
			c2.8-1,4.7-2.3,6.6-5.7C277.8,132.5,276.5,131.5,274.4,131.6z M272.3,138.5c-2.1,0.9-3.3-0.2-5.3-0.3c-3.9-0.2-6.3,1-9.2,3.9
			c0,0,4.6,1.9,7.4,1.3C268.1,142.8,270.1,141.6,272.3,138.5z M281.1,124.1c-3.9,0.7-6,2.4-8.3,5.9c0,0,4.9,0.9,7.6-0.4
			c2.7-1.3,4.5-2.9,6-6.4C284.6,124.6,283.2,123.8,281.1,124.1z M240.5,150.6c0,0,4.1,2.9,7,2.9c2.9,0,5.2-0.7,8-3.2
			c-2.3,0.5-3.2-0.9-5.1-1.4C246.6,147.8,244,148.4,240.5,150.6z M279.2,122.8c0,0,4.1,0.3,6.2-1c2.1-1.3,3.4-2.7,4.5-5.8
			C285.8,119.3,282.2,116.4,279.2,122.8z M256.6,148.9c2.9-0.3,5.1-1.2,7.6-4.1c-2.2,0.7-3.3-0.5-5.3-0.9c-3.9-0.6-6.4,0.3-9.6,2.8
			C249.4,146.8,253.7,149.3,256.6,148.9z M249.2,138.5c-3.2,0.7-4.7,1.8-6.4,3.8c-1.7,2-2.8,6.7-2.8,6.7
			C248.6,148.1,245.3,143.2,249.2,138.5z M263.7,128.4c-3,1.4-4.2,2.8-5.5,5.1c-1.3,2.3-1.3,7.2-1.3,7.2
			C265.1,137.9,260.9,133.9,263.7,128.4z M256.7,133.9c-3.1,1.1-4.5,2.3-6,4.5c-1.5,2.2-2.1,7-2.1,7
			C257.1,143.4,253.4,139,256.7,133.9z M270.1,122.2c-2.8,1.8-3.9,3.3-4.9,5.7c-1,2.4-0.5,7.3-0.5,7.3
			C272.5,131.5,267.9,127.9,270.1,122.2z M280.6,110.2c-2.1,2-2.7,3.4-3.2,5.7c-0.4,2.2,0.8,6.1,0.8,6.1
			C283.9,117.5,279.9,115.2,280.6,110.2z M275.8,115.2c-2.6,2.1-3.6,3.7-4.3,6.3c-0.7,2.6,0.2,7.4,0.2,7.4
			C279.2,124.2,274.2,121.2,275.8,115.2z M286,115.7c3.4-2,3.4-4.3,3.6-7.7c0.1-1.6,0.5-3.9,0.5-3.9s-1.9,2-2.8,2.7
			c-2.6,2.1-4.4,3-4.7,6.7c-0.2,2.2,0.3,3.2,0.3,3.2S284.1,116.8,286,115.7z M250.9,166.1c0,0,3.2,2.4,5.5,2.5
			c2.4,0.1,4.2-0.4,6.6-2.3C258,166.8,256.6,162.6,250.9,166.1z M243.4,168.1c0,0,2.9,2.8,5.2,3.1c2.3,0.3,4.2,0.1,6.7-1.6
			C250.3,169.5,249.5,165.2,243.4,168.1z M258.2,163.4c0,0,3.4,2.1,5.8,1.9c2.4-0.2,4.2-0.9,6.3-3.1
			C265.4,163.2,263.5,159.3,258.2,163.4z M228.1,169.4c0,0,2.2,3.3,4.4,4.2c2.2,0.8,4.1,1,6.9-0.1
			C234.5,172.3,234.6,167.9,228.1,169.4z M265.1,159.7c0,0,3,1.4,5,1c1.9-0.4,3.4-1,5-3C270.9,158.7,269,155.8,265.1,159.7z
			 M235.8,169.2c0,0,2.6,3.1,4.8,3.7c2.3,0.6,4.1,0.5,6.8-0.8C242.5,171.3,242.1,167,235.8,169.2z M232.1,163.9c-1.8,1-4,4.3-4,4.3
			c6.6,1.8,5.9-2.7,9.9-5.3C235.4,162.5,234,162.9,232.1,163.9z M251.8,159.5c-2.6,0.2-4,0.9-5.6,2.3c-1.6,1.4-3,5-3,5
			C250,167.1,248.4,162.9,251.8,159.5z M245,161.6c-2.6-0.1-4,0.5-5.8,1.6c-1.7,1.2-3.5,4.7-3.5,4.7
			C242.4,168.9,241.2,164.6,245,161.6z M258.3,156.7c-2.6,0.5-3.9,1.3-5.3,2.9c-1.5,1.5-2.5,5.3-2.5,5.3
			C257.4,164.4,255.3,160.4,258.3,156.7z M269.7,150.7c-2.1,0.9-3,1.8-4,3.3c-1,1.5-1.1,4.8-1.1,4.8
			C269.9,157.3,268,154.3,269.7,150.7z M264.6,153.1c-2.6,0.8-3.7,1.8-5,3.5c-1.3,1.7-1.9,5.6-1.9,5.6
			C264.5,161,262,157.2,264.6,153.1z M270.3,153.7c-0.7,1.6-0.7,2.5-0.7,2.5s0.8,0.4,2.6,0.2c3.1-0.5,3.8-2.2,4.9-4.8
			c0.5-1.2,1.5-2.8,1.5-2.8s-2,1-2.8,1.2C273.2,150.9,271.6,151,270.3,153.7z M225,168.7c3.6-0.8,3.4-4.4,5.9-5.3
			c-2.5-0.6-4-0.4-6,0.4c-1.4,0.6-3.3,2.6-4.2,3.7c-7.8-1-14.8-3-21.7-6.1c1,0.1,2,0.3,3,0.4c1.8,0.2,3.6,0.3,5.3,0.4
			c1.7,0.1,3.4,0,5,0c1.6-0.1,3.1-0.2,4.6-0.3c1.4-0.1,2.8-0.3,4.1-0.5c2.5-0.4,4.7-0.8,6.5-1.3c0.9-0.2,1.7-0.4,2.4-0.6
			c0.7-0.2,1.3-0.3,1.7-0.5c0.9-0.3,1.4-0.4,1.4-0.4s-0.5,0.1-1.5,0.3c-0.5,0.1-1.1,0.2-1.8,0.3c-0.7,0.1-1.5,0.2-2.4,0.4
			c-1.8,0.3-4,0.5-6.6,0.7c-1.3,0.1-2.6,0.2-4,0.2c-1.4,0.1-2.9,0.1-4.5,0c-1.6,0-3.2-0.1-4.8-0.3c-1.7-0.1-3.4-0.3-5.2-0.6
			c-1.8-0.3-3.6-0.6-5.4-1c-1.8-0.4-3.7-0.8-5.6-1.3c-0.1,0-0.2-0.1-0.3-0.1c-0.1-0.1-0.2-0.1-0.3-0.2c0.1,0.1,0.2,0.1,0.3,0.2
			c-3.6-1-7.4-2.2-11.1-3.4c-3.9-1.3-8-2.5-12.2-3.4c-4.2-0.8-8.5-1.4-12.7-1.3c-2.1,0.1-4.3,0.3-6.3,0.8c-2.1,0.5-4.1,1.2-5.9,2.3
			c-1.8,1-3.4,2.4-4.8,3.9c-0.7,0.8-1.2,1.6-1.8,2.4c-0.5,0.8-1,1.7-1.3,2.6c-0.2,0.4-0.4,0.9-0.5,1.3c-0.1,0.4-0.3,0.9-0.4,1.3
			c-0.3,1-0.4,1.9-0.4,2.8c0,1.8,0.3,3.6,0.8,5.1c1.1,3.2,3.2,5.6,5.4,7c1.1,0.7,2.2,1.2,3.3,1.6c1.1,0.3,2.1,0.5,3,0.7
			c1.9,0.2,3.3,0.1,4.3,0c0.5-0.1,0.9-0.1,1.1-0.2c0.3,0,0.4-0.1,0.4-0.1s-0.1,0-0.4,0c-0.3,0-0.6,0-1.1,0c-1,0-2.4,0-4.2-0.3
			c-1.8-0.3-3.9-1.1-5.9-2.5c-1-0.7-1.9-1.7-2.7-2.8c-0.8-1.1-1.4-2.4-1.9-3.9c-0.4-1.4-0.6-3-0.5-4.6c0.1-0.8,0.2-1.6,0.4-2.3
			c0.1-0.4,0.3-0.8,0.5-1.2c0.2-0.4,0.3-0.8,0.5-1.2c0.4-0.8,0.8-1.5,1.3-2.3c0.5-0.7,1-1.4,1.6-2.1c1.2-1.3,2.7-2.4,4.3-3.3
			c3.3-1.7,7.2-2.4,11.1-2.5c4-0.1,8.1,0.5,12.1,1.3c4,0.8,8,2,11.9,3.2c1,0.3,2,0.6,3,0.9c1,0.3,2,0.6,2.9,0.9
			c2,0.6,3.9,1.1,5.8,1.6c1.9,0.5,3.8,0.9,5.7,1.2c0.4,0.1,0.8,0.1,1.2,0.2c7.2,3.8,14.6,6.3,22.8,7.8c0.7,1.3,2.3,3.7,3.9,4.5
			c2.1,1.1,3.9,1.4,6.9,0.7C228.2,173.4,228.5,169.9,225,168.7z M140.2,149.1c2.2-1.3,4.7-2.3,7.6-2.9c2.8-0.6,5.9-0.9,9.1-0.9
			l0.6,0l0.3,0l0.3,0l0.6,0l0.6,0c0.8,0,1.6,0.1,2.4,0.2c1.6,0.2,3.3,0.5,4.9,0.8c3.3,0.7,6.6,1.7,9.9,2.8c3.3,1.1,6.6,2.2,9.9,3.3
			c3.3,1,6.6,1.9,9.9,2.5c3.3,0.6,6.5,1,9.5,1.2c3,0.2,5.9,0.1,8.6,0c2.6-0.2,5-0.5,7.2-0.9c1.7-0.3,3.2-0.6,4.5-0.9
			c1.8-0.2,3.6-0.5,5.4-0.9c1.4,1.2,4.4,3.3,6.5,3.5c2.9,0.3,5.2-0.1,8.3-2.3c-3.7,0.1-5.7-3.5-9.6-3.6c3.2-2.3,2-6.1,4.6-8.8
			c-3.2,0.4-4.9,1.3-6.8,3.1c-1.4,1.3-2.6,4.5-3.3,6.2c-7.7,1.9-15.2,2.8-22.7,2.8c-0.8-0.1-1.6-0.1-2.4-0.2
			c-2.8-0.3-5.6-0.8-8.6-1.4l-0.8-0.2c-3.1-0.7-6.2-1.6-9.4-2.7c-3.2-1.1-6.5-2.3-9.9-3.4c-3.3-1.1-6.7-2.2-10.2-2.9
			c-1.7-0.4-3.5-0.6-5.2-0.8c-0.9-0.1-1.7-0.2-2.6-0.2l-0.7-0.1h-0.9l-0.3,0.1l-0.6,0.1c-1.7,0.1-3.3,0.2-4.9,0.4
			c-1.6,0.2-3.2,0.5-4.7,0.9c-3,0.8-5.8,2-8,3.6c-2.2,1.6-4,3.5-5.2,5.3c-1.2,1.9-1.9,3.6-2.4,5.1c-0.5,1.5-0.7,2.7-0.8,3.5
			c-0.1,0.4-0.1,0.7-0.1,0.9c0,0.2,0,0.3,0,0.3s0.1-0.4,0.3-1.2c0.2-0.8,0.6-1.9,1.2-3.3c0.3-0.7,0.7-1.4,1.1-2.2
			c0.4-0.8,1-1.6,1.6-2.4C136.3,152,138,150.4,140.2,149.1z M25.8,68.4c3.9-0.2,6.2-1.7,8.8-4.9c0,0-4.8-1.4-7.6-0.4
			c-2.8,1-4.7,2.3-6.6,5.7C22.5,67.5,23.8,68.5,25.8,68.4z M27.9,61.5c2.1-0.9,3.3,0.2,5.3,0.3c3.9,0.2,6.3-1,9.2-3.9
			c0,0-4.6-1.9-7.4-1.3C32.2,57.2,30.1,58.4,27.9,61.5z M19.1,75.9c3.9-0.7,6-2.4,8.3-5.9c0,0-4.9-0.9-7.6,0.4
			c-2.7,1.3-4.5,2.9-6,6.4C15.7,75.4,17.1,76.2,19.1,75.9z M59.7,49.4c0,0-4.1-2.9-7-2.9c-2.9,0-5.2,0.7-8,3.2
			c2.3-0.5,3.2,0.9,5.1,1.4C53.7,52.2,56.3,51.6,59.7,49.4z M21,77.2c0,0-4.1-0.3-6.2,1c-2.1,1.3-3.4,2.7-4.5,5.8
			C14.5,80.7,18,83.6,21,77.2z M50.9,53.2c0,0-4.3-2.4-7.3-2.1c-2.9,0.3-5.1,1.2-7.6,4.1c2.2-0.7,3.3,0.5,5.3,0.9
			C45.2,56.6,47.7,55.7,50.9,53.2z M51.1,61.5c3.2-0.7,4.7-1.8,6.4-3.8c1.7-2,2.8-6.7,2.8-6.7C51.7,51.9,54.9,56.7,51.1,61.5z
			 M36.6,71.6c3-1.4,4.2-2.8,5.5-5.1c1.3-2.3,1.3-7.2,1.3-7.2C35.1,62.1,39.3,66.1,36.6,71.6z M43.6,66.1c3.1-1.1,4.5-2.3,6-4.5
			c1.5-2.2,2.1-7,2.1-7C43.1,56.6,46.9,61,43.6,66.1z M30.2,77.8c2.8-1.8,3.9-3.3,4.9-5.7c1-2.4,0.5-7.3,0.5-7.3
			C27.7,68.5,32.3,72.1,30.2,77.8z M19.6,89.8c2.1-2,2.7-3.5,3.2-5.7c0.4-2.2-0.8-6.1-0.8-6.1C16.3,82.5,20.4,84.8,19.6,89.8z
			 M24.4,84.8c2.6-2.1,3.6-3.7,4.3-6.3c0.7-2.6-0.2-7.3-0.2-7.3C21.1,75.8,26,78.8,24.4,84.8z M14.2,84.3c-3.4,2-3.4,4.3-3.6,7.7
			c-0.1,1.6-0.5,3.9-0.5,3.9s1.9-2,2.8-2.7c2.6-2.1,4.4-3,4.7-6.7c0.2-2.2-0.3-3.2-0.3-3.2S16.1,83.2,14.2,84.3z M49.3,33.9
			c0,0-3.2-2.4-5.5-2.5c-2.4-0.1-4.2,0.4-6.6,2.3C42.2,33.2,43.6,37.4,49.3,33.9z M56.8,31.9c0,0-2.9-2.8-5.2-3.1
			c-2.3-0.3-4.2-0.1-6.7,1.6C49.9,30.5,50.8,34.8,56.8,31.9z M42,36.6c0,0-3.4-2.1-5.8-1.9c-2.4,0.2-4.2,0.9-6.3,3.1
			C34.9,36.8,36.7,40.7,42,36.6z M72.2,30.6c0,0-2.2-3.3-4.4-4.2c-2.2-0.8-4.1-1-6.9,0.1C65.8,27.7,65.7,32.1,72.2,30.6z M35.2,40.3
			c0,0-3-1.4-5-1c-1.9,0.4-3.4,1-5,3C29.3,41.3,31.3,44.2,35.2,40.3z M64.4,30.8c0,0-2.6-3.1-4.8-3.7c-2.3-0.6-4.1-0.5-6.8,0.8
			C57.8,28.7,58.2,33,64.4,30.8z M68.1,36.1c1.8-1,4-4.3,4-4.3c-6.6-1.8-5.9,2.7-9.9,5.3C64.8,37.5,66.3,37.1,68.1,36.1z M57,33.2
			c-6.8-0.3-5.2,3.9-8.6,7.3c2.6-0.2,4-0.9,5.6-2.3C55.6,36.9,57,33.2,57,33.2z M61,36.8c1.7-1.2,3.5-4.7,3.5-4.7
			c-6.7-1-5.5,3.3-9.3,6.3C57.9,38.5,59.3,38,61,36.8z M47.2,40.4c1.5-1.5,2.5-5.3,2.5-5.3c-6.8,0.5-4.7,4.5-7.8,8.2
			C44.5,42.8,45.8,42,47.2,40.4z M30.6,49.3c2.1-0.9,3-1.8,4-3.3c1-1.5,1.1-4.8,1.1-4.8C30.3,42.7,32.3,45.7,30.6,49.3z M35.6,46.9
			c2.6-0.8,3.7-1.8,5-3.5c1.3-1.7,1.9-5.6,1.9-5.6C35.8,39.1,38.3,42.8,35.6,46.9z M30,46.3c0.7-1.6,0.7-2.5,0.7-2.5
			s-0.8-0.4-2.6-0.2c-3.1,0.5-3.8,2.2-4.9,4.8c-0.5,1.2-1.5,2.8-1.5,2.8s2-1,2.8-1.2C27.1,49.1,28.7,49,30,46.3z M75.2,31.3
			c-3.6,0.8-3.4,4.4-5.9,5.3c2.5,0.6,4,0.4,6-0.4c1.4-0.6,3.3-2.6,4.2-3.7c7.8,1,14.8,3,21.7,6.1c-1-0.1-2-0.3-3-0.4
			c-1.8-0.2-3.6-0.3-5.3-0.4c-1.7-0.1-3.4,0-5,0c-1.6,0.1-3.1,0.2-4.6,0.3c-1.4,0.1-2.8,0.3-4.1,0.5c-2.5,0.4-4.7,0.8-6.5,1.3
			c-0.9,0.2-1.7,0.4-2.4,0.6c-0.7,0.2-1.3,0.3-1.7,0.5c-0.9,0.3-1.4,0.4-1.4,0.4s0.5-0.1,1.5-0.3c0.5-0.1,1.1-0.2,1.8-0.3
			c0.7-0.1,1.5-0.2,2.4-0.4c1.8-0.3,4-0.5,6.6-0.7c1.3-0.1,2.6-0.2,4-0.2c1.4,0,2.9-0.1,4.5,0c1.6,0,3.2,0.1,4.8,0.3
			c1.7,0.1,3.4,0.3,5.2,0.6c1.8,0.3,3.6,0.6,5.4,1c1.8,0.4,3.7,0.8,5.6,1.3c0.1,0,0.2,0.1,0.3,0.1c0.1,0.1,0.2,0.1,0.3,0.2
			c-0.1-0.1-0.2-0.1-0.3-0.2c3.6,1,7.4,2.2,11.1,3.4c3.9,1.3,8,2.5,12.2,3.4c4.2,0.8,8.5,1.4,12.7,1.3c2.1-0.1,4.3-0.3,6.3-0.8
			c2.1-0.5,4.1-1.2,5.9-2.3c1.8-1,3.4-2.4,4.8-3.9c0.7-0.8,1.2-1.6,1.8-2.4c0.5-0.8,1-1.7,1.3-2.6c0.2-0.4,0.4-0.9,0.5-1.3
			c0.1-0.4,0.3-0.9,0.4-1.3c0.3-1,0.4-1.9,0.4-2.8c0-1.8-0.3-3.6-0.8-5.1c-1.1-3.2-3.2-5.6-5.4-7c-1.1-0.7-2.2-1.2-3.3-1.6
			c-1.1-0.3-2.1-0.5-3-0.6c-1.9-0.2-3.3-0.1-4.3,0c-0.5,0.1-0.9,0.1-1.1,0.2c-0.3,0-0.4,0.1-0.4,0.1s0.1,0,0.4,0c0.3,0,0.6,0,1.1,0
			c1,0,2.4,0,4.2,0.3c1.8,0.3,3.9,1.1,5.9,2.5c1,0.7,1.9,1.7,2.7,2.8c0.8,1.1,1.4,2.4,1.9,3.9c0.4,1.4,0.6,3,0.5,4.6
			c-0.1,0.8-0.2,1.6-0.4,2.3c-0.1,0.4-0.3,0.8-0.5,1.2c-0.2,0.4-0.3,0.8-0.5,1.2c-0.4,0.8-0.8,1.5-1.3,2.3c-0.5,0.7-1,1.4-1.6,2.1
			c-1.2,1.3-2.7,2.4-4.3,3.3c-3.3,1.8-7.2,2.4-11.1,2.5c-4,0.1-8.1-0.5-12.1-1.3c-4-0.8-8-2-11.9-3.2c-1-0.3-2-0.6-3-0.9
			c-1-0.3-2-0.6-2.9-0.9c-2-0.6-3.9-1.1-5.8-1.6c-1.9-0.5-3.8-0.9-5.7-1.2c-0.4-0.1-0.8-0.1-1.2-0.2C95.4,35.1,88,32.5,79.8,31
			c-0.7-1.3-2.3-3.7-3.9-4.5c-2.1-1.1-3.9-1.4-6.9-0.7C72,26.6,71.8,30.1,75.2,31.3z M69.1,48.4c7.7-1.9,15.2-2.8,22.7-2.8
			c0.8,0.1,1.6,0.1,2.4,0.2c2.8,0.3,5.6,0.8,8.6,1.4l0.8,0.2c3.1,0.7,6.2,1.6,9.4,2.7c3.2,1.1,6.5,2.3,9.9,3.4
			c3.3,1.1,6.7,2.2,10.2,2.9c1.7,0.4,3.5,0.6,5.2,0.8c0.9,0.1,1.7,0.2,2.6,0.2l0.7,0.1h0.9l0.3-0.1l0.6-0.1c1.7-0.1,3.3-0.2,4.9-0.4
			c1.6-0.2,3.2-0.5,4.7-0.9c3-0.8,5.8-2,8-3.6c2.2-1.6,4-3.5,5.2-5.3c1.2-1.9,1.9-3.6,2.4-5.1c0.5-1.5,0.7-2.7,0.8-3.5
			c0.1-0.4,0.1-0.7,0.1-0.9c0-0.2,0-0.3,0-0.3s-0.1,0.4-0.3,1.2c-0.2,0.8-0.6,1.9-1.2,3.3c-0.3,0.7-0.7,1.4-1.1,2.2
			c-0.4,0.8-1,1.6-1.6,2.4c-1.3,1.6-3,3.2-5.2,4.5c-2.2,1.3-4.7,2.3-7.6,2.9c-2.8,0.6-5.9,0.9-9.1,0.9l-0.6,0l-0.3,0l-0.3,0l-0.6,0
			l-0.6,0c-0.8,0-1.6-0.1-2.4-0.2c-1.6-0.2-3.3-0.5-4.9-0.8c-3.3-0.7-6.6-1.7-9.9-2.8c-3.3-1.1-6.6-2.2-9.9-3.3
			c-3.3-1-6.6-1.9-9.9-2.5c-3.3-0.6-6.5-1-9.5-1.2c-3-0.2-5.9-0.1-8.6,0c-2.6,0.2-5,0.5-7.2,0.9c-1.7,0.3-3.2,0.6-4.5,0.9
			c-1.8,0.2-3.6,0.5-5.4,0.9c-1.4-1.2-4.4-3.3-6.5-3.5c-2.9-0.3-5.2,0.1-8.3,2.3c3.7-0.1,5.7,3.5,9.6,3.6c-3.2,2.3-2,6.1-4.6,8.8
			c3.2-0.4,4.9-1.3,6.8-3.1C67.2,53.3,68.5,50.1,69.1,48.4z M107.7,85.3c-0.6,0-1,1.1-3.6,2.4c-2.3,1.1-4.4,2.9-6.4,5.9
			C94.5,98.7,87,105.9,82,105.9c-5.4,0-8-3.4-8-9.8c0-15,13.7-34.5,27-34.5c3.6,0,5.6,2,5.6,4.5c0,3.6-3.8,3.3-3.8,6.3
			c0,1.2,1,2,2,2c2.4,0,3.9-3.4,3.9-6.6c0-5.3-3.2-7.6-8.7-7.6c-14.7,0-34.2,18.1-34.2,35.2c0,8.9,5.6,13,12.7,13
			c9.2,0,16-8.7,19.4-12.8c-1.6,5.7-3.5,15.6-6.5,24.4c-3.1,9.1-7.8,15.8-16.3,15.8c-5.6,0-10-3.9-10-10.1c0-5.9,5-10.1,8.7-10.1
			c4.1,0,4.1,3,6.3,3c0.9,0,1.7-0.6,1.7-1.9c0-1.6-2.2-3.1-5.4-3.1c-7,0-13.1,5.7-13.1,13.9c0,6.3,4.3,12.8,14.1,12.8
			c9.1,0,17.1-7.4,19.8-19.2c2.1-9.3,4.2-19.2,6-25.6c1.8-6.6,5-8.8,5-9.8C108.2,85.6,108,85.3,107.7,85.3z M114.3,84.3
			c0,1.6,1.1,2.3,2.3,2.3c1.8,0,3.7-2.7,3.7-4.9c0-1.3-0.9-2.1-2-2.1C116.4,79.7,114.3,82.2,114.3,84.3z M114.3,108.5
			c-1.1,0-1.7-0.7-1.7-2.1c0-3.4,4.2-8.9,4.2-12.5c0-1.6-1.1-2.6-3-2.6c-2.6,0-6.4,3.4-7.7,4.5l0.5,0.7c0,0,2.5-2.2,3.4-2.2
			c0.7,0,0.9,0.5,0.9,1.2c0,3.2-4.4,8.2-4.4,11.8c0,2.4,1.6,4.1,4,4.1c3.8,0,8.2-4.8,8.2-4.8l-0.6-0.6
			C118.2,106,115.9,108.5,114.3,108.5z M139.8,98.5c0-4.6-3.4-7.3-8.4-7.3c-6.7,0-12.1,6.2-12.1,13.2c0,4.8,3.4,7.2,8.3,7.2
			C133.5,111.6,139.8,105.8,139.8,98.5z M127.6,110.4c-2,0-3.2-1.8-3.2-4.3c0-7.2,2.8-13.9,6.9-13.9c2.1,0,3.4,1.4,3.4,3.9
			C134.7,102.8,131.4,110.4,127.6,110.4z M139.5,111.5c0,0.2,0.2,0.3,0.3,0.3c0.3,0,1-0.7,2.5-0.7c1.5,0,2.5,0.2,3.2,0.2
			c0.7,0,1.1-0.2,1.1-1.1c0-1.3,2.2-8.3,3.8-10.5c2-3,3.4-5.3,4.9-5.3c0.3,0,0.7,0.2,0.7,0.7c0,1.1,0.7,2,2,2c1.8,0,2.9-1.6,2.9-3.2
			c0-1.5-1.2-2.7-2.7-2.7c-2.6,0-6.4,4.2-7.8,6.7c0.2-0.4,0.7-2.5,0.7-4.1s-1-2.6-2.9-2.6c-2.6,0-6.4,3.4-7.6,4.5l0.5,0.7
			c0,0,2.5-2.2,3.4-2.2c0.7,0,0.9,0.5,0.9,1.2c0,1.6-2.5,10.2-4.4,14C140.4,110.6,139.5,111.2,139.5,111.5z M158.6,105.4
			c0,3.4,2.1,6.1,6,6.1c3.8,0,7.9-4.7,9.1-6.9c-2.4,11.3-5.6,24.1-11.6,24.1c-2,0-3.4-1.3-3.4-3c0-2.4,2.3-2.9,2.3-5.2
			c0-1.1-0.8-2-2-2c-1.7,0-3.6,1.7-3.6,4.2c0,4.3,3.4,6.9,8,6.9c6.6,0,11.1-4.6,12.4-11.5c1.1-5.8,2-12.1,3-15.9
			c0.7-2.7,1.3-4.8,2.9-7.3c1.6-2.4,3.7-3.7,3.7-3.7l-0.4-0.8c0,0-1.3,1.1-3.9,1.5c-2.8,0.4-4.1,1.6-4.7,3.3c-0.2-2.1-1.9-3.9-5-3.9
			C166,91.3,158.6,97.6,158.6,105.4z M172.2,92.6c2.5,0,3.3,2,3.3,3.9c0,1.3-1,4.6-1.6,6.2c-1.5,3-4.6,6.6-6.6,6.6
			c-1.9,0-2.8-1.6-2.8-4.6C164.4,99.7,168,92.6,172.2,92.6z M194.1,86.6c1.8,0,3.7-2.7,3.7-4.9c0-1.3-0.9-2.1-2-2.1
			c-1.8,0-3.9,2.5-3.9,4.7C191.9,85.9,192.9,86.6,194.1,86.6z M184.2,96.5c0,0,2.5-2.2,3.4-2.2c0.7,0,0.9,0.5,0.9,1.2
			c0,3.2-4.4,8.2-4.4,11.8c0,2.4,1.6,4.1,4,4.1c3.8,0,8.2-4.8,8.2-4.8l-0.6-0.6c0,0-2.3,2.5-3.8,2.5c-1.1,0-1.7-0.7-1.7-2.1
			c0-3.4,4.2-8.9,4.2-12.5c0-1.6-1.1-2.6-3-2.6c-2.6,0-6.4,3.4-7.7,4.5L184.2,96.5z M205.1,111.6c6,0,12.3-5.7,12.3-13.1
			c0-4.6-3.4-7.3-8.4-7.3c-6.7,0-12.1,6.2-12.1,13.2C196.8,109.2,200.3,111.6,205.1,111.6z M208.9,92.2c2.1,0,3.4,1.4,3.4,3.9
			c0,6.7-3.4,14.3-7.1,14.3c-2,0-3.2-1.8-3.2-4.3C202,98.9,204.8,92.2,208.9,92.2z M220.4,80.4c2.2,0,5.7-4.9,5.7-7.2
			c0-1.5-1.1-3-2.5-3c-1.8,0-2.3,2.2-2.3,3.3c0,1.1,0.5,1.9,1.5,2c-0.2,2.2-1.7,3.4-2.5,3.9c-0.2,0.2-0.5,0.3-0.5,0.6
			C219.9,80.2,220,80.4,220.4,80.4z M224,97.1c0,4.7,6.5,5.3,6.5,9.5c0,2-1.6,3.9-3.8,3.9c-1.8,0-2.6-1-2.6-2.1
			c0-1.6,1.4-1.7,1.4-3.4c0-1.1-0.8-2-2-2c-1.6,0-3.2,1.1-3.2,3.1c0,3.3,2.9,5.3,7,5.3c4.7,0,8.7-2.5,8.7-6.6
			c0-4.4-7.1-5.3-7.1-10.1c0-1.6,1.6-3,3.6-3c1.1,0,1.6,0.5,1.6,1.4c0,1.4-1.1,1.8-1.1,3.1c0,0.9,0.9,1.6,2.1,1.6
			c1.4,0,2.6-1.1,2.6-3c0-2.5-2.2-4.1-5.2-4.1C228.8,91.1,224,93,224,97.1z M181.6,132.3v1.1h6.1c1.3,0,2.3-0.3,3.1-0.9
			c0.8-0.6,1.1-1.5,1.1-2.7c0-0.8-0.2-1.5-0.7-2.1c-0.4-0.6-1-1-1.8-1.1c0.6-0.2,1.1-0.5,1.4-1c0.4-0.4,0.5-1,0.5-1.5
			c0-1.2-0.4-2-1.1-2.6c-0.8-0.6-1.8-0.9-3.1-0.9h-5.6v1.1l1.4,0.2v10.1L181.6,132.3z M184.7,122h2.4c0.8,0,1.4,0.2,1.9,0.5
			c0.4,0.3,0.6,0.9,0.6,1.6c0,0.6-0.2,1.1-0.6,1.5c-0.4,0.4-0.9,0.5-1.5,0.6h-2.9V122z M184.7,127.4h3.2c0.8,0,1.3,0.2,1.7,0.6
			c0.4,0.4,0.5,1,0.5,1.8c0,0.7-0.2,1.3-0.7,1.7c-0.4,0.4-1,0.6-1.8,0.6h-3V127.4z M197.2,128c-1.3,0-2.3,0.2-3,0.7
			c-0.7,0.5-1.1,1.2-1.1,2.1c0,0.9,0.3,1.6,0.8,2c0.5,0.5,1.3,0.7,2.3,0.7c0.6,0,1.1-0.1,1.6-0.4s0.9-0.6,1.2-1.1
			c0,0.2,0,0.4,0.1,0.6c0,0.2,0.1,0.4,0.1,0.7h2.3v-1.1l-0.7-0.1c0-0.1,0-0.2,0-0.4c0-0.1,0-0.2,0-0.4v-4.6c0-1-0.3-1.8-1-2.4
			c-0.7-0.6-1.5-0.8-2.6-0.8c-0.7,0-1.4,0.1-2,0.3c-0.6,0.2-1.1,0.5-1.6,0.8v1.8h1.3l0.2-1c0.2-0.2,0.5-0.3,0.8-0.5
			c0.3-0.1,0.7-0.2,1.1-0.2c0.6,0,1.1,0.2,1.5,0.5c0.4,0.3,0.5,0.8,0.5,1.3v1.1H197.2z M199,130.8c-0.2,0.4-0.5,0.7-1,1
			c-0.5,0.3-1,0.4-1.6,0.4c-0.5,0-0.9-0.1-1.2-0.3c-0.3-0.2-0.4-0.5-0.4-1c0-0.5,0.2-0.9,0.6-1.2c0.4-0.3,1-0.5,1.7-0.5h1.8V130.8z
			 M208,133.5h3.9v-1.1l-1.1-0.2l-3-3.9l2.5-3l1.2-0.2v-1.1h-4v1.1l0.9,0.1l-2,2.5h-1.1v-8h-3.2v1.1l1.4,0.2v11l-1.4,0.2v1.1h4.6
			v-1.1l-1.4-0.2v-3h1.1l2.5,3.2l-0.9,0.1V133.5z M213.7,125.1c-0.8,0.9-1.2,2-1.2,3.4v0.4c0,1.4,0.4,2.6,1.2,3.4
			c0.8,0.9,1.8,1.3,3.1,1.3c0.8,0,1.5-0.1,2-0.3c0.6-0.2,1-0.5,1.3-0.8l-0.7-1.1c-0.3,0.3-0.7,0.5-1.1,0.7c-0.4,0.2-1,0.3-1.5,0.3
			c-0.8,0-1.4-0.3-1.9-0.9c-0.4-0.6-0.7-1.3-0.7-2.3l0,0h6.1V128c0-1.3-0.3-2.3-1-3.1c-0.7-0.8-1.6-1.2-2.9-1.2
			C215.5,123.8,214.5,124.2,213.7,125.1z M218.7,127.5v0.2h-4.4l0,0c0.1-0.7,0.3-1.4,0.8-1.8c0.4-0.5,0.9-0.7,1.5-0.7
			c0.7,0,1.2,0.2,1.6,0.7C218.6,126.3,218.7,126.8,218.7,127.5z M225.5,125.7c0.3-0.2,0.7-0.3,1.1-0.3l1,0.1l0.2-1.6
			c-0.1,0-0.2,0-0.3-0.1c-0.1,0-0.3,0-0.4,0c-0.5,0-1,0.1-1.4,0.4c-0.4,0.3-0.7,0.7-1,1.1l-0.2-1.4h-3v1.1l1.4,0.2v6.8l-1.4,0.2v1.1
			h4.6v-1.1l-1.4-0.2v-5.5C225,126.2,225.2,125.9,225.5,125.7z M231.2,135.4c-0.2,0.3-0.5,0.5-0.9,0.5c-0.1,0-0.2,0-0.5,0
			c-0.2,0-0.3,0-0.3,0l-0.2,1.4c0.1,0,0.3,0.1,0.5,0.1c0.2,0,0.4,0,0.5,0c0.8,0,1.4-0.2,1.8-0.7c0.4-0.5,0.8-1,1-1.7l3.6-9.7
			l0.8-0.1v-1.1h-3.8v1.1l1.1,0.2l-2,5.9h-0.1l-0.3-1.2l-1.6-4.7l1.1-0.2v-1.1h-3.8v1.1l0.9,0.1l3.1,8.1l-0.4,1
			C231.6,134.7,231.4,135,231.2,135.4z"/>
	</g>
</g>
</svg>
