<?xml version="1.0" encoding="utf-8"?>
<!-- Generator: Adobe Illustrator 20.1.0, SVG Export Plug-In . SVG Version: 6.00 Build 0)  -->
<svg version="1.1" id="Layer_1" xmlns="http://www.w3.org/2000/svg" xmlns:xlink="http://www.w3.org/1999/xlink" x="0px" y="0px"
	 viewBox="0 0 300 200" style="enable-background:new 0 0 300 200;" xml:space="preserve">
<style type="text/css">
	.st0{fill:#FFFFFF;}
</style>
<g id="_x33_D_MODELS">
	<g>
		<path class="st0" d="M12.3,84.1v34.1l25,14.7v-11.8l-14.5-7.9V89.4L42,79.3l13.6,7.8l-13,7.5v13.1L61,95.9v29l10.5-6.8v-34
			L42,67.1L12.3,84.1z M91.2,85.2h10.4v8.1h2.1V75.3h-2.1v8H91.2v-8h-2.1v17.8h2.1V85.2z M109.2,80.1h-2.1v13.3h2.1V80.1z
			 M109.3,74.9H107v2.3h2.3V74.9z M117.9,92.2c2.5,0,4-1.2,5.2-2.8V91c0,3-1.9,4.8-4.9,4.8c-1.9,0-3.6-0.5-5.1-1.7l-0.9,1.6
			c1.8,1.1,3.8,1.9,5.9,1.9s3.8-0.5,5.1-1.8c1-1,1.7-2.7,1.7-4.8V80.1H123v2.4c-1-1.3-2.7-2.7-5.2-2.7c-3.1,0-6.2,2.4-6.2,6.2l0,0
			C111.8,89.7,114.8,92.2,117.9,92.2z M113.7,85.9c0-2.7,2.2-4.5,4.7-4.5c2.5,0,5,1.8,5,4.5l0,0c0,2.7-2.4,4.5-5,4.5
			C115.8,90.5,113.7,88.6,113.7,85.9L113.7,85.9z M134.7,79.7c-2.3,0-3.6,1.1-4.7,2.6v-7.8H128v18.8h2.1v-7.7c0-2.5,1.7-4,3.9-4
			c2.4,0,3.6,1.6,3.6,3.9v7.8h2.1v-8.2C139.8,81.8,137.8,79.7,134.7,79.7z M162.5,91.4h-11v-6.3h9.6v-1.9h-9.6v-6.1h10.9v-1.9h-12.9
			V93h13.2v-1.8h-0.2L162.5,91.4L162.5,91.4z M174.5,85.6v7.8h2.1v-8.2c0-3.1-1.9-5.3-5.1-5.3c-2.3,0-3.6,1.1-4.7,2.6v-2.4h-2.1
			v13.3h2.1v-7.7c0-2.5,1.7-4,3.9-4C173.2,81.5,174.5,83.1,174.5,85.6z M184.9,93.6c2.5,0,3.9-1.3,5.1-2.9v2.7h2.1V74.5H190v8
			c-1-1.6-2.6-2.8-5.1-2.8c-3.1,0-6.3,2.6-6.3,6.8l0,0C178.6,91.1,181.8,93.6,184.9,93.6z M180.7,86.5c0-3.1,2.2-5.1,4.8-5.1
			c2.5,0,4.9,2.1,4.9,5.1l0,0c0,3-2.4,5.2-4.9,5.2C182.8,91.7,180.7,89.7,180.7,86.5L180.7,86.5z M97.7,111.4l6.8-7.1v-3.4H88.2v3.7
			H99l-6.6,7.1l0.6,2.7h2.1c3.5,0,5.7,1.3,5.7,3.8v0.1c0,2.3-1.9,3.7-4.4,3.7c-2.8,0-4.9-1.1-6.5-3.2l-3,2.8
			c2.2,2.6,5.2,4.4,9.4,4.4c5.2,0,8.7-3.2,8.7-7.9V118C105,113.8,101.4,111.9,97.7,111.4z M117.9,100.9h-9.2v24.9h9.2
			c7.9,0,13.3-5.4,13.3-12.3v-0.1C131.1,106.3,125.7,100.9,117.9,100.9z M126.5,113.6c0,5-3.4,8.4-8.7,8.4h-5v-16.9h5
			C123.1,105,126.5,108.6,126.5,113.6L126.5,113.6z M155.7,112.9l-7.7-11.7h-4.8v24.9h4.4v-17.7l7.8,11.7h0.1l7.9-11.7v17.7h4.4
			v-25.2h-4.8L155.7,112.9z M184.6,100.6c-7.7,0-13.1,5.8-13.1,12.9v0.1c0,7,5.4,12.8,13.1,12.8c7.7,0,13.1-5.8,13.1-12.9v-0.1
			C197.4,106.3,192.1,100.6,184.6,100.6z M192.9,113.6c0,4.9-3.4,8.8-8.4,8.8c-5,0-8.4-3.9-8.4-8.9v-0.1c0-4.9,3.4-8.8,8.4-8.8
			C189.3,104.7,192.9,108.6,192.9,113.6L192.9,113.6z M210.3,100.9H201v24.9h9.2c7.9,0,13.3-5.4,13.3-12.3v-0.1
			C223.5,106.3,218.1,100.9,210.3,100.9z M218.9,113.6c0,5-3.4,8.4-8.7,8.4h-5v-16.9h5C215.5,105,218.9,108.6,218.9,113.6
			L218.9,113.6z M231.5,115.2h12.3v-3.8h-12.3V105h14.1v-4.1h-18.4v24.9h18.6V122h-14.3V115.2z M253.4,100.9h-4.4v24.9h17.4v-3.9
			h-13.2v-21H253.4z M278.9,111.5c-4.9-1.1-5.8-2.1-5.8-3.8v-0.1c0-1.7,1.6-2.9,4-2.9c2.3,0,4.7,0.9,6.7,2.6l2.4-3.2
			c-2.6-2.1-5.4-3.1-9-3.1c-5,0-8.5,2.9-8.5,7.4v0.1c0,4.7,2.9,6.1,8.3,7.5c4.7,1,5.6,2.1,5.6,3.7v0.1c0,1.9-1.8,3.1-4.5,3.1
			c-3,0-5.5-1.1-7.9-3.2l-2.6,3.1c2.9,2.7,6.5,3.9,10.5,3.9c5.3,0,8.9-2.8,8.9-7.5V119C286.8,114.7,284.1,112.7,278.9,111.5z"/>
	</g>
</g>
</svg>
