<?xml version="1.0" encoding="utf-8"?>
<!-- Generator: Adobe Illustrator 21.0.0, SVG Export Plug-In . SVG Version: 6.00 Build 0)  -->
<svg version="1.1" id="Layer_1" xmlns="http://www.w3.org/2000/svg" xmlns:xlink="http://www.w3.org/1999/xlink" x="0px" y="0px"
	 viewBox="0 0 300 200" style="enable-background:new 0 0 300 200;" xml:space="preserve">
<style type="text/css">
	.st0{fill:#FFFFFF;}
</style>
<g>
	<path class="st0" d="M35,58.7h8.1v29.5h18.4v7.4H35V58.7z"/>
	<path class="st0" d="M74.5,77.2L74.5,77.2c0-10.6,8.3-19.1,19.7-19.1s19.6,8.5,19.6,19v0.1c0,10.5-8.3,19-19.7,19
		C82.6,96.3,74.5,87.7,74.5,77.2z M105.2,77.2L105.2,77.2c0-6.4-4.6-11.7-11.1-11.7S83,70.7,83,77v0.1c0,6.3,4.6,11.6,11.1,11.6
		C100.6,88.7,105.2,83.6,105.2,77.2z"/>
	<path class="st0" d="M129.8,77.2L129.8,77.2c0-10.6,8.2-19.1,19.3-19.1c6.6,0,10.7,1.7,14.5,5.1l-5.2,6.2c-2.9-2.4-5.3-3.8-9.7-3.8
		c-5.9,0-10.6,5.2-10.6,11.5v0.1c0,6.7,4.6,11.7,11.1,11.7c2.9,0,5.6-0.7,7.6-2.2v-5.2h-8.2v-7h16v16c-3.8,3.2-9,5.9-15.7,5.9
		C137.7,96.3,129.8,88.2,129.8,77.2z"/>
	<path class="st0" d="M181.6,77.2L181.6,77.2c0-10.6,8.3-19.1,19.7-19.1c11.4,0,19.5,8.5,19.5,19v0.1c0,10.5-8.3,19-19.7,19
		C189.8,96.3,181.6,87.7,181.6,77.2z M212.4,77.2L212.4,77.2c0-6.4-4.6-11.7-11.1-11.7s-11,5.2-11,11.5v0.1
		c0,6.3,4.6,11.6,11.1,11.6C207.9,88.7,212.4,83.6,212.4,77.2z"/>
	<path class="st0" d="M235.8,90.2l4.8-5.7c3.3,2.8,6.8,4.5,11,4.5c3.3,0,5.3-1.3,5.3-3.5v-0.1c0-2-1.3-3.1-7.5-4.7
		c-7.5-1.9-12.2-4-12.2-11.3v-0.1c0-6.7,5.3-11.1,12.9-11.1c5.3,0,9.9,1.7,13.7,4.7l-4.2,6.1c-3.3-2.3-6.4-3.7-9.6-3.7
		c-3.1,0-4.8,1.4-4.8,3.2v0.1c0,2.4,1.6,3.2,8,4.9c7.5,1.9,11.7,4.6,11.7,11v0.1c0,7.4-5.6,11.4-13.5,11.4
		C245.9,96.1,240.3,94.1,235.8,90.2z"/>
</g>
<g>
	<path class="st0" d="M45,140l1.1-1.4c1,1,2.1,1.4,3.5,1.4c1.2,0,2-0.6,2-1.4l0,0c0-0.8-0.5-1.2-2.5-1.7c-2.4-0.6-3.7-1.2-3.7-3.3
		l0,0c0-1.9,1.6-3.2,3.8-3.2c1.6,0,3,0.5,4,1.4l-1,1.5c-1-0.8-2-1.1-3.1-1.1c-1.1,0-1.8,0.6-1.8,1.3l0,0c0,0.9,0.5,1.2,2.7,1.7
		c2.4,0.6,3.6,1.4,3.6,3.2l0,0c0,2.1-1.6,3.3-4,3.3C48,141.8,46.3,141.2,45,140z"/>
	<path class="st0" d="M55,137.4L55,137.4c0-2.5,1.7-4.4,4.1-4.4c2.7,0,4,2.1,4,4.5c0,0.2,0,0.4,0,0.6h-6.2c0.2,1.3,1.1,2.1,2.4,2.1
		c1,0,1.6-0.4,2.3-1.1l1.1,1.1c-0.8,1-1.9,1.6-3.4,1.6C56.8,141.8,55,140,55,137.4z M61.2,136.9c-0.1-1.2-0.9-2.2-2.1-2.2
		c-1.1,0-2,1-2.2,2.2H61.2z"/>
	<path class="st0" d="M64.9,130h1.9v11.6h-1.9V130z"/>
	<path class="st0" d="M68.6,137.4L68.6,137.4c0-2.5,1.7-4.4,4.1-4.4c2.7,0,4,2.1,4,4.5c0,0.2,0,0.4,0,0.6h-6.2
		c0.2,1.3,1.1,2.1,2.4,2.1c1,0,1.6-0.4,2.3-1.1l1.1,1.1c-0.8,1-1.9,1.6-3.4,1.6C70.4,141.8,68.6,140,68.6,137.4z M74.8,136.9
		c-0.1-1.2-0.9-2.2-2.1-2.2c-1.1,0-2,1-2.2,2.2H74.8z"/>
	<path class="st0" d="M77.8,137.4L77.8,137.4c0-2.4,1.8-4.4,4.4-4.4c1.6,0,2.6,0.6,3.3,1.4l-1.2,1.3c-0.6-0.7-1.2-1.1-2.2-1.1
		c-1.4,0-2.4,1.2-2.4,2.7l0,0c0,1.5,1,2.7,2.5,2.7c1,0,1.6-0.5,2.2-1.1l1.1,1.1c-0.9,1-1.8,1.6-3.4,1.6
		C79.7,141.8,77.8,139.8,77.8,137.4z"/>
	<path class="st0" d="M87.5,139.3V135h-1v-1.7h1v-2.3h1.9v2.3h2.3v1.6h-2.3v4.1c0,0.8,0.4,1.1,1,1.1c0.5,0,0.9-0.1,1.2-0.3v1.6
		c-0.5,0.3-1.1,0.5-1.7,0.5C88.5,141.8,87.5,141.2,87.5,139.3z"/>
	<path class="st0" d="M92.6,137.4L92.6,137.4c0-2.5,1.7-4.4,4.1-4.4c2.7,0,4,2.1,4,4.5c0,0.2,0,0.4,0,0.6h-6.2
		c0.2,1.3,1.1,2.1,2.4,2.1c1,0,1.6-0.4,2.3-1.1l1.1,1.1c-0.8,1-1.9,1.6-3.4,1.6C94.5,141.8,92.6,140,92.6,137.4z M98.8,136.9
		c-0.1-1.2-0.9-2.2-2.1-2.2c-1.1,0-2,1-2.2,2.2H98.8z"/>
	<path class="st0" d="M102,137.4L102,137.4c0-2.9,1.9-4.4,3.9-4.4c1.4,0,2.3,0.7,2.9,1.5v-4.5h1.9v11.6h-1.9v-1.4
		c-0.7,0.9-1.5,1.6-2.9,1.6C103.9,141.8,102,140.2,102,137.4z M108.8,137.4L108.8,137.4c0-1.6-1.1-2.8-2.5-2.8s-2.4,1.1-2.4,2.7l0,0
		c0,1.6,1.1,2.7,2.4,2.7C107.6,140.1,108.8,139.1,108.8,137.4z"/>
	<path class="st0" d="M117.7,134.9h-1.1v-1.6h1.1v-0.6c0-1,0.3-1.6,0.7-2.1c0.5-0.5,1.1-0.7,1.9-0.7c0.7,0,1.1,0.1,1.5,0.2v1.6
		c-0.4-0.1-0.8-0.2-1.1-0.2c-0.8,0-1.1,0.4-1.1,1.2v0.5h2.2v1.6h-2.2v6.8h-1.9v-6.8H117.7z"/>
	<path class="st0" d="M123,133.2h1.9v1.9c0.6-1.2,1.5-2.1,3-2.1v2h-0.1c-1.7,0-2.9,1.1-2.9,3.3v3.2H123V133.2z"/>
	<path class="st0" d="M128.4,137.4L128.4,137.4c0-2.5,1.9-4.4,4.5-4.4c2.6,0,4.5,2,4.5,4.4l0,0c0,2.4-1.9,4.4-4.5,4.4
		C130.3,141.8,128.4,139.8,128.4,137.4z M135.5,137.4L135.5,137.4c0-1.5-1.1-2.8-2.6-2.8c-1.5,0-2.6,1.2-2.6,2.7l0,0
		c0,1.4,1.1,2.7,2.6,2.7C134.5,140.1,135.5,139,135.5,137.4z"/>
	<path class="st0" d="M139.1,133.2h1.9v1.2c0.6-0.8,1.2-1.4,2.6-1.4c1.2,0,2.1,0.6,2.5,1.5c0.7-0.9,1.6-1.5,2.9-1.5
		c1.8,0,3,1.1,3,3.2v5.3H150v-4.8c0-1.3-0.7-2.1-1.7-2.1s-1.8,0.8-1.8,2.1v4.8h-1.9v-4.8c0-1.3-0.7-2-1.7-2s-1.8,0.8-1.8,2.1v4.8
		h-1.9L139.1,133.2L139.1,133.2z"/>
	<path class="st0" d="M158,140.1l3.8-3.2c1.5-1.3,2.1-2,2.1-3.1c0-1.1-0.8-1.7-1.8-1.7c-1.1,0-1.7,0.6-2.6,1.7l-1.4-1.1
		c1.1-1.5,2.1-2.4,4.1-2.4c2.2,0,3.7,1.3,3.7,3.3l0,0c0,1.7-1,2.7-2.9,4.3l-2.3,1.9h5.3v1.7H158L158,140.1L158,140.1z"/>
	<path class="st0" d="M167.6,136.1L167.6,136.1c0-3.2,1.9-5.8,4.9-5.8c3,0,4.9,2.6,4.9,5.7l0,0c0,3.1-1.9,5.8-4.9,5.8
		C169.5,141.8,167.6,139.3,167.6,136.1z M175.3,136.1L175.3,136.1c0-2.2-1.1-4-2.9-4c-1.7,0-2.9,1.7-2.9,4l0,0c0,2.2,1.1,4,2.9,4
		C174.1,140,175.3,138.3,175.3,136.1z"/>
	<path class="st0" d="M180.6,132.4l-2,0.6l-0.4-1.6l3-1h1.3v11.3h-1.9V132.4z"/>
	<path class="st0" d="M190.4,139.2h-5.6l-0.4-1.4l6.2-7.4h1.7v7.2h1.6v1.6h-1.6v2.5h-1.9L190.4,139.2L190.4,139.2z M190.4,137.5
		v-4.4l-3.6,4.4H190.4z"/>
	<path class="st0" d="M200.5,139.3V135h-1.1v-1.7h1.1v-2.3h1.9v2.3h2.3v1.6h-2.3v4.1c0,0.8,0.4,1.1,1.1,1.1c0.5,0,0.9-0.1,1.2-0.3
		v1.6c-0.5,0.3-1.1,0.5-1.7,0.5C201.4,141.8,200.5,141.2,200.5,139.3z"/>
	<path class="st0" d="M205.6,137.4L205.6,137.4c0-2.5,1.9-4.4,4.5-4.4s4.5,2,4.5,4.4l0,0c0,2.4-1.9,4.4-4.5,4.4
		S205.6,139.8,205.6,137.4z M212.6,137.4L212.6,137.4c0-1.5-1.1-2.8-2.6-2.8c-1.5,0-2.6,1.2-2.6,2.7l0,0c0,1.4,1.1,2.7,2.6,2.7
		C211.7,140.1,212.6,139,212.6,137.4z"/>
	<path class="st0" d="M220.3,140.1l3.8-3.2c1.5-1.3,2.1-2,2.1-3.1c0-1.1-0.8-1.7-1.8-1.7s-1.7,0.6-2.6,1.7l-1.4-1.1
		c1.1-1.5,2.1-2.4,4.1-2.4c2.2,0,3.7,1.3,3.7,3.3l0,0c0,1.7-1,2.7-2.9,4.3l-2.3,1.9h5.3v1.7h-8.1L220.3,140.1L220.3,140.1z"/>
	<path class="st0" d="M229.8,136.1L229.8,136.1c0-3.2,1.9-5.8,4.9-5.8s4.9,2.6,4.9,5.7l0,0c0,3.1-1.9,5.8-4.9,5.8
		S229.8,139.3,229.8,136.1z M237.5,136.1L237.5,136.1c0-2.2-1.1-4-2.9-4s-2.9,1.7-2.9,4l0,0c0,2.2,1.1,4,2.9,4
		C236.5,140,237.5,138.3,237.5,136.1z"/>
	<path class="st0" d="M242.9,132.4l-2,0.6l-0.4-1.6l3-1h1.3v11.3h-1.9V132.4z"/>
	<path class="st0" d="M252.8,132.2h-5.6v-1.7h7.8v1.5l-5.1,9.6h-2.2L252.8,132.2z"/>
</g>
<rect x="120" y="111.4" class="st0" width="60" height="3"/>
</svg>
