<svg id="Layer_1" xmlns="http://www.w3.org/2000/svg" width="81" height="60.3" viewBox="-20.481 -10.135 81 60.3"><style>.st0{fill:#fff}</style><path class="st0" d="M57.259-10.022c-1.202-.1-2.303-.1-3.505-.1H-7.535c-.901 0-1.903.1-2.804 0-1.102-.1-1.602.401-1.702 1.502-.601 4.006-1.202 7.911-1.903 11.917-.401 2.704-.801 5.408-1.302 8.212h4.206c3.004 0 3.004 0 3.806 2.904.701 2.604 1.402 5.107 2.203 8.012.801-1.001 1.302-1.702 1.903-2.403 1.803-2.403 3.605-4.907 5.508-7.311.501-.601 1.302-1.202 2.003-1.202 5.408-.1 10.816-.1 16.224-.1 1.903 0 3.605.501 4.006 3.004 2.504-2.904 5.608-3.705 9.013-3.405 2.303.2 4.607.2 6.81.2 2.403.1 3.605 1.302 3.605 3.605-.1 3.205-.2 3.305-3.505 3.205-.501 0-1.102-.1-1.602-.1.1-.1.2-.3.3-.401-.601-.601-1.202-1.602-1.803-1.602-2.103-.2-4.306-.2-6.509.1-.901.1-2.103.801-2.303 1.502-.601 1.602-.901 3.405-1.102 5.208-.2 1.402.601 2.303 2.003 2.303 2.203 0 4.306.1 6.509-.1.601 0 1.102-.601 1.702-.901-.1-.2-.1-.401-.2-.501h-2.103c-.801 0-1.502 0-1.402-1.102.1-1.001-.2-2.203 1.302-2.203h6.309c1.102 0 1.402.601 1.202 1.502-.3 1.402-.601 2.804-1.001 4.206-.701 2.303-2.704 3.705-5.107 3.806h-8.512c-2.403 0-4.707 0-6.209-2.303-1.602 1.602-3.405 2.203-5.408 2.203-3.605 0-7.11.1-10.716.1H1.88c.801-4.206 1.602-8.012 2.403-12.218-.602.702-.902 1.103-1.203 1.603-2.403 3.205-4.807 6.409-7.11 9.714-.901 1.202-2.103 1.102-3.104.901-.501-.1-1.102-1.001-1.302-1.602-1.102-3.405-2.103-6.81-3.104-10.215h-.401c-.701 3.305-1.502 6.61-2.003 9.914-.3 1.502-.801 2.303-2.403 2.003-1.402-.2-1.803.401-2.003 1.702-.601 4.607-1.402 9.313-2.003 13.92-.501 3.705.401 4.707 4.006 4.607 14.821-.1 29.643 0 44.364 0 7.311 0 14.621 0 21.832.1 1.402 0 1.903-.401 2.103-1.803 2.003-13.219 4.106-26.338 6.209-39.557.801-4.907 1.502-9.814 2.303-14.721.3-2.803-.602-4.005-3.205-4.105zM7.887 25.429c3.004 0 5.909.1 8.913-.1.601 0 1.001-1.302 1.502-2.003-.501-.3-1.102-.901-1.602-.901-2.003-.1-4.106 0-6.209-.1-2.604-.1-2.904.2-2.604 3.104zm9.514-6.91c1.202 0 1.602-.801 1.702-1.903.1-1.202-.901-1.001-1.702-1.001h-5.508c-2.504 0-2.504 0-2.804 2.904h8.312z" id="MBG"/></svg>