<svg id="Layer_1" xmlns="http://www.w3.org/2000/svg" viewBox="0 0 127.6 127.6"><style>.st0{fill:#bababa}.st1{fill:#79c484}.st2{fill:#010101}</style><path class="st0" d="M122.5 98H5.5c-.8 0-1.5.7-1.5 1.5s.7 1.5 1.5 1.5h117c.8 0 1.5-.7 1.5-1.5s-.7-1.5-1.5-1.5z" id="Rounded_Rectangle_7_4_"/><path class="st0" d="M20.2 79.4l-1.1-1L8.7 88.9l1.4 1.4 9.1-9.1 10.2 10.3.9-.8 4.8-4.8v-2.8l-5.7 5.7-9.2-9.4zm87.7-1l-1 1-9.1 9.3L87 78.1v2.8l9.8 9.8.9.8 10.2-10.3 9.1 9.1 1.4-1.4-10.5-10.5z" id="Rectangle_32_2_"/><circle class="st1" cx="24" cy="72" r="5" id="Ellipse_9_copy_3_2_"/><path class="st2" d="M62 32v14h3V35h41v28H94v3h15V32z" id="Rectangle_30_2_"/><path class="st2" d="M96.5 63h-3c-.8 0-1.5.7-1.5 1.5s.7 1.5 1.5 1.5h3c.8 0 1.5-.7 1.5-1.5s-.7-1.5-1.5-1.5z" id="Rounded_Rectangle_16_2_"/><path class="st2" d="M63.5 42c-.8 0-1.5.7-1.5 1.5v3c0 .8.7 1.5 1.5 1.5s1.5-.7 1.5-1.5v-3c0-.8-.7-1.5-1.5-1.5z" id="Rounded_Rectangle_16_copy_2_"/><path class="st1" d="M106 48.3l-3-3.1-1.1 1.1-7.6 7.7-13.5-13.5-1.1 1.2v-.1L70 50l2 1 8.8-7.7 12.1 12.1v.1l1.5 1.4 8.5-8.8 3.1 3.1z" id="Rectangle_31_2_"/><path class="st0" d="M105 28H66c-.6 0-1 .4-1 1s.4 1 1 1h39c.6 0 1-.4 1-1s-.4-1-1-1z" id="Rounded_Rectangle_12_2_"/><path class="st0" d="M102 24H69c-.6 0-1 .4-1 1s.4 1 1 1h33c.6 0 1-.4 1-1s-.4-1-1-1z" id="Rounded_Rectangle_13_2_"/><path class="st0" d="M94 38c-2.8 0-5 2.2-5 5s2.2 5 5 5 5-2.2 5-5-2.2-5-5-5zm0 8c-1.7 0-3-1.3-3-3s1.3-3 3-3 3 1.3 3 3-1.3 3-3 3z" id="Ellipse_9_copy_2_2_"/><path class="st2" d="M83 58H70.4L67 53H55l-3.4 5H39c-2.2 0-4 1.8-4 4v25c0 2.2 1.8 4 4 4h44c2.2 0 4-1.8 4-4V62c0-2.2-1.8-4-4-4zm1 28c0 1.1-.9 2-2 2H40c-1.1 0-2-.9-2-2V63c0-1.1.9-2 2-2h13.7l3.4-5h7.8l3.5 5H82c1.1 0 2 .9 2 2v23z" id="photocam_2_"/><path class="st1" d="M47.5 53h-5c-.8 0-1.5.7-1.5 1.5s.7 1.5 1.5 1.5h5c.8 0 1.5-.7 1.5-1.5s-.7-1.5-1.5-1.5z" id="Rounded_Rectangle_11_2_"/><path class="st0" d="M61 62c-6.6 0-12 5.4-12 12s5.4 12 12 12 12-5.4 12-12-5.4-12-12-12zm0 21c-5 0-9-4-9-9s4-9 9-9 9 4 9 9-4 9-9 9z" id="Ellipse_9_copy_2_"/><circle class="st1" cx="78.5" cy="66.5" r="2.5" id="Ellipse_8_2_"/><path class="st2" d="M61 88c-1.1 0-2 .9-2 2v12c0 1.1.9 2 2 2s2-.9 2-2V90c0-1.1-.9-2-2-2z" id="Rounded_Rectangle_14_2_"/><path class="st2" d="M56 91c0 1.4 1.1 3 2.5 3h5c1.4 0 2.5-1.6 2.5-3H56z" id="Rounded_Rectangle_15_2_"/><circle class="st0" cx="54.5" cy="38.5" r="2.5" id="Ellipse_7_12_"/><circle class="st0" cx="47.5" cy="45.5" r="2.5" id="Ellipse_7_copy_3_12_"/><circle class="st1" cx="54.5" cy="45.5" r="1.5" id="Ellipse_7_copy_12_"/><circle class="st0" cx="47.5" cy="38.5" r="1.5" id="Ellipse_7_copy_4_12_"/><circle class="st1" cx="54.5" cy="31.5" r="1.5" id="Ellipse_7_copy_2_12_"/><circle class="st1" cx="40.5" cy="45.5" r="1.5" id="Ellipse_7_copy_5_12_"/></svg>