<svg id="Layer_1" xmlns="http://www.w3.org/2000/svg" width="60" height="59.98" viewBox="-9.92 -9.99 60 59.98"><style>.st0{fill:#fff}</style><path class="st0" d="M23.786-9.766C7.404-11.764-7.579-.177-9.676 16.304c-2.098 16.381 9.589 31.364 26.07 33.462 16.381 1.998 31.364-9.589 33.462-26.07 1.998-16.382-9.589-31.365-26.07-33.462zm22.075 32.962C44.063 37.38 31.077 47.569 16.893 45.771 2.71 43.973-7.479 30.988-5.681 16.804S9.102-7.569 23.286-5.771C37.57-3.973 47.659 9.012 45.861 23.196zM33.774 1.221C28.88-2.375 22.987-3.773 17.293-3.074c-.1.1-.1.2-.2.3-3.096 4.295-4.495 9.289-4.395 14.184 6.892-2.397 14.883-1.498 21.276 3.196 4.195 3.096 7.092 7.292 8.49 11.887 2.598-9.19-.599-19.378-8.69-25.272zm-2.497 16.681c-1.398 7.192-6.193 13.585-13.385 16.881a22.771 22.771 0 0 1-14.484 1.398c6.593 6.792 16.981 9.19 26.17 5.094 5.594-2.497 9.689-6.892 11.887-12.086 0-.1-.1-.2-.1-.3-2.197-4.894-5.793-8.689-10.088-10.987zM16.394 30.688c-5.494-4.795-8.69-12.186-7.891-19.977C9.002 5.516 11.2.922 14.496-2.574a23.268 23.268 0 0 0-17.48 20.077c-.599 6.093 1.099 11.887 4.495 16.381h.4c5.293.6 10.288-.599 14.483-3.196zm3.696-2.697c3.396-3.096 5.793-7.192 6.892-11.887-4.395-1.398-9.19-1.498-13.784 0 .999 4.395 3.396 8.591 6.892 11.887z" id="Pulla"/></svg>