<?xml version="1.0" encoding="utf-8"?>
<!-- Generator: Adobe Illustrator 20.1.0, SVG Export Plug-In . SVG Version: 6.00 Build 0)  -->
<svg version="1.1" id="Layer_1" xmlns="http://www.w3.org/2000/svg" xmlns:xlink="http://www.w3.org/1999/xlink" x="0px" y="0px"
	 viewBox="0 0 300 200" style="enable-background:new 0 0 300 200;" xml:space="preserve">
<style type="text/css">
	.st0{fill:#FFFFFF;}
</style>
<g>
	<path class="st0" d="M45.9,105.4h-9.9v10.3h-6.6V80.6c5.5,0,11,0,16.5,0C63,80.6,63.1,105.4,45.9,105.4z M35.9,99.3h9.9
		c8.5,0,8.4-12.4,0-12.4h-9.9V99.3z"/>
</g>
<g>
	<path class="st0" d="M96.3,80.7v20.1c0,10.4-6.4,15.7-15.2,15.7c-8.4,0-15.6-5.1-15.6-15.7V80.7h6.6v20.1c0,6.3,3.6,9.7,9.1,9.7
		c5.5,0,8.6-3.7,8.6-9.7V80.7H96.3z"/>
</g>
<g>
	<path class="st0" d="M109.7,80.6v29h18.1v6.1h-24.7V80.6H109.7z"/>
</g>
<g>
	<path class="st0" d="M141.1,80.6v29h18.1v6.1h-24.7V80.6H141.1z"/>
</g>
<g>
	<g>
		<g>
			<g>
				<path class="st0" d="M212.7,94.8c-1.9,15.6,9.1,29.8,24.7,31.7c15.6,1.9,29.8-9.1,31.7-24.7C271,86.2,260,72,244.4,70.1
					C228.8,68.2,214.6,79.2,212.7,94.8z M216.4,95.3c1.7-13.5,14-23.1,27.5-21.4c13.5,1.7,23.1,14,21.4,27.5
					c-1.7,13.5-14,23.1-27.5,21.4C224.3,121.1,214.7,108.8,216.4,95.3z"/>
			</g>
		</g>
	</g>
	<path class="st0" d="M233.8,90.1c-0.1-4.7,1.3-9.4,4.2-13.4c0.1-0.1,0.1-0.2,0.2-0.3c5.3-0.6,10.9,0.6,15.6,4
		c7.7,5.6,10.7,15.3,8.2,23.9c-1.4-4.4-4.1-8.3-8.1-11.2C247.9,88.7,240.4,87.9,233.8,90.1z"/>
	<path class="st0" d="M238.8,112.2c6.8-3,11.4-9.1,12.7-16c4.1,2.2,7.5,5.8,9.5,10.4c0,0.1,0.1,0.2,0.1,0.3
		c-2.1,4.9-6,9.1-11.3,11.5c-8.7,3.9-18.6,1.7-24.8-4.8C229.5,114.6,234.3,114.3,238.8,112.2z"/>
	<path class="st0" d="M219,96c1-9.5,7.9-16.9,16.6-19.1c-3.1,3.4-5.2,7.7-5.7,12.6c-0.8,7.4,2.2,14.4,7.5,19
		c-4,2.4-8.8,3.6-13.7,3.1c-0.1,0-0.2,0-0.3,0C220.1,107.2,218.4,101.7,219,96z"/>
	<path class="st0" d="M247.4,94.6c-1,4.5-3.3,8.3-6.5,11.3c-3.4-3.1-5.6-7.1-6.5-11.3C238.7,93.2,243.3,93.3,247.4,94.6z"/>
</g>
<path class="st0" d="M197.4,115.7h7.2l-19.4-35.1l-19.4,35.1h7.2l3.6-6.7h17.2L197.4,115.7z M179.9,102.9l5.4-10.1l5.4,10.1H179.9z"
	/>
</svg>
