<svg id="Layer_1" xmlns="http://www.w3.org/2000/svg" width="138" height="58.3" viewBox="-49 -9.158 138 58.3"><style>.st0{fill:#fff}</style><path class="st0" d="M1 30.542l14.9-22.1v22.1h6l15.6-22.9v22.9h6.7v-36.7h-5.1l-15.8 22.9v-22.9h-4.8l-25 36.7H1zm88-36.7h-8.2l-8.3 12.5-8.1-12.5h-8.2l12.3 18.3-2.1 3.1L52-6.158h-5.6l.1 36.7h6.7v-9.9h8.2l.7.8-6 9.1h7.5l2.5-3.4 2.7 3.4H77l-6.8-9.5 2.1-3.1 8.4 12.6h8.2l-12.6-18.4L89-6.158zm-35.8 19.9v-6.9l4.5 6.9h-4.5zm-95.5 4.5l9.7 12.2h11.9l4.9-7-1.9.1v-9.2h8.2l2.3-3.5v-2.6h-10.5v-7.6h10.4v-6.9h-17.1v34.4l-9.4-10.5c4.8-1.5 7.9-6.2 7.9-11.7 0-6.7-4.7-12.2-11.2-12.2H-49v36.7h6.7v-12.2zm0-17.5h4.5c2.8 0 5.2 2.4 5.2 5.3s-1.7 5.3-4.5 5.3h-5.2V.742zm35.1 25.2l-3 4.6h3v-4.6zm14.9-35.1l-28.3 42h7.5l27.6-42H7.7zm-51.3 51.6c.4-.1.7-.3.9-.4.3-.2.5-.4.7-.7.2-.2.3-.5.4-.8.1-.3.2-.6.2-1s-.1-.8-.2-1.2c-.1-.4-.4-.7-.7-.9-.3-.3-.7-.5-1.2-.6-.5-.1-1.1-.2-1.8-.2h-3.1v10.1h1.9v-4h.8c.2 0 .3 0 .4.1.1.1.2.1.3.3l2.1 3.2.3.3c.1.1.3.1.4.1h1.7l-2.5-3.7c-.2-.3-.4-.5-.6-.6zm-.8-1.1c-.3.1-.6.1-.9.1h-1.2v-3.4h1.2c.7 0 1.2.1 1.6.4.3.3.5.7.5 1.2 0 .3 0 .5-.1.7-.1.2-.2.4-.4.6-.2.2-.4.3-.7.4zm9.8-1c-.3-.3-.6-.5-1-.6-.4-.1-.8-.2-1.2-.2-.5 0-1 .1-1.4.3-.4.2-.8.4-1.1.8-.3.3-.5.7-.7 1.1s-.2.9-.2 1.4c0 .6.1 1.2.3 1.7.2.5.4.9.7 1.2s.7.6 1.1.7c.4.1.9.2 1.4.2.3 0 .5 0 .8-.1.3 0 .5-.1.8-.2.3-.1.5-.2.7-.4.2-.2.5-.3.6-.6l-.5-.6c0-.1-.1-.1-.1-.1h-.2c-.1 0-.2 0-.3.1-.1.1-.2.1-.4.2s-.3.2-.5.2c-.2.1-.4.1-.7.1-.6 0-1-.2-1.4-.5-.3-.3-.5-.9-.6-1.6H-33.9c.1 0 .1-.1.1-.1s.1-.1.1-.2v-.3c0-.5-.1-1-.2-1.4-.2-.5-.4-.8-.7-1.1zm-3.9 2c.1-.5.3-.9.5-1.2.3-.3.7-.4 1.2-.4.3 0 .5 0 .7.1.2.1.3.2.5.4.1.1.2.3.3.5.1.2.1.4.1.6h-3.3zm10.7-2.1c-.2-.2-.5-.4-.8-.6-.3-.1-.7-.2-1.1-.2-1.2 0-2.2.4-3 1.1l.3.6c.1.1.1.2.2.2.1.1.2.1.3.1s.3 0 .4-.1c.1-.1.2-.1.4-.2.1-.1.3-.2.5-.2.2-.1.4-.1.7-.1.4 0 .7.1.9.3.2.2.3.6.3 1.1v.4c-.8 0-1.5.1-2.1.2-.6.1-1 .3-1.3.5-.3.2-.6.5-.7.7-.1.3-.2.5-.2.8 0 .3.1.6.2.8.1.2.2.4.4.6.2.2.4.3.7.4.3.1.5.1.8.1.3 0 .5 0 .7-.1.2 0 .4-.1.6-.2.2-.1.4-.2.5-.3.2-.1.4-.3.5-.4l.2.5c0 .1.1.2.2.3.1 0 .2.1.4.1h.8v-4.5c0-.4-.1-.8-.2-1.1-.2-.3-.4-.6-.6-.8zm-1 4.7c-.1.1-.3.2-.4.3-.1.1-.3.2-.4.2-.1 0-.3.1-.4.1h-.5c-.3 0-.5-.1-.7-.2-.2-.1-.3-.4-.3-.7 0-.2 0-.3.1-.4.1-.1.2-.2.4-.3s.5-.2.8-.2c.3-.1.8-.1 1.3-.1v1.3h.1zm3.1 1.8h1.7v-10.4h-1.7v10.4zm5.7 0h6.4v-1.5h-4.5v-2.9h3.5v-1.4h-3.5v-2.8h4.5v-1.5H-20v10.1zm11.6-3.5c-.2-.1-.4-.3-.6-.4l-.6-.3c-.2-.1-.4-.1-.6-.2-.2-.1-.4-.1-.6-.2-.2-.1-.3-.2-.4-.3-.1-.1-.2-.2-.2-.4s.1-.4.3-.6c.2-.1.5-.2.8-.2.2 0 .4 0 .6.1.2 0 .3.1.4.2.1.1.2.1.3.2.1 0 .2.1.3.1h.2c.1 0 .1-.1.1-.2l.4-.6c-.3-.3-.6-.5-1-.6-.4-.2-.9-.2-1.4-.2-.4 0-.8.1-1.2.2-.3.1-.6.3-.8.5-.2.2-.4.4-.5.7-.1.3-.2.5-.2.8 0 .3.1.6.2.8.1.2.2.4.4.6.2.2.4.3.6.4.2.1.4.2.7.3.2.1.4.1.7.2.2.1.4.1.6.2.2.1.3.2.4.3.1.1.2.2.2.4 0 .1 0 .2-.1.3 0 .1-.1.2-.2.3-.1.1-.2.1-.4.2-.1 0-.3.1-.5.1-.3 0-.5 0-.6-.1-.2-.1-.3-.1-.4-.2-.1-.1-.2-.1-.3-.2s-.2-.1-.3-.1-.2 0-.3.1c-.1 0-.1.1-.2.2l-.4.7c.1.1.3.2.5.4l.6.3c.2.1.4.1.7.2.2 0 .5.1.7.1.5 0 .9-.1 1.2-.2.4-.1.7-.3.9-.5.2-.2.4-.5.6-.8.1-.3.2-.6.2-1 0-.3-.1-.5-.2-.7-.1-.2-.4-.8-.6-.9zm5.2 2h-.2l-.1.1c-.1 0-.1.1-.2.1H-4c-.2 0-.3-.1-.4-.2-.1-.1-.2-.3-.2-.5v-3.9h1.9v-1.2h-1.9v-2.3h-.9c-.1 0-.2 0-.3.1s-.1.1-.1.2l-.4 2-1.2.2v.7c0 .1 0 .2.1.3.1.1.1.1.2.1h.7v4c0 .6.2 1.1.5 1.5.3.4.8.5 1.4.5.3 0 .7-.1 1-.2s.6-.3.9-.5l-.5-.8v-.2zm6.3-5c-.2-.2-.5-.4-.8-.6-.3-.1-.7-.2-1.1-.2-1.2 0-2.2.4-3 1.1l.3.6c.1.1.1.2.2.2.1.1.2.1.3.1s.3 0 .4-.1c.1-.1.2-.1.4-.2.1-.1.3-.2.5-.2.2-.1.4-.1.7-.1.4 0 .7.1.9.3.2.2.3.6.3 1.1v.4c-.8 0-1.5.1-2.1.2-.6.1-1 .3-1.3.5-.3.2-.6.5-.7.7-.1.3-.2.5-.2.8 0 .3.1.6.2.8.1.2.2.4.4.6.2.2.4.3.7.4.3.1.5.1.8.1s.5 0 .7-.1c.2 0 .4-.1.6-.2.2-.1.4-.2.5-.3.2-.1.4-.3.5-.4l.2.5c0 .1.1.2.2.3.1 0 .2.1.4.1h.8v-4.5c0-.4-.1-.8-.2-1.1-.2-.3-.4-.6-.6-.8zm-1 4.7c-.1.1-.3.2-.4.3-.1.1-.3.2-.4.2-.1 0-.3.1-.4.1H.4c-.3 0-.5-.1-.7-.2s-.3-.4-.3-.7c0-.2 0-.3.1-.4.1-.1.2-.2.4-.3s.5-.2.8-.2c.3-.1.8-.1 1.3-.1v1.3h.1zm6.6.3h-.2l-.1.1c-.1 0-.1.1-.2.1h-.3c-.2 0-.3-.1-.4-.2-.1-.1-.2-.3-.2-.5v-3.9h1.9v-1.2H7.3v-2.3h-.9c-.1 0-.2 0-.3.1-.1.1-.1.1-.1.2l-.4 2-1.2.2v.7c0 .1 0 .2.1.3.1.1.1.1.2.1h.7v4c0 .6.2 1.1.5 1.5s.8.5 1.4.5c.3 0 .7-.1 1-.2s.6-.3.9-.5l-.5-.8v-.2zm6.6-4.9c-.3-.3-.6-.5-1-.6-.4-.1-.8-.2-1.2-.2-.5 0-1 .1-1.4.3-.4.2-.8.4-1.1.8-.3.3-.5.7-.7 1.1s-.2.9-.2 1.4c0 .6.1 1.2.3 1.7.2.5.4.9.7 1.2s.7.6 1.1.7c.4.2.9.2 1.4.2.3 0 .5 0 .8-.1.3 0 .5-.1.8-.2.3-.1.5-.2.7-.4.2-.2.5-.3.6-.6l-.5-.6c0-.1-.1-.1-.1-.1h-.2c-.1 0-.2 0-.3.1-.1.1-.2.1-.4.2s-.3.2-.5.2c-.2.1-.4.1-.7.1-.6 0-1-.2-1.4-.5-.3-.3-.5-.9-.6-1.6H16c.1 0 .1-.1.1-.1s.1-.1.1-.2v-.3c0-.5-.1-1-.2-1.4-.3-.5-.5-.8-.7-1.1zm-4 2c.1-.5.3-.9.5-1.2.3-.3.7-.4 1.2-.4.3 0 .5 0 .7.1.2.1.3.2.5.4.1.1.2.3.3.5.1.2.1.4.1.6h-3.3zm13.1-5.7h-1.9l-4 10.1H20c.2 0 .3 0 .4-.1.1-.1.2-.2.2-.3l.8-2.1h4.2l.8 2.1c0 .1.1.2.2.3.1.1.2.1.4.1h1.5l-4.1-10.1zm-2.6 6.3l1.2-3.4c.1-.2.1-.3.2-.5s.1-.4.2-.7c.1.2.1.5.2.7.1.2.1.4.2.5l1.2 3.4h-3.2zm10.5-3.4c-.3-.1-.6-.1-.9-.1-.4 0-.8.1-1.1.2-.3.1-.6.3-.9.5-.3.2-.5.4-.6.7-.1.3-.2.6-.2 1s.1.8.3 1.1.5.6.9.8c-.2.1-.3.2-.4.3l-.3.3c-.1.1-.1.2-.2.3 0 .1-.1.2-.1.3 0 .3.1.5.2.6.1.2.2.3.4.4-.4.1-.6.3-.9.5-.2.2-.3.5-.3.8 0 .2.1.5.2.7.1.2.3.4.6.6.3.2.6.3 1 .4s.9.2 1.4.2c.6 0 1-.1 1.5-.2.4-.1.8-.3 1.1-.6.3-.2.5-.5.7-.8.2-.3.2-.6.2-.9s-.1-.6-.2-.8c-.1-.2-.3-.4-.5-.5-.2-.1-.5-.2-.7-.3-.3-.1-.6-.1-.8-.1h-1.5c-.2 0-.4-.1-.5-.1-.1-.1-.2-.2-.2-.3 0-.2.1-.3.3-.5.3.1.5.1.8.1.4 0 .8-.1 1.1-.2.3-.1.6-.3.9-.5.2-.2.4-.4.6-.7.1-.3.2-.6.2-1v-.4c0-.1-.1-.3-.1-.4l.6-.1c.1 0 .2-.1.3-.1.1-.1.1-.1.1-.3v-.6h-2.1c-.4-.1-.7-.2-.9-.3zm-1.9 6.7c.2.1.4.1.7.1H32.4c.2 0 .4.1.5.1s.3.1.3.2c.1.1.1.2.1.4 0 .1 0 .3-.1.4l-.3.3c-.2.1-.3.2-.6.2-.2 0-.5.1-.8.1-.3 0-.6 0-.8-.1-.2 0-.4-.1-.5-.2l-.3-.3c-.1-.1-.1-.2-.1-.4s.1-.4.2-.5c0 0 .2-.2.4-.3zm2.2-3.9c-.1.1-.1.3-.2.4-.1.1-.2.2-.4.2-.2.1-.3.1-.6.1-.2 0-.4 0-.6-.1-.2-.1-.3-.1-.4-.2-.1-.1-.2-.2-.2-.4-.1-.1-.1-.3-.1-.5 0-.4.1-.6.3-.8.2-.2.5-.3 1-.3s.7.1 1 .3c.2.2.3.5.3.8 0 .2-.1.3-.1.5zm8.3-2c-.3-.3-.6-.5-1-.6-.4-.1-.8-.2-1.2-.2-.5 0-1 .1-1.4.3-.4.2-.8.4-1.1.8-.3.3-.5.7-.7 1.1s-.2.9-.2 1.4c0 .6.1 1.2.3 1.7.2.5.4.9.7 1.2s.7.6 1.1.7c.4.2.9.2 1.4.2.3 0 .5 0 .8-.1.3 0 .5-.1.8-.2.3-.1.5-.2.7-.4.2-.2.5-.3.6-.6l-.5-.6c0-.1-.1-.1-.1-.1h-.2c-.1 0-.2 0-.3.1-.1.1-.2.1-.4.2s-.3.2-.5.2c-.2.1-.4.1-.7.1-.6 0-1-.2-1.4-.5-.3-.3-.5-.9-.6-1.6H41.6c.1 0 .1-.1.1-.1s.1-.1.1-.2v-.3c0-.5-.1-1-.2-1.4-.2-.5-.4-.8-.7-1.1zm-3.9 2c.1-.5.3-.9.5-1.2.3-.3.7-.4 1.2-.4.3 0 .5 0 .7.1.2.1.4.2.5.4.1.1.2.3.3.5.1.2.1.4.1.6H37zm11.4-2.1c-.2-.2-.5-.4-.8-.6-.3-.1-.7-.2-1-.2-.2 0-.5 0-.7.1-.2 0-.4.1-.6.2-.2.1-.3.2-.5.3-.2.1-.3.3-.5.4l-.1-.6c-.1-.2-.2-.3-.4-.3h-1.1v7.2h1.7v-5.2c.2-.2.5-.4.7-.6.3-.1.5-.2.8-.2.4 0 .7.1.9.4.2.2.3.6.3 1v4.6h1.7v-4.6c0-.4-.1-.8-.2-1.1.2-.3 0-.6-.2-.8zm6.7 4.7c-.1 0-.2 0-.3.1-.1.1-.2.1-.3.2-.1.1-.3.2-.4.2-.2.1-.4.1-.7.1-.3 0-.5-.1-.7-.2-.2-.1-.4-.3-.6-.5-.2-.2-.3-.5-.4-.8s-.1-.6-.1-1 0-.7.1-1c.1-.3.2-.5.3-.7.2-.2.3-.4.6-.5.2-.1.5-.2.8-.2.2 0 .4 0 .6.1.2.1.3.1.4.2.1.1.2.1.3.2s.2.1.3.1c.1 0 .2 0 .2-.1l.2-.2.5-.6c-.3-.3-.7-.6-1.1-.7-.4-.2-.9-.3-1.4-.3-.6 0-1.1.1-1.5.3-.4.2-.8.4-1.1.8-.3.3-.5.7-.7 1.2-.2.5-.2.9-.2 1.5s.1 1.1.3 1.6c.2.5.4.8.7 1.2.3.3.6.6 1 .7.4.2.8.2 1.3.2.3 0 .5 0 .8-.1.3 0 .5-.1.7-.2.2-.1.5-.2.7-.4.2-.2.4-.3.6-.6l-.5-.6h-.4zm6.3-5.3l-.2.2-1.4 3.7c-.1.1-.1.3-.1.4s-.1.3-.1.4c0-.1-.1-.3-.1-.4s-.1-.3-.1-.4l-1.5-3.7c0-.1-.1-.2-.2-.2-.1-.1-.2-.1-.3-.1h-1.5l2.9 6.7-1.3 2.9h1.3c.2 0 .3 0 .4-.1.1-.1.1-.2.2-.3l3.9-9.2h-1.4c-.3 0-.4.1-.5.1z" id="REMAX"/></svg>