<?xml version="1.0" encoding="utf-8"?>
<!-- Generator: Adobe Illustrator 20.1.0, SVG Export Plug-In . SVG Version: 6.00 Build 0)  -->
<svg version="1.1" id="Layer_1" xmlns="http://www.w3.org/2000/svg" xmlns:xlink="http://www.w3.org/1999/xlink" x="0px" y="0px"
	 viewBox="0 0 300 200" style="enable-background:new 0 0 300 200;" xml:space="preserve">
<style type="text/css">
	.st0{fill:#FFFFFF;}
</style>
<path id="REMAX" class="st0" d="M125.2,113.8L144.6,85v28.8h7.8l20.3-29.9v29.9h8.7V65.9h-6.7l-20.6,29.9V65.9H148l-32.6,47.9H125.2
	z M240,65.9h-10.7l-10.8,16.3l-10.6-16.3h-10.7l16,23.9l-2.8,4L191.6,66h-7.3l0.1,47.9h8.7v-12.9H204l0.8,1l-7.8,11.9h9.8l3.3-4.4
	l3.5,4.4h10.7l-8.9-12.4l2.6-4l11,16.4h10.7l-16.4-24C223.4,89.8,240,65.9,240,65.9z M193.3,91.8v-9l5.9,9H193.3z M68.7,97.7
	l12.7,15.9h15.5l6.4-9.1l-2.5,0.1v-12h10.7l3-4.6v-3.4h-13.7v-10h13.6v-9H92.1v44.9L79.8,96.9c6.4-2,10.3-8.2,10.3-15.4
	c0-8.7-6.1-15.9-14.6-15.9H60v47.9h8.7V97.7z M68.7,74.9h5.9c3.7,0,6.8,3.1,6.8,6.9c0,3.8-2.2,6.9-5.9,6.9h-6.8V74.9z M114.5,107.8
	l-3.9,6h3.9V107.8z M134,62l-37,54.8h9.8l36-54.8C142.8,62,134,62,134,62z M67,129.3c0.5-0.1,0.8-0.4,1.2-0.5c0.4-0.3,0.7-0.5,1-0.8
	c0.3-0.3,0.4-0.7,0.5-1c0.1-0.4,0.3-0.8,0.3-1.3s-0.1-1-0.3-1.6c-0.2-0.6-0.5-0.8-0.8-1.2c-0.4-0.4-1-0.7-1.6-0.8
	c-0.7-0.1-1.4-0.3-2.3-0.3h-4v13.1h2.5v-5.2h1c0.3,0,0.4,0,0.5,0.1c0.1,0.1,0.3,0.1,0.4,0.4l2.6,4.2l0.4,0.4
	c0.1,0.1,0.4,0.1,0.5,0.1h2.2l-3.3-4.8C67.6,129.7,67.3,129.4,67,129.3z M66,127.8c-0.4,0.1-0.8,0.1-1.2,0.1h-1.7v-4.4h1.6
	c1,0,1.6,0.1,2.1,0.5c0.4,0.4,0.7,1,0.7,1.6c0,0.4,0,0.7-0.1,0.8s-0.3,0.5-0.5,0.8C66.7,127.6,66.4,127.7,66,127.8z M78.8,126.5
	c-0.4-0.4-0.8-0.7-1.3-0.8c-0.5-0.1-1-0.3-1.6-0.3c-0.7,0-1.3,0.1-1.8,0.4s-1,0.5-1.4,1c-0.4,0.4-0.7,0.8-0.8,1.4
	c-0.3,0.5-0.3,1.2-0.3,1.8c0,0.8,0.1,1.6,0.4,2.2c0.3,0.7,0.5,1.2,0.8,1.6c0.4,0.4,1,0.8,1.4,0.8c0.5,0.1,1.2,0.3,1.8,0.3
	c0.4,0,0.7,0,1-0.1c0.4,0,0.7-0.1,1-0.3c0.3-0.2,0.7-0.3,0.8-0.5c0.3-0.3,0.7-0.4,0.8-0.8l-0.7-0.8c0-0.1-0.1-0.1-0.1-0.1h-0.3
	c-0.1,0-0.3,0-0.4,0.1c-0.1,0.1-0.3,0.1-0.5,0.3c-0.3,0.1-0.4,0.3-0.7,0.3c-0.3,0.1-0.5,0.1-1,0.1c-0.8,0-1.3-0.3-1.8-0.7
	c-0.4-0.4-0.7-1.2-0.8-2.1h6c0.1,0,0.1-0.1,0.1-0.1s0.1-0.1,0.1-0.3l0,0c0-0.7-0.1-1.3-0.3-1.8C79.4,127.3,79.2,126.9,78.8,126.5z
	 M73.7,129.2c0.1-0.7,0.4-1.2,0.7-1.6c0.4-0.4,1-0.5,1.6-0.5c0.4,0,0.7,0,0.8,0.1s0.4,0.3,0.7,0.5c0.1,0.1,0.3,0.4,0.4,0.7
	s0.1,0.5,0.1,0.8C78,129.2,73.7,129.2,73.7,129.2z M87.7,126.4c-0.3-0.3-0.7-0.5-1-0.8c-0.4-0.1-1-0.3-1.4-0.3
	c-1.6,0-2.9,0.5-3.9,1.4l0.4,0.8c0.1,0.1,0.1,0.3,0.3,0.3c0.1,0.1,0.3,0.1,0.4,0.1s0.4,0,0.5-0.1s0.3-0.1,0.5-0.3
	c0.1-0.1,0.4-0.3,0.7-0.3c0.3-0.1,0.5-0.1,0.8-0.1c0.5,0,1,0.1,1.2,0.4c0.3,0.3,0.4,0.8,0.4,1.4v0.5c-1,0-2,0.1-2.8,0.3
	c-0.8,0.1-1.3,0.4-1.7,0.7c-0.4,0.3-0.8,0.7-0.8,0.8c-0.1,0.4-0.3,0.7-0.3,1c0,0.4,0.1,0.8,0.3,1c0.1,0.3,0.3,0.5,0.5,0.8
	c0.3,0.3,0.5,0.4,0.8,0.5c0.4,0.1,0.7,0.1,1,0.1c0.3,0,0.7,0,0.8-0.1c0.3,0,0.5-0.1,0.8-0.3s0.5-0.3,0.7-0.4
	c0.3-0.1,0.5-0.4,0.7-0.5l0.3,0.7c0,0.1,0.1,0.3,0.3,0.4c0.1,0,0.3,0.1,0.5,0.1h1v-5.9c0-0.5-0.1-1-0.3-1.4
	C88.2,127.1,87.8,126.7,87.7,126.4z M86.3,132.5c-0.1,0.1-0.4,0.3-0.5,0.4c-0.1,0.1-0.4,0.3-0.5,0.3s-0.4,0.1-0.5,0.1h-0.7
	c-0.4,0-0.7-0.1-0.8-0.3c-0.2-0.2-0.4-0.5-0.4-0.8c0-0.3,0-0.4,0.1-0.5c0.1-0.1,0.3-0.3,0.5-0.4c0.3-0.1,0.7-0.3,1-0.3
	c0.4-0.1,1-0.1,1.7-0.1v1.7C86.2,132.5,86.3,132.5,86.3,132.5z M90.4,134.9h2.2v-13.6h-2.2V134.9z M97.8,134.9h8.3v-2h-5.8v-3.8h4.6
	v-1.8h-4.6v-3.7h5.9v-2h-8.3v13.3H97.8z M113,130.3c-0.3-0.1-0.5-0.4-0.8-0.5l-0.8-0.4c-0.3-0.1-0.5-0.1-0.8-0.3
	c-0.3-0.2-0.5-0.1-0.8-0.3c-0.3-0.1-0.4-0.3-0.5-0.4s-0.3-0.3-0.3-0.5c0-0.3,0.1-0.5,0.4-0.8c0.3-0.1,0.7-0.3,1-0.3
	c0.3,0,0.5,0,0.8,0.1c0.3,0,0.4,0.1,0.5,0.3c0.1,0.1,0.3,0.1,0.4,0.3c0.1,0,0.3,0.1,0.4,0.1h0.3c0.1,0,0.1-0.1,0.1-0.3l0.5-0.8
	c-0.4-0.4-0.8-0.7-1.3-0.8c-0.5-0.3-1.2-0.3-1.8-0.3c-0.5,0-1,0.1-1.6,0.3c-0.4,0.1-0.8,0.4-1,0.7c-0.3,0.3-0.5,0.5-0.7,1
	c-0.1,0.4-0.3,0.7-0.3,1c0,0.4,0.1,0.8,0.3,1c0.1,0.3,0.3,0.5,0.5,0.8c0.3,0.3,0.5,0.4,0.8,0.5s0.5,0.3,1,0.4
	c0.3,0.1,0.5,0.1,0.8,0.3c0.3,0.1,0.5,0.1,0.8,0.3s0.4,0.3,0.5,0.4c0.1,0.1,0.3,0.3,0.3,0.5c0,0.1,0,0.3-0.1,0.4
	c0,0.1-0.1,0.3-0.3,0.4c-0.1,0.1-0.3,0.1-0.5,0.3c-0.1,0-0.4,0.1-0.7,0.1c-0.4,0-0.7,0-0.8-0.1c-0.3-0.1-0.4-0.1-0.5-0.3
	c-0.1-0.1-0.3-0.1-0.4-0.3c-0.1-0.1-0.3-0.1-0.4-0.1s-0.3,0-0.4,0.1c-0.1,0-0.1,0.1-0.3,0.3l-0.5,0.8c0.1,0.1,0.4,0.3,0.7,0.5
	l0.8,0.4c0.3,0.1,0.5,0.1,1,0.3c0.3,0,0.7,0.1,0.8,0.1c0.7,0,1.2-0.1,1.6-0.3c0.5-0.1,1-0.4,1.2-0.7c0.3-0.3,0.5-0.7,0.8-1
	c0.1-0.4,0.3-0.8,0.3-1.3s-0.1-0.7-0.3-1C113.6,131.2,113.2,130.5,113,130.3z M119.7,132.9h-0.3l-0.1,0.1c-0.1,0-0.1,0.1-0.3,0.1
	h-0.4c-0.3,0-0.4-0.1-0.5-0.3s-0.3-0.4-0.3-0.7V127h2.5v-1.6h-2.5v-3h-1.2c-0.1,0-0.3,0-0.4,0.1s-0.1,0.1-0.1,0.3l-0.5,2.6l-1.6,0.3
	v1c0,0.1,0,0.3,0.1,0.4s0.1,0.1,0.3,0.1h1v5.2c0,0.8,0.3,1.4,0.7,2c0.4,0.5,1,0.7,1.8,0.7c0.4,0,1-0.1,1.3-0.3s0.8-0.4,1.2-0.7
	L119.7,132.9C119.7,133.2,119.7,132.9,119.7,132.9z M128,126.4c-0.3-0.3-0.7-0.5-1-0.8c-0.4-0.1-0.8-0.3-1.4-0.3
	c-1.6,0-2.9,0.5-3.9,1.4l0.4,0.8c0.1,0.1,0.1,0.3,0.3,0.3c0.1,0.1,0.3,0.1,0.4,0.1s0.4,0,0.5-0.1s0.3-0.1,0.5-0.3
	c0.1-0.1,0.4-0.3,0.7-0.3c0.3-0.1,0.5-0.1,1-0.1c0.5,0,0.8,0.1,1.2,0.4c0.3,0.3,0.4,0.8,0.4,1.4v0.5c-1,0-2,0.1-2.6,0.3
	c-0.8,0.1-1.3,0.4-1.7,0.7c-0.4,0.3-0.8,0.7-1,0.8c-0.1,0.4-0.3,0.7-0.3,1c0,0.4,0.1,0.8,0.3,1c0.1,0.3,0.3,0.5,0.5,0.8
	c0.3,0.3,0.5,0.4,1,0.5c0.4,0.1,0.7,0.1,1,0.1c0.4,0,0.7,0,0.8-0.1c0.3,0,0.5-0.1,0.8-0.3s0.5-0.3,0.7-0.4c0.3-0.1,0.5-0.4,0.7-0.5
	l0.3,0.7c0,0.1,0.1,0.3,0.3,0.4c0.1,0,0.3,0.1,0.5,0.1h1v-5.9c0-0.5-0.1-1-0.3-1.4C128.5,127.1,128.2,126.7,128,126.4z M126.7,132.5
	c-0.1,0.1-0.4,0.3-0.5,0.4c-0.1,0.1-0.4,0.3-0.5,0.3s-0.4,0.1-0.5,0.1h-0.7c-0.4,0-0.7-0.1-0.8-0.3c-0.3-0.1-0.4-0.5-0.4-0.8
	c0-0.3,0-0.4,0.1-0.5c0.1-0.1,0.3-0.3,0.5-0.4c0.3-0.1,0.7-0.3,1-0.3c0.4-0.1,1-0.1,1.7-0.1v1.7
	C126.5,132.5,126.7,132.5,126.7,132.5z M135.3,132.9H135l-0.1,0.1c-0.1,0-0.1,0.1-0.3,0.1h-0.4c-0.3,0-0.4-0.1-0.5-0.3
	c-0.1-0.2-0.3-0.4-0.3-0.7V127h2.5v-1.6h-2.5v-3h-1.2c-0.1,0-0.3,0-0.4,0.1c-0.1,0.1-0.1,0.1-0.1,0.3l-0.5,2.6l-1.6,0.3v1
	c0,0.1,0,0.3,0.1,0.4c0.1,0.1,0.1,0.1,0.3,0.1h0.8v5.2c0,0.8,0.3,1.4,0.7,2c0.4,0.5,1,0.7,1.8,0.7c0.4,0,0.8-0.1,1.3-0.3
	c0.4-0.1,0.8-0.4,1.2-0.7L135.3,132.9C135.3,133.2,135.3,132.9,135.3,132.9z M143.9,126.5c-0.4-0.4-0.8-0.7-1.3-0.8
	c-0.5-0.1-1-0.3-1.6-0.3c-0.7,0-1.3,0.1-1.8,0.4c-0.5,0.3-1,0.5-1.4,1c-0.4,0.4-0.7,0.8-0.8,1.4c-0.3,0.5-0.3,1.2-0.3,1.8
	c0,0.8,0.1,1.6,0.4,2.2c0.3,0.7,0.5,1.2,0.8,1.6c0.4,0.4,0.8,0.8,1.4,0.8c0.5,0.3,1.2,0.3,1.8,0.3c0.4,0,0.7,0,1-0.1
	c0.4,0,0.7-0.1,1-0.3c0.4-0.1,0.7-0.3,0.8-0.5c0.3-0.3,0.7-0.4,0.8-0.8l-0.7-0.8c0-0.1-0.1-0.1-0.1-0.1h-0.2c-0.1,0-0.3,0-0.4,0.1
	c-0.1,0.1-0.3,0.1-0.5,0.3c-0.3,0.1-0.4,0.3-0.7,0.3c-0.3,0.1-0.5,0.1-0.8,0.1c-0.8,0-1.3-0.3-1.8-0.7c-0.4-0.4-0.7-1.2-0.8-2.1h6
	c0.1,0,0.1-0.1,0.1-0.1s0.1-0.1,0.1-0.3l0,0c0-0.7-0.1-1.3-0.3-1.8C144.4,127.3,144.1,126.9,143.9,126.5z M138.7,129.2
	c0.1-0.7,0.4-1.2,0.7-1.6c0.4-0.4,1-0.5,1.6-0.5c0.4,0,0.7,0,0.8,0.1c0.1,0.1,0.4,0.3,0.7,0.5c0.1,0.1,0.3,0.4,0.4,0.7
	s0.1,0.5,0.1,0.8C143,129.2,138.7,129.2,138.7,129.2z M155.7,121.7h-2.5l-5.2,13.2h2c0.3,0,0.4,0,0.5-0.1c0.1-0.1,0.3-0.3,0.3-0.4
	l1-2.8h5.5l1,2.8c0,0.1,0.1,0.3,0.3,0.4c0.1,0.1,0.3,0.1,0.5,0.1h2L155.7,121.7z M152.3,129.8l1.6-4.4c0.1-0.3,0.1-0.4,0.3-0.7
	c0.1-0.3,0.1-0.5,0.3-0.8c0.1,0.3,0.1,0.7,0.3,0.8c0.1,0.3,0.1,0.5,0.3,0.7l1.6,4.4C156.5,129.8,152.3,129.8,152.3,129.8z
	 M166,125.5c-0.4-0.1-0.8-0.1-1.2-0.1c-0.5,0-1,0.1-1.4,0.3c-0.4,0.1-0.8,0.4-1.2,0.7c-0.4,0.3-0.7,0.5-0.8,1
	c-0.1,0.4-0.3,0.8-0.3,1.3s0.1,1,0.4,1.4c0.3,0.4,0.7,0.8,1.2,1c-0.3,0.1-0.4,0.3-0.5,0.4l-0.4,0.4c-0.1,0.1-0.1,0.3-0.3,0.4
	c0,0.1-0.1,0.3-0.1,0.4c0,0.4,0.1,0.7,0.3,0.8c0.1,0.3,0.3,0.4,0.5,0.5c-0.5,0.1-0.8,0.4-1.2,0.7c-0.3,0.3-0.4,0.7-0.4,1
	c0,0.3,0.1,0.7,0.3,0.8c0.1,0.3,0.4,0.5,0.8,0.8c0.4,0.3,0.8,0.4,1.3,0.5c0.5,0.1,1.2,0.3,1.8,0.3c0.8,0,1.3-0.1,2-0.3
	c0.5-0.1,1-0.4,1.4-0.8c0.4-0.3,0.7-0.7,0.8-1c0.3-0.4,0.3-0.8,0.3-1.2c0-0.4-0.1-0.8-0.3-1c-0.1-0.3-0.4-0.5-0.7-0.7
	c-0.3-0.1-0.7-0.3-1-0.4c-0.4-0.1-0.8-0.1-1-0.1h-2c-0.3,0-0.5-0.1-0.7-0.1c-0.1-0.1-0.3-0.3-0.3-0.4c0-0.3,0.1-0.4,0.4-0.7
	c0.4,0.1,0.7,0.1,1,0.1c0.5,0,1-0.1,1.4-0.3c0.4-0.1,0.8-0.4,1.2-0.7c0.3-0.3,0.5-0.5,0.8-0.8c0.1-0.4,0.3-0.8,0.3-1.3v-0.5
	c0-0.1-0.1-0.4-0.1-0.5l0.8-0.1c0.1,0,0.3-0.1,0.4-0.1c0.1-0.1,0.1-0.1,0.1-0.4v-0.8H167C166.7,125.8,166.3,125.6,166,125.5z
	 M163.6,134.2c0.3,0.1,0.5,0.1,0.8,0.1h1.7c0.3,0,0.5,0.1,0.7,0.1s0.4,0.1,0.4,0.3c0.1,0.1,0.1,0.3,0.1,0.5c0,0.1,0,0.4-0.1,0.5
	l-0.4,0.4c-0.3,0.1-0.4,0.3-0.8,0.3c-0.3,0-0.7,0.1-1,0.1c-0.4,0-0.8,0-1-0.1c-0.3,0-0.5-0.1-0.7-0.3l-0.4-0.4
	c-0.1-0.1-0.1-0.3-0.1-0.5c0-0.3,0.1-0.5,0.3-0.7C163,134.6,163.3,134.4,163.6,134.2z M166.4,129.2c-0.1,0.1-0.1,0.4-0.3,0.5
	c-0.2,0.1-0.3,0.3-0.5,0.3c-0.3,0.1-0.4,0.1-0.8,0.1c-0.3,0-0.5,0-0.8-0.1c-0.3-0.1-0.4-0.1-0.5-0.3c-0.1-0.1-0.3-0.3-0.3-0.5
	c-0.1-0.1-0.1-0.4-0.1-0.7c0-0.5,0.1-0.8,0.4-1c0.3-0.3,0.7-0.4,1.3-0.4c0.7,0,0.8,0.1,1.3,0.4c0.3,0.3,0.4,0.7,0.4,1
	C166.6,128.8,166.4,128.9,166.4,129.2z M177.3,126.5c-0.4-0.4-0.8-0.7-1.3-0.8c-0.5-0.1-1-0.3-1.6-0.3c-0.7,0-1.3,0.1-1.8,0.4
	c-0.5,0.3-1,0.5-1.4,1c-0.4,0.4-0.7,0.8-0.8,1.4c-0.3,0.5-0.3,1.2-0.3,1.8c0,0.8,0.1,1.6,0.4,2.2c0.3,0.6,0.5,1.2,0.8,1.6
	c0.4,0.4,0.8,0.8,1.4,0.8c0.5,0.3,1.2,0.3,1.8,0.3c0.4,0,0.7,0,1-0.1c0.4,0,0.7-0.1,1-0.3c0.4-0.1,0.7-0.3,0.8-0.5
	c0.3-0.3,0.7-0.4,0.8-0.8l-0.7-0.8c0-0.1-0.1-0.1-0.1-0.1H177c-0.1,0-0.3,0-0.4,0.1c-0.1,0.1-0.3,0.1-0.5,0.3
	c-0.3,0.1-0.4,0.3-0.7,0.3c-0.3,0.1-0.5,0.1-0.8,0.1c-0.8,0-1.3-0.3-1.8-0.7c-0.4-0.4-0.7-1.2-0.8-2.1h6c0.1,0,0.1-0.1,0.1-0.1
	s0.1-0.1,0.1-0.3l0,0c0-0.7-0.1-1.3-0.3-1.8C177.8,127.3,177.7,126.9,177.3,126.5z M172.2,129.2c0.1-0.7,0.4-1.2,0.7-1.6
	c0.4-0.4,0.8-0.5,1.6-0.5c0.4,0,0.7,0,0.8,0.1c0.3,0.1,0.5,0.3,0.7,0.5c0.1,0.1,0.3,0.4,0.4,0.7s0.1,0.5,0.1,0.8
	C176.5,129.2,172.2,129.2,172.2,129.2z M187,126.4c-0.3-0.3-0.7-0.5-1-0.8c-0.4-0.1-0.8-0.3-1.3-0.3c-0.3,0-0.7,0-0.8,0.1
	c-0.3,0-0.5,0.1-0.8,0.3c-0.3,0.1-0.4,0.3-0.7,0.4c-0.3,0.1-0.4,0.4-0.7,0.5l-0.1-0.8c-0.1-0.3-0.3-0.4-0.5-0.4h-1.3v9.4h2.2v-6.8
	c0.3-0.3,0.7-0.5,0.8-0.8c0.4-0.1,0.7-0.3,1-0.3c0.5,0,0.8,0.1,1.2,0.5c0.3,0.3,0.4,0.8,0.4,1.3v6h2.2v-6c0-0.5-0.1-1-0.3-1.4
	C187.6,127.1,187.3,126.7,187,126.4z M195.8,132.5c-0.1,0-0.3,0-0.4,0.1c-0.1,0.1-0.3,0.1-0.4,0.3c-0.1,0.1-0.4,0.3-0.5,0.3
	c-0.3,0.1-0.5,0.1-0.8,0.1c-0.3,0-0.7-0.1-0.8-0.3c-0.1-0.2-0.5-0.4-0.8-0.7c-0.3-0.3-0.4-0.7-0.5-1c-0.1-0.4-0.1-0.8-0.1-1.3
	c0-0.5,0-0.8,0.1-1.3c0.1-0.4,0.3-0.7,0.4-0.8c0.3-0.3,0.4-0.5,0.8-0.7c0.3-0.1,0.7-0.3,1-0.3s0.5,0,0.8,0.1
	c0.3,0.1,0.4,0.1,0.5,0.3c0.1,0.1,0.3,0.1,0.4,0.3c0.1,0.1,0.3,0.1,0.4,0.1c0.1,0,0.3,0,0.3-0.1l0.3-0.3l0.7-0.8
	c-0.4-0.4-0.8-0.8-1.4-0.8c-0.5-0.3-1.2-0.4-1.8-0.4c-0.8,0-1.4,0.1-2,0.4c-0.5,0.3-1,0.5-1.4,1c-0.4,0.4-0.7,0.8-0.8,1.6
	c-0.3,0.7-0.3,1.2-0.3,2c0,0.8,0.1,1.4,0.4,2.1c0.3,0.7,0.5,1,0.8,1.6c0.4,0.4,0.8,0.8,1.3,0.8c0.5,0.3,1,0.3,1.7,0.3
	c0.4,0,0.7,0,1-0.1c0.4,0,0.7-0.1,1-0.3s0.7-0.3,0.8-0.5c0.3-0.3,0.5-0.4,0.8-0.8l-0.7-0.8C196.3,132.5,195.8,132.5,195.8,132.5z
	 M204,125.6l-0.3,0.3l-1.8,4.8c-0.1,0.1-0.1,0.4-0.1,0.5c0,0.1-0.1,0.4-0.1,0.5c0-0.1-0.1-0.4-0.1-0.5c0-0.1-0.1-0.4-0.1-0.5l-2-4.8
	c0-0.1-0.1-0.3-0.3-0.3c-0.1-0.1-0.3-0.1-0.4-0.1h-2l3.8,8.7l-1.7,3.8h1.7c0.3,0,0.4,0,0.5-0.1c0.1-0.1,0.1-0.3,0.3-0.4l5.1-12h-1.8
	C204.3,125.5,204.1,125.6,204,125.6z"/>
</svg>
