<?xml version="1.0" encoding="utf-8"?>
<!-- Generator: Adobe Illustrator 20.1.0, SVG Export Plug-In . SVG Version: 6.00 Build 0)  -->
<svg version="1.1" id="Layer_1" xmlns="http://www.w3.org/2000/svg" xmlns:xlink="http://www.w3.org/1999/xlink" x="0px" y="0px"
	 viewBox="0 0 300 200" style="enable-background:new 0 0 300 200;" xml:space="preserve">
<style type="text/css">
	.st0{fill:#FFFFFF;}
</style>
<g>
	<g>
		<polygon class="st0" points="112.3,84 92.9,77.9 140.7,35.8 160.1,41.8 		"/>
		<polygon class="st0" points="136.2,91.6 116.7,85.6 164.5,43.4 184,49.5 		"/>
		<polygon class="st0" points="160,99 140.6,93 188.4,50.8 207.9,56.9 		"/>
	</g>
	<g>
		<g>
			<g>
				<g>
					<g>
						<path class="st0" d="M19.8,113.2h9.7c2.7,0,4.8,0.9,6.2,2.1c1.2,1.2,1.8,2.8,1.8,4.9v0.1c0,3.4-1.8,5.6-4.5,6.5l5.2,7.6h-5.5
							l-4.5-6.8h-3.6v6.8h-4.7C19.8,134.6,19.8,113.2,19.8,113.2z M29.2,123.5c2.4,0,3.6-1.2,3.6-3l0,0c0-1.9-1.4-3-3.6-3h-4.7v6.1
							C24.5,123.5,29.2,123.5,29.2,123.5z"/>
						<path class="st0" d="M74,117.6h-6.4v-4.3h17.7v4.3h-6.5v17h-4.7v-17H74z"/>
						<path class="st0" d="M91.9,113.2h9.7c2.7,0,4.8,0.9,6.2,2.1c1.2,1.2,1.8,2.8,1.8,4.9v0.1c0,3.4-1.8,5.6-4.5,6.5l5.2,7.6h-5.5
							l-4.5-6.8h-3.6v6.8H92C91.9,134.6,91.9,113.2,91.9,113.2z M101.3,123.5c2.3,0,3.6-1.2,3.6-3l0,0c0-1.9-1.4-3-3.6-3h-4.7v6.1
							C96.6,123.5,101.3,123.5,101.3,123.5z"/>
						<path class="st0" d="M124.2,113h4.3l9.1,21.4h-5l-1.9-4.8h-9l-1.9,4.8H115L124.2,113z M129.1,125.7l-2.8-6.9l-2.8,6.9H129.1z"
							/>
						<path class="st0" d="M141.6,123.9L141.6,123.9c0-6.1,4.5-11.2,11.2-11.2c4,0,6.4,1.3,8.4,3.2l-2.9,3.4
							c-1.6-1.5-3.2-2.5-5.5-2.5c-3.6,0-6.2,2.9-6.2,6.7v0.1c0,3.6,2.6,6.7,6.2,6.7c2.5,0,4-1,5.6-2.5l2.9,3
							c-2.3,2.4-4.7,3.8-8.8,3.8C146.3,134.9,141.6,130.1,141.6,123.9z"/>
						<path class="st0" d="M173,117.6h-6.4v-4.3h17.7v4.3h-6.4v17h-4.7v-17C173.2,117.6,173,117.6,173,117.6z"/>
						<path class="st0" d="M195.3,113h4.3l9.1,21.4h-4.9l-1.9-4.8h-9l-1.8,4.9h-4.8L195.3,113z M200.2,125.7l-2.8-6.9l-2.8,6.9
							H200.2z"/>
						<path class="st0" d="M215,113.2h10c2.5,0,4.3,0.6,5.6,1.8c1,1,1.4,2.1,1.4,3.6v0.1c0,2.5-1.3,3.8-2.8,4.5c2.5,1,4,2.4,4,5.3
							v0.1c0,3.9-3.1,5.8-7.9,5.8H215V113.2z M224,121.8c2.1,0,3.4-0.6,3.4-2.3v-0.1c0-1.4-1.1-2.3-3-2.3h-4.7v4.4h4.3V121.8z
							 M225.2,130.4c2.1,0,3.2-0.6,3.2-2.4V128c0-1.4-1.1-2.4-3.5-2.4h-5.4v4.7h5.6V130.4z"/>
						<path class="st0" d="M240.1,113.2h4.7v17.1h10.6v4.2h-15.3V113.2z"/>
					</g>
				</g>
				<g>
					<rect x="43.5" y="129.1" class="st0" width="17.5" height="5.3"/>
					<rect x="43.5" y="121.2" class="st0" width="17.5" height="5.3"/>
					<rect x="43.5" y="113.2" class="st0" width="17.5" height="5.3"/>
				</g>
				<g>
					<rect x="262.2" y="113.2" class="st0" width="17.5" height="5.3"/>
					<rect x="262.2" y="121.2" class="st0" width="17.5" height="5.3"/>
					<rect x="262.2" y="129.1" class="st0" width="17.5" height="5.3"/>
				</g>
			</g>
		</g>
		<g>
			<path class="st0" d="M68.2,145.8h3.2l7,16.5h-3.8l-1.5-3.6h-6.9l-1.5,3.6h-3.5L68.2,145.8z M71.9,155.5l-2.3-5.3l-2.3,5.3H71.9z"
				/>
			<path class="st0" d="M80.1,145.9H84l3.4,11.2l3.6-11.2h3l3.6,11.2l3.4-11.2h3.8L99,162.4h-3.1l-3.8-10.7l-3.8,10.7h-3.1
				L80.1,145.9z"/>
			<path class="st0" d="M109.8,145.9h3.2l7.7,10.1v-10.1h3.5v16.4h-3l-7.9-10.4v10.4h-3.5C109.8,162.3,109.8,145.9,109.8,145.9z"/>
			<path class="st0" d="M130.9,145.9h3.6v16.4h-3.6V145.9z"/>
			<path class="st0" d="M140.8,145.9h3.2l7.7,10.1v-10.1h3.5v16.4h-2.9l-7.9-10.4v10.4h-3.5v-16.4H140.8z"/>
			<path class="st0" d="M161,154.2L161,154.2c0-4.7,3.6-8.6,8.6-8.6c2.9,0,4.7,0.9,6.4,2.3l-2.3,2.7c-1.3-1.1-2.4-1.6-4.3-1.6
				c-2.6,0-4.7,2.4-4.7,5.2l0,0c0,3,2.1,5.2,4.9,5.2c1.3,0,2.5-0.3,3.4-1V156h-3.6v-3.1h7.1v7.1c-1.6,1.4-4,2.6-7,2.6
				C164.4,162.6,161,159,161,154.2z"/>
			<path class="st0" d="M181.2,159.9l2.1-2.6c1.5,1.2,3,1.9,4.9,1.9c1.5,0,2.4-0.5,2.4-1.5l0,0c0-1-0.5-1.4-3.2-2.1
				c-3.2-0.9-5.4-1.7-5.4-5l0,0c0-2.9,2.4-4.9,5.7-4.9c2.4,0,4.4,0.6,6.1,2.1l-1.8,2.7c-1.4-1.1-2.9-1.6-4.2-1.6s-2.1,0.5-2.1,1.4
				l0,0c0,1.1,0.6,1.4,3.5,2.1c3.2,0.9,5.2,2.1,5.2,4.9l0,0c0,3.2-2.5,5-6,5C185.6,162.5,183.2,161.6,181.2,159.9z"/>
			<path class="st0" d="M198.6,160.3h1.8v1.8h-1.8V160.3z"/>
			<path class="st0" d="M203.1,157.3L203.1,157.3c0-2.8,2.1-5.2,5-5.2c1.7,0,2.9,0.5,3.9,1.5l-1.1,1.3c-0.9-0.6-1.6-1.2-2.8-1.2
				c-1.8,0-3.2,1.5-3.2,3.5l0,0c0,1.8,1.4,3.5,3.2,3.5c1.2,0,1.9-0.4,2.8-1.3l1.1,1.2c-1.1,1.1-2.1,1.7-4,1.7
				C205.2,162.5,203.1,160.2,203.1,157.3z"/>
			<path class="st0" d="M214.6,157.3L214.6,157.3c0-2.8,2.1-5.2,5.2-5.2c3,0,5.2,2.4,5.2,5l0,0c0,2.8-2.1,5-5.2,5
				S214.6,160.1,214.6,157.3z M223,157.3L223,157.3c0-1.9-1.4-3.5-3.4-3.5s-3.2,1.5-3.2,3.5l0,0c0,1.8,1.4,3.5,3.4,3.5
				C221.7,160.9,223,159.4,223,157.3z"/>
			<path class="st0" d="M228.4,152.4h1.8l3,4.7l3-4.7h1.8v9.9h-1.7v-7l-3.1,4.7l0,0l-3-4.5v7h-1.8V152.4z"/>
		</g>
	</g>
</g>
</svg>
