<?xml version="1.0" encoding="utf-8"?>
<!-- Generator: Adobe Illustrator 20.1.0, SVG Export Plug-In . SVG Version: 6.00 Build 0)  -->
<svg version="1.1" id="Layer_1" xmlns="http://www.w3.org/2000/svg" xmlns:xlink="http://www.w3.org/1999/xlink" x="0px" y="0px"
	 viewBox="0 0 300 200" style="enable-background:new 0 0 300 200;" xml:space="preserve">
<style type="text/css">
	.st0{fill:#FFFFFF;}
	.st1{opacity:0.6;fill:#FFFFFF;enable-background:new    ;}
	.st2{fill:none;stroke:#FFFFFF;stroke-width:4;stroke-miterlimit:10;}
</style>
<path class="st0" d="M55.8,127.5c0-0.9,0.7-1.4,2.2-1.4c1.9,0,4.1,0.7,5.8,2.1l2.8-3.9c-2.2-1.8-4.9-2.7-8.1-2.7
	c-5.2,0-7.9,2.9-7.9,6.3c0,7.7,11.4,5.5,11.4,8.1c0,1.1-1.1,1.6-2.8,1.6c-2.7,0-4.9-1.2-6.4-2.6l-2.8,4c2.1,1.8,4.8,3.2,8.8,3.2
	c5.4,0,8.3-2.6,8.3-6.6C67,128,55.8,130,55.8,127.5z M73.7,138.9h7.9l1.1,2.8h5.8l-7.6-19.9h-6.5l-7.5,19.9h5.8L73.7,138.9z
	 M77.7,126.9l2.5,7.6h-5.1L77.7,126.9z M106.8,128.5c0-3.7-2.5-6.6-6.9-6.6h-10v19.9h5.3v-6.7h2.6l3.4,6.7h5.9l-4.1-7.4
	C104.7,133.9,106.8,131.9,106.8,128.5z M99.2,130.6h-4.1v-4.2h4.1c1.4,0,2.5,0.8,2.5,2.2C101.7,129.9,100.5,130.6,99.2,130.6z
	 M114.4,138.9h7.9l1.1,2.8h5.8l-7.6-19.9h-6.4l-7.6,19.9h5.8L114.4,138.9z M118.3,126.9l2.5,7.6h-5.1L118.3,126.9z M142.4,134.9
	v-13.2h-5.2v13.2c0,1.7-1.1,2.7-2.6,2.7c-1.2,0-2.2-0.5-2.8-1.2l-2.2,3.9c1.5,1.4,3.5,1.8,5.5,1.8
	C139.4,142.1,142.4,139.9,142.4,134.9z M160.7,137.3h-9.5v-3.5h9.3v-4.4h-9.3v-3.1h9.5v-4.4H146v19.9h14.6L160.7,137.3L160.7,137.3z
	 M177.3,121.9l-4.9,14.4l-4.9-14.4h-5.8l7.6,19.9h6.5l7.6-19.9H177.3z M204.2,131.8c0-6.1-4.5-10.3-10.6-10.3s-10.6,4.2-10.6,10.3
	s4.5,10.3,10.6,10.3S204.2,137.9,204.2,131.8z M188.2,131.8c0-3.4,2.2-5.7,5.5-5.7c3.4,0,5.4,2.5,5.4,5.7s-2.2,5.7-5.4,5.7
	C190.3,137.7,188.2,135.2,188.2,131.8z M216.5,121.5c-6.1,0-10.6,4.2-10.6,10.3s4.5,10.3,10.6,10.3s10.6-4.2,10.6-10.3
	C227.2,125.8,222.6,121.5,216.5,121.5z M216.5,137.7c-3.4,0-5.5-2.5-5.5-5.7c0-3.4,2.2-5.7,5.5-5.7c3.4,0,5.4,2.5,5.4,5.7
	S219.8,137.7,216.5,137.7z M239.4,121.5c-6.1,0-10.6,4.2-10.6,10.3s4.5,10.3,10.6,10.3s10.6-4.2,10.6-10.3
	C250.1,125.8,245.5,121.5,239.4,121.5z M239.4,137.7c-3.4,0-5.5-2.5-5.5-5.7c0-3.4,2.2-5.7,5.5-5.7c3.4,0,5.4,2.5,5.4,5.7
	C244.8,135.2,242.7,137.7,239.4,137.7z M70.3,153.5H68v13.3h8.2v-2.1h-5.8L70.3,153.5L70.3,153.5z M77.4,166.7h2.1v-9.6h-2.1V166.7z
	 M78.4,153.3c-0.7,0-1.3,0.5-1.3,1.3s0.5,1.3,1.3,1.3s1.3-0.5,1.3-1.3C79.7,153.8,79.2,153.3,78.4,153.3z M87.9,157l-2.8,7.2
	l-2.8-7.2h-2.4l3.9,9.6h2.3L90,157H87.9z M94.8,156.8c-2.8,0-4.9,2.3-4.9,5.1c0,3.1,2.2,5.1,5.1,5.1c1.5,0,2.9-0.4,3.9-1.4l-0.9-1.4
	c-0.7,0.7-1.8,1.1-2.7,1.1c-1.8,0-2.8-1.3-3.1-2.6h7.5v-0.5C99.7,159,97.9,156.8,94.8,156.8z M92.2,161c0.1-1.2,0.9-2.5,2.7-2.5
	c1.9,0,2.6,1.4,2.7,2.5H92.2z M124.6,156.9c0-1.1,0.9-1.6,2.3-1.6s2.8,0.4,3.9,1.5l1.4-1.7c-1.3-1.2-2.8-1.8-4.9-1.8
	c-2.9,0-4.8,1.7-4.8,3.9c0,4.9,7.8,3.2,7.8,5.9c0,0.9-0.7,1.8-2.6,1.8c-1.8,0-3.4-0.9-4.2-1.8l-1.4,1.8c1.2,1.3,2.9,2.1,5.4,2.1
	c3.6,0,5.2-1.9,5.2-4.1C132.4,157.9,124.6,159.4,124.6,156.9z M136.8,165c-0.5,0-0.9-0.4-0.9-1.2v-4.9h1.9v-1.8h-1.9v-2.6h-2.1v2.6
	h-1.6v1.8h1.6v5.6c0,1.6,0.8,2.5,2.5,2.5c0.9,0,1.6-0.2,1.9-0.5l-0.4-1.6C137.6,164.9,137.2,165,136.8,165z M145.5,163.8
	c-0.4,0.7-1.4,1.3-2.4,1.3c-1.2,0-1.9-0.4-1.9-1.9v-6.1h-2.1v6.8c0,1.9,1.1,3.1,3.1,3.1c1.5,0,2.7-0.8,3.5-1.5v1.3h2.1v-9.6h-2.1
	v6.6L145.5,163.8L145.5,163.8z M156.3,158.4c-0.8-1.1-1.8-1.6-3.1-1.6c-2.5,0-4.2,1.9-4.2,5.1s1.8,5.1,4.2,5.1
	c1.3,0,2.4-0.5,3.1-1.6v1.4h2.1v-13.3h-2.1V158.4z M156.3,163.8c-0.4,0.7-1.5,1.3-2.5,1.3c-1.7,0-2.7-1.4-2.7-3.2s1.1-3.2,2.7-3.2
	c1.1,0,2.1,0.5,2.5,1.3V163.8z M164.1,164.3l-2.8-7.2H159l4,9.7l-0.4,1.2c-0.2,0.7-0.7,0.8-1.4,0.8c-0.2,0-0.5-0.1-0.8-0.1l-0.3,1.8
	c0.2,0.1,0.9,0.1,1.2,0.1c1.5,0,2.6-0.5,3.4-2.2l4.7-11.4H167L164.1,164.3z M205.3,153.5l-2.6,10.2l-2.7-10.2h-1.8l-2.7,10.2
	l-2.6-10.2H190l3.8,13.3h2.5l2.6-9.8l2.5,9.8h2.5l3.8-13.3H205.3z M212.1,156.8c-3.1,0-4.9,2.3-4.9,5.1c0,2.7,1.8,5.1,4.9,5.1
	c3.1,0,4.9-2.3,4.9-5.1C217.1,159.2,215.2,156.8,212.1,156.8z M212.1,165c-1.8,0-2.7-1.5-2.7-3.2s1.1-3.2,2.7-3.2
	c1.8,0,2.7,1.5,2.7,3.2C214.8,163.6,213.8,165,212.1,165z M220.4,158.4V157h-2.1v9.6h2.1v-6.5c0.4-0.7,1.6-1.3,2.5-1.3
	c0.2,0,0.4,0,0.7,0.1v-2.1C222.4,156.8,221.2,157.6,220.4,158.4z M233.4,157h-2.6l-4.2,4.7v-8.3h-2.1v13.3h2.1v-2.6l1.4-1.4l2.9,4
	h2.6l-4.1-5.3L233.4,157z"/>
<path class="st1" d="M111,157.2c-1.7,0-3.1,1.4-3.1,3.1c0,1.7,1.4,3.1,3.1,3.1s3.1-1.4,3.1-3.1C114.1,158.5,112.8,157.2,111,157.2z"
	/>
<path class="st1" d="M179.4,157.2c-1.7,0-3.1,1.4-3.1,3.1c0,1.7,1.4,3.1,3.1,3.1s3.1-1.4,3.1-3.1
	C182.6,158.5,181.3,157.2,179.4,157.2z"/>
<g>
	<ellipse transform="matrix(0.342 -0.9397 0.9397 0.342 45.7702 166.2668)" class="st2" cx="141.6" cy="50.5" rx="20" ry="20"/>
	<ellipse transform="matrix(0.342 -0.9397 0.9397 0.342 54.0841 197.2945)" class="st2" cx="167.9" cy="60" rx="20" ry="20"/>
	<ellipse transform="matrix(0.342 -0.9397 0.9397 0.342 14.7425 174.5806)" class="st2" cx="132" cy="76.8" rx="20" ry="20"/>
	<ellipse transform="matrix(0.342 -0.9397 0.9397 0.342 23.0563 205.6084)" class="st2" cx="158.3" cy="86.3" rx="20" ry="20"/>
</g>
</svg>
