<svg id="Layer_1" xmlns="http://www.w3.org/2000/svg" width="155" height="36.077" viewBox="-57.492 1.97 155 36.077"><style>.st0{fill:#fff}</style><path class="st0" d="M-3.826 13.962c.5 0 .999 0 1.499.1 1.099.1 1.799.7 1.899 1.799.1.5 0 .999 0 1.499.1-.1.2-.3.3-.4.6-.999 1.499-1.799 2.498-2.398 1.899-1.099 3.997-1.299 6.196-.799 2.199.4 3.598 1.699 4.197 3.798.4 1.199.4 2.299.5 3.498v6.896c0 .7.1.899.799.899.999.1 2.199.1 3.198.1v-.7V7.467c0-.799-.3-2.498-.5-3.198-.2-.6-.5-.999-.999-1.399-.799-.7-1.799-.899-2.698-.899h-67.057c.6 0-1.099.2-1.699.5-1.299.6-1.799 1.899-1.799 3.198V34.35c0 .6.2 1.299.5 1.899.7 1.299 1.899 1.799 3.298 1.799h29.081c.4 0 .5-.1.6-.4l.899-2.099c.1 0 .2 0 .2.1 1.899.899 3.897 1.299 5.996 1.099 1.299-.1 2.398-.4 3.398-1.299 1.399-1.399 1.199-3.198 1.199-4.797-.6.5-1.199 1.099-1.999 1.499-1.299.7-2.798.799-4.297.7-3.098-.3-5.397-1.799-6.696-4.497-1.299-2.498-1.399-5.197-.799-7.995.5-2.099 1.499-3.897 3.298-5.097 1.199-.899 2.598-1.299 4.097-1.399 1.899-.1 3.698.1 5.297 1.199l1.499 1.199c0-.1.1-.3.1-.4.1-.7.5-1.199 1.199-1.399.3-.1.7-.1 1.099-.2 1.899-.3 3.798-.3 5.697-.3zm-29.382-7.295h4.097v4.297h-4.097V6.667zm-2.698 19.887c-.4 3.698-3.298 6.096-6.896 6.596-4.297.6-7.995-.6-11.093-3.598-.3-.2-.3-.4 0-.7.799-.899 1.499-1.799 2.299-2.798l.3-.3c.7.5 1.199.999 1.899 1.499 1.599 1.099 3.298 1.699 5.297 1.499 1.499-.1 2.898-.999 3.198-2.498.2-1.199-.3-2.099-1.299-2.798-.899-.6-1.899-1.099-2.898-1.599-1.599-.799-3.298-1.599-4.797-2.498-1.699-.999-2.998-2.498-3.398-4.397-.7-3.398.799-6.396 3.997-7.995 1.799-.899 3.798-1.199 5.896-.999 1.799.2 3.598.6 5.097 1.699 1.299.899 1.999 2.099 1.899 3.698v2.299h-4.497v-.799c.1-.799-.3-1.399-.999-1.799-1.599-.899-4.097-.7-5.496.4-1.099.899-1.199 2.398-.2 3.398.7.7 1.599 1.199 2.498 1.599 1.599.7 3.098 1.399 4.697 2.099 1.399.7 2.598 1.599 3.598 2.798.798 1.696 1.098 3.395.898 5.194zm9.494 2.398h.1v3.997h-4.697c-.3 0-.7 0-.999-.1-.899-.3-1.499-.999-1.499-2.099v-8.694-3.098c0-.7-.2-.899-.899-.899h-1.399v-.999-2.698c0-.2 0-.4.3-.4 1.599 0 3.198 0 4.797.1 1.399.1 2.099.899 2.099 2.199V28.053c0 .7.2.899.999.899h1.198zm98.437-6.296c-1.499-.6-3.098-1.199-4.597-1.799-.6-.3-1.199-.6-1.699-.999-.7-.6-.6-1.599.2-2.099.999-.7 3.098-.7 4.097-.1.4.2.6.6.6.999v.7h4.297v-1.599c.1-1.599-.7-2.598-2.099-3.298a9.767 9.767 0 0 0-4.097-.899c-1.799-.1-3.498.1-5.097.899-2.998 1.399-3.997 4.897-2.099 7.495.7.999 1.699 1.699 2.798 2.199l4.197 1.799c.6.3 1.199.6 1.799.999.6.5.7 1.199.3 1.799-.3.5-.899.799-1.499.899-1.299.3-2.498 0-3.698-.6a10.173 10.173 0 0 1-2.998-2.099c-.2.3-.4.5-.5.7-.3.4-.6.999-.999 1.199-.5.2-1.099.1-1.699.1h-.2c-.2-.2-.4-.3-.6-.5-.1-.1-.1-.4-.1-.6V14.16h-4.897v8.695c0 .6-.1 1.199-.2 1.799-.5 2.398-2.199 4.497-4.997 4.597-1.599 0-2.598-.5-2.998-2.099-.1-.6-.2-1.199-.2-1.699v-6.396-2.398c0-1.699-.799-2.398-2.498-2.398h-3.797c0-.3-.1-.5-.1-.7-.7-3.897-3.598-6.496-7.595-6.696-3.498-.1-6.995 0-10.493 0h-.2V32.95h4.897v-9.094h.6c1.699 0 3.498.1 5.197-.1 3.298-.3 5.696-1.899 6.995-4.997.3-.799.3-.799 1.199-.799.799 0 .999.2.999.999v7.195c0 .899.1 1.699.3 2.598.5 2.199 1.699 3.698 3.997 4.197.899.2 1.799.3 2.698.3 2.698-.1 4.797-1.199 6.196-3.598.1-.1.1-.2.2-.3v1.699c.1.799.6 1.399 1.299 1.599.4.1.799.2 1.299.2h8.795c1.199.3 2.398.4 3.598.4 1.799-.1 3.498-.6 4.897-1.699 2.299-1.799 2.598-5.197.799-7.295a7.854 7.854 0 0 0-2.297-1.599zM33.449 16.66c-.4 1.699-1.699 2.898-3.498 2.998-1.499.1-2.998 0-4.597 0v-8.894c1.699 0 3.298-.1 4.897 0 1.899.2 3.198 1.599 3.298 3.398.1.899.1 1.699-.1 2.498zM16.46 33.15h-5.596c-1.599 0-2.498-.899-2.498-2.498v-8.594c0-.6-.1-1.299-.2-1.899-.2-.999-.7-1.899-1.899-2.099-1.899-.4-3.598.2-4.997 1.599-1.099 1.199-1.499 2.698-1.499 4.297v8.995h-4.897v-.5V19.16v-.5c0-.3-.3-.6-.6-.6h-1.099c-.399 0-.6.3-.6.6v13.492c0 1.799-.5 3.398-1.599 4.897-.2.3-.4.5-.7.799h21.986c.899 0 1.699-.1 2.498-.3.799-.3 1.499-.899 1.799-1.699.4-.899.7-1.799.6-2.798h-.7v.099zm79.649-4.198c-.799 0-.999-.2-.999-.899v-7.095c0-.899-.1-1.699-.3-2.598-.4-1.999-1.399-3.498-3.398-4.197-.799-.3-1.699-.4-2.598-.5-2.998-.2-5.496.899-7.095 3.498l-.1.1v-3.398-4.797c0-1.299-.6-2.099-1.799-2.299H74.523v3.997h1.199c.999 0 1.199.2 1.199 1.099V32.95h4.797v-.5-6.296c0-1.099 0-2.199.1-3.198.2-2.598 2.099-4.597 4.597-4.997 1.999-.3 3.598.2 3.798 2.698.1 1.099.1 2.199.1 3.398v6.596c0 1.399.6 2.199 2.099 2.299 1.699.1 3.298 0 4.997 0l.1-.1v-3.997c-.6.099-1 .099-1.4.099zM-14.52 18.159c-.899-.5-1.999-.6-2.998-.5-1.499.1-2.698.799-3.398 2.199-.799 1.499-.799 2.998-.5 4.597.4 2.299 1.999 4.497 5.297 4.097 1.199-.1 2.199-.7 2.898-1.699.7-1.099.899-2.398.899-3.698 0-.5-.1-.999-.1-1.499-.199-1.598-.698-2.797-2.098-3.497z" id="Sign_Push"/></svg>