<svg id="Layer_1" xmlns="http://www.w3.org/2000/svg" width="145" height="70" viewBox="-52.5 -15 145 70"><style>.st0{fill:#fff}</style><path class="st0" d="M10-11s0 .1 0 0c-1.1.8-.7 1.4-1.2 1.5-.8.4-1.7 2.9-1.7 2.9s.5.3-1.1 2.1C4.7-3 4.3-.8 4.3-.8S5.2.8 5 2.6c-.1 1.5-.1.4.5 1.3.3.7.7 2.8.9 2 .4-1.6-.8-3-.7-4.6.1.3.5-.5.5.1 0 2 2.4 5.5 2.4 5.5s-.9.9 0 .9l-.3.5s.7 0 1.2.4c.4.4.8.8 1.2.8h6.8s.5-2.1.9-2.4c.4-.4-.8 0-1.2-.4-.4-.4-.5.3-.8.7-.1.4-.4.9-.9 1.2-.5.1-1.7.3-2 .3s-1.1-1.6-1.1-1.6c-.8-1.1-.3-2.5.5-4 .7-.9 2.2-1.5 3.6-.9 1.6-1.2 2 .1 3.3-.5 1.7-.7.8 2.1 2.5 2.8.7-1.8-1.6-3.3-.1-4.2 1.1-.7 1.8-1.1 2.2-1.8.7-1.2.8-2.1 1.3-2.2 1.1-.4.8-1.5.8-1.5s1.2.4 2.1-.5c-.7-.4-1.7-.7-1.4-1.5.4-.8 2.6.9 3.4-.5-1.4-.5-2.9-1.8-3.7-2.2-.7.7-.9.4-1.7-.1-1.3-1.1-1.3-.1-2.1-.8-.7 1.3.3 1.2.5 1.4.8.9-.8-.8-.7 1.6 0 .5-.8.7-1.4-.7-.4-.7-3-.5-3.4-1.2.4-.7 3.6-3.3 8.4-2.6-.1 0-.2-.1-.2-.1C39-10.2 49.4-1.6 53.4 9.6 49.2-4.2 37.1-15 20.8-15 3.2-15-7.4-4.5-11.8 9.4-8.3-.2-.2-7.8 10-11zm10.8 63.6c-15 0-27.8-9.1-32.5-21.9C-7.2 44.4 4.1 55 20.8 55c15.8 0 28.3-10.7 32.6-24.5-4.6 12.9-17.5 22.1-32.6 22.1zM27.1 9c.3-.1.4.1.4.3.7-.5 1.4-.3 2.1-.5-.7-.3-1.3-.8-2.1-.8-1.1 0 0 .5-.7 1.1h.3V9zm64.5 13.8h-6.2v-9.1l.8-1.1h-5.3l.8 1.1v10.8l-.8.9h11.6V22l-.9.8zM66.8 12.7l.5 1.1-5.8 11.7h4.7l-.8-.9.7-1.3h6.1l.7 1.3-.9.9h5.4l-6.2-12.8h-4.4zm.3 8.2l2.1-4.5 2.1 4.5h-4.2zm-12.8-3.1c-1.4-.5-3.7-.8-3.7-1.8 0-.5.7-.8 1.7-.8 1.3 0 3.6.5 5.4 1.3v-4.2l-1.1.9c-1.1-.4-2.9-.8-4.2-.8-4.3 0-5.7 1.8-5.7 3.6 0 2.4 1.4 3.4 3.9 4.4 1.8.7 3.6.7 3.6 1.7 0 .9-1.1 1.1-1.6 1.1-1.3 0-3.8-.5-5.9-2v4.7l1.1-1.1c.9.4 3.2 1.1 5 1.1 3.8 0 5.5-1.7 5.5-4.1.1-2.1-1.6-3.2-4-4zm-24.7-4.1v10.8l-.8.9h5.3l-.8-.9v-3.7h1.6l2.5 3.7-.8.9h5.7l-3.4-5c1.7-.7 2.9-2 2.9-3.8 0-2.2-1.3-4-5-4h-7.9l.7 1.1zm3.7 1.6h2.9c.9 0 1.7.5 1.7 1.6 0 .9-.9 1.6-2.1 1.6h-2.5v-3.2zm-10.3 0l.9.9v-3.6h-12l.8 1.1v10.8l-.8.9h12V22l-.9.8h-6.6v-2.5h4.2l.9.8V17l-.9.8h-4.2v-2.5H23zm-28.8-2.6L.1 25.5h2.6l6.1-12.8H4.2l.8 1.1-3.2 7-3.2-7 .9-1.1h-5.3zm-8.7 12.8h5.4l-.8-.9V13.7l.8-1.1h-5.4l.8 1.1v10.8l-.8 1zm-8.7-11.8V20l-6.6-7.4h-3.9l.8 1.1v10.8l-.8.9h4.5l-.8-.9V18l6.8 7.5h2.9V13.7l.8-1.1H-24l.8 1.1zm-19.4 0v7c0 1.6-1.1 2.2-2.6 2.2-1.6 0-2.6-.7-2.6-2.2v-7l.8-1.1h-5.5l.8 1.1v7.1c0 3.6 2 4.9 6.4 4.9 4.3 0 6.3-1.3 6.3-4.9v-7.1l.9-1.1h-5.4l.9 1.1zm73.3-4.3c.3 0 .4-.1.5-.3-.3-.1-.4-.3-.5-.3v.6zm6.8 28.2c2.1-2.1 1.3-2.6 2.8-3.4 1.6-.8 1.7.1 2.2-.5 1.2-1.6.8-1.5 1.3-2.5l.3-.5s.8-.7.5-.9c-.3-.4 0-.9 0-.9H25.4l2.1 1.8c.5.3 1.1.7 1.3 1.4.7 1.7-.3.3-.3 2.9 0 2.4-.7 2-.7 2s-.1 2.8-1.6 4.5c-.9.9-.3 1.7-.3 1.7s-.3.3-.8 2.2c-.1.7.8 1.7 1.4 1.5.5-.3-1.3-.4.8-1.3.8-.3.1-.9.1-.9s1.3-.1 2-2.1c1.3.3.9-.5 3.6-1.2.8-.1.9-.4.8-1.1 0-.7 1.1.1 3.7-2.7zM24.7 7.9c.4-.3 1.2.1 1.2.1s1.4-.5.3-.5c-1.2.1-1.2-.9-2.1-.7-.8.1-.7-.8-1.2-.8s-1.2-.3-1.3.1c-.4.5.4-.3 1.2.4 1.1.9.9.3 1.6.9.3.4.1.7.3.5z" id="Universal"/></svg>