<svg id="Layer_1" xmlns="http://www.w3.org/2000/svg" width="60" height="60.1" viewBox="-9.91 -10.05 60 60.1"><style>.st0{fill:#fff}</style><path class="st0" d="M50.09 20c0-16.628-13.422-30.05-30.05-30.05-15.827 0-28.848 12.22-29.95 27.746 1.803 2.003 3.706 3.907 5.509 5.91 2.504 2.705 4.908 5.409 7.312 8.114.2.2.401.501.501.801.1-.1.2-.1.301-.2 1.002-6.01 2.104-11.92 3.105-18.13 4.107 4.407 8.013 8.614 12.22 13.022.501-2.504.902-4.808 1.302-7.112.902-4.608-.2-3.506 4.307-4.908 1.002-.401 2.104-.701 3.306-1.002-1.302 9.616-2.604 19.032-3.907 28.848-4.407-4.808-8.614-9.416-13.022-14.224-1.102 6.21-2.104 12.22-3.205 18.431-1.002-1.102-1.803-2.003-2.705-2.905C.407 39.132-4.201 34.023-8.909 28.815-5.102 41.135 6.317 50.05 19.839 50.05 36.667 50.05 50.09 36.628 50.09 20zM39.472 30.518c-4.808.601-9.716-2.204-11.319-6.611 1.903-.601 3.806-1.202 5.81-1.703.2-.1.601.401.801.701 1.402 1.603 3.506 2.003 5.309.902s2.504-3.205 1.603-5.008c-.801-1.703-2.604-2.504-4.808-2.003-1.803.401-3.506 1.002-5.209 1.503-.401.1-.801.2-1.402.401.401-2.705.801-5.209 1.302-7.913-3.406 1.002-6.611 2.003-10.117 3.005.2-1.603.501-2.905.501-4.307 0-2.003 1.002-2.805 2.805-3.306 4.608-1.202 9.215-2.705 13.723-4.007.2-.1.501-.1.901-.2-.501 2.805-1.002 5.409-1.503 8.114 3.506.301 6.511 1.302 8.514 4.407 1.402 2.104 1.903 4.508 1.603 6.912-.2 4.906-3.706 8.512-8.514 9.113z" id="Shape_6"/></svg>