<svg id="Layer_1" xmlns="http://www.w3.org/2000/svg" viewBox="0 0 127.6 127.6"><style>.st0{fill:#bababa}.st1{fill:#191918}.st2{fill:#010101}.st3{fill:#79c484}</style><path class="st0" d="M4 99.5c0 .8.7 1.5 1.5 1.5H92v-3H5.5c-.8 0-1.5.7-1.5 1.5zM122.5 98H114v3h8.5c.8 0 1.5-.7 1.5-1.5s-.7-1.5-1.5-1.5z" id="Rectangle_13"/><path class="st0" d="M52.1 98H59c-4.5 0-6-2.9-6-6v-4h-3v5c0 2 .8 3.7 2.1 5z" id="Rectangle_12"/><path class="st0" d="M32 100v-2 2zm6-12v4c0 3.1-1.4 6-6 6h6.9c1.3-1.3 2.1-3 2.1-5v-5h-3z" id="Rectangle_12_copy"/><path class="st0" d="M83.5 71h-67c-.8 0-1.5.7-1.5 1.5s.7 1.5 1.5 1.5h67c.8 0 1.5-.7 1.5-1.5s-.7-1.5-1.5-1.5z" id="Rounded_Rectangle_5"/><path class="st1" d="M80 28H26.5c-.8 0-1.5.7-1.5 1.5s.7 1.5 1.5 1.5H80c1.9 0 4 2 4 4v46c0 2-2 4-4 4H21.5c-.8 0-1.5.7-1.5 1.5s.7 1.5 1.5 1.5H80c3.9 0 7-3.1 7-7V35c0-3.9-3.1-7-7-7z" id="Rounded_Rectangle_6_copy"/><circle class="st2" cx="45.5" cy="79.5" r="2.5" id="Ellipse_2"/><path class="st3" d="M27 65V37v28zm47-30H32v2h41c.6 0 1 .4 1 1v26c0 .6-.4 1-1 1H32h14v2H29h45c1.1 0 2-.9 2-2V37c0-1.1-.9-2-2-2z" id="Rectangle_17"/><path class="st3" d="M32 44v18h12V44H32zm10 16h-8V46h8v14z" id="Rectangle_15"/><path class="st3" d="M60 44h12v10H60z" id="Rectangle_15_copy_2"/><path class="st0" d="M60 56v6h12v-6H60zm10 4h-8v-2h8v2z" id="Rectangle_27"/><path class="st2" d="M33.5 39c-.8 0-1.5.7-1.5 1.5s.7 1.5 1.5 1.5 1.5-.7 1.5-1.5-.7-1.5-1.5-1.5zm4 0c-.8 0-1.5.7-1.5 1.5s.7 1.5 1.5 1.5 1.5-.7 1.5-1.5-.7-1.5-1.5-1.5zm4 0c-.8 0-1.5.7-1.5 1.5s.7 1.5 1.5 1.5 1.5-.7 1.5-1.5-.7-1.5-1.5-1.5z" id="Ellipse_4_copy_2"/><path class="st3" d="M46 44h10v2H46z" id="Rectangle_15_copy"/><path class="st3" d="M46 48h12v2H46z" id="Rectangle_15_copy_3"/><path class="st3" d="M46 52h11v2H46z" id="Rectangle_15_copy_4"/><path class="st3" d="M46 56h8v2h-8z" id="Rectangle_15_copy_5"/><path class="st3" d="M46 60h10v2H46z" id="Rectangle_15_copy_6"/><path class="st3" d="M97 82v7h12v-7H97zm10 5h-8v-3h8v3z" id="Rectangle_19"/><path class="st3" d="M97 90h12v2H97z" id="Rectangle_20"/><path class="st2" d="M110 71H96c-2.2 0-4 1.8-4 4v26c0 2.2 1.8 4 4 4h14c2.2 0 4-1.8 4-4V75c0-2.2-1.8-4-4-4zm1 6v22c0 3 0 3-3 3H98c-3 0-3-.1-3-3V77c0-3 0-3 3-3h10c3.1 0 3 0 3 3z" id="Rounded_Rectangle_7_copy"/><path class="st0" d="M95 78h16v2H95z" id="Rectangle_11"/><path class="st0" d="M95 94h16v2H95z" id="Rectangle_11_copy"/><path class="st2" d="M105 75h-4c-.6 0-1 .4-1 1s.4 1 1 1h4c.6 0 1-.4 1-1s-.4-1-1-1z" id="Rounded_Rectangle_6"/><circle class="st2" cx="103" cy="99" r="2" id="Ellipse_3"/><circle class="st0" cx="95.5" cy="55.5" r="2.5" id="Ellipse_7"/><circle class="st0" cx="102.5" cy="62.5" r="2.5" id="Ellipse_7_copy_3"/><circle class="st3" cx="95.5" cy="62.5" r="1.5" id="Ellipse_7_copy"/><circle class="st0" cx="102.5" cy="55.5" r="1.5" id="Ellipse_7_copy_4"/><circle class="st3" cx="95.5" cy="48.5" r="1.5" id="Ellipse_7_copy_2"/><circle class="st3" cx="109.5" cy="62.5" r="1.5" id="Ellipse_7_copy_5"/></svg>