<svg id="Layer_1" xmlns="http://www.w3.org/2000/svg" width="134" height="75.987" viewBox="-46.902 -17.985 134 75.987"><style>.st0{fill:#fff}</style><path class="st0" d="M-7.661-17.985h-39.241v20.07c2.297-.2 4.693-.3 6.99-.599 4.493-.499 9.086-.999 13.58-1.598.699-.1 1.498-.399 2.197-.599v-.399c-2.896-1.598-6.291-1.498-9.586-2.197.699-.899 1.298-1.697 1.997-2.496.2-.2.599-.2.799-.2 3.495.3 6.89.799 10.085 1.997a9.99 9.99 0 0 1 2.796 1.697c.999.799.899 1.997-.1 2.796-.699.599-1.598 1.198-2.496 1.398-2.197.699-4.393 1.198-6.59 1.797.999.3 2.197.399 3.195.799 1.997.699 3.894 1.398 5.791 2.396 1.298.699 1.298 1.997.3 2.996-.699.599-1.498 1.198-2.396 1.498-1.997.699-4.094 1.198-6.091 1.797.799.2 1.598.3 2.396.599 1.997.699 3.994 1.198 5.791 2.197 1.697.799 1.697 2.197.1 3.395-.699.499-1.498.999-2.396 1.298a183.225 183.225 0 0 1-6.99 1.997c.599.1 1.098.2 1.697.399 2.396.699 4.893 1.398 7.289 2.197.799.3 1.697.699 1.797 1.697 0 1.098-.799 1.598-1.598 2.097-.399.3-.899.499-1.398.699-1.398.499-2.696.899-4.094 1.398-.899.3-1.797.499-2.796.699 1.098.3 2.197.399 3.195.699 1.897.499 3.794.999 5.492 1.897 1.697.799 1.697 2.396.399 3.694-.399.399-.799.699-1.298.899-1.498.599-2.996 1.198-4.593 1.697-.799.3-1.797.399-2.896.699.799.1 1.298.2 1.697.3 2.396.499 4.793.999 6.89 2.297 1.098.699 1.697 1.498 1.598 2.896-.1 3.195 0 6.39 0 9.586v.999h8.188v-1.198-73.291c.3-.3.3-.6.3-.999zm90.765 40.34c-.399 0-.899.3-1.098.599a185.313 185.313 0 0 0-2.996 4.593c-.999-1.598-1.997-3.095-2.896-4.593-.2-.2-.399-.599-.699-.599-1.398-.1-2.696 0-4.194 0 .3.399.399.699.599.899 1.098 1.598 2.097 3.195 3.295 4.593 1.598 1.797 2.197 3.794 1.997 6.191-.1 1.298 0 2.596 0 3.894h3.994c0-1.198.1-2.297 0-3.495-.399-2.796.499-5.092 2.297-7.189 1.398-1.498 2.496-3.295 3.694-4.893v-.2c-1.497.2-2.795.1-3.993.2zm-109.037 5.791c.599-.1 1.098-.499 1.598-.699v-.3c-.399-.2-.699-.399-1.098-.499-.999-.2-1.997-.499-2.996-.599-6.191-.599-12.282-1.098-18.472-1.598v6.291c3.994-.399 8.088-.599 12.082-1.098 2.994-.3 5.89-.899 8.886-1.498zm-.1-18.872c.599-.1 1.098-.499 1.697-.699 0-.1 0-.3-.1-.399-.599-.2-1.098-.499-1.697-.599-4.493-.599-9.086-1.098-13.58-1.598-2.396-.3-4.793-.399-7.189-.599v6.291c4.893-.399 9.785-.799 14.578-1.298 2.197-.2 4.194-.699 6.291-1.099zm1.697 27.259v-.3c-.399-.2-.699-.399-1.098-.499-.799-.2-1.598-.399-2.396-.399-3.195-.3-6.291-.599-9.486-.699-3.195-.2-6.39-.2-9.586-.3v5.692c4.294-.399 8.687-.799 12.981-1.298 2.696-.3 5.392-.899 8.088-1.498.499-.099.998-.499 1.497-.699zM-35.12 20.058c2.996-.3 6.091-.899 9.086-1.298.599-.1 1.198-.399 1.897-.699v-.399c-.699-.2-1.398-.499-2.197-.599-2.996-.3-6.091-.699-9.186-.899-3.794-.3-7.589-.499-11.383-.699v5.492c.2 0 .399.1.599 0 3.696-.3 7.49-.5 11.184-.899zm66.102 24.763c-.499 1.697-1.198 3.295-1.697 4.993-.699 1.997-1.398 4.094-2.197 6.291-.2-.499-.3-.799-.399-1.098-1.098-3.395-2.197-6.79-3.395-10.185-.1-.3-.399-.499-.599-.799-.2.3-.599.499-.699.799a632.494 632.494 0 0 0-2.396 7.389l-1.298 3.894c-.2-.499-.3-.799-.399-1.098-1.198-3.395-2.396-6.69-3.495-10.085-.2-.699-.599-.999-1.398-.599 1.697 4.593 3.295 9.086 4.993 13.68h.797c1.298-3.894 2.496-7.689 3.794-11.583h.3c.599 1.797 1.198 3.694 1.897 5.492.699 1.997 1.398 4.094 2.097 6.091h.599c.999-2.796 2.097-5.592 3.095-8.487.599-1.697 1.298-3.495 1.897-5.192-.998-.402-1.298-.102-1.497.497zm51.623 6.291c-.699-.3-1.398-.399-2.097-.699-.999-.3-2.097-.599-2.996-.999-1.198-.599-1.498-2.097-.699-3.195.599-.799 1.398-1.198 2.297-1.298 1.697-.2 3.295.3 4.693 1.498.2-.3.399-.499.699-.899-.599-.399-1.198-.799-1.797-.999-1.797-.699-3.595-.899-5.292 0-1.298.599-1.997 1.697-1.997 3.195 0 1.398.799 2.297 1.997 2.896.599.3 1.298.399 1.897.699 1.098.3 2.197.499 3.195.999 1.598.699 1.797 2.896.3 3.994a5.388 5.388 0 0 1-2.097.799c-1.997.3-3.794-.499-5.292-1.997-.2.3-.399.499-.599.699 1.098 1.298 2.596 1.697 4.094 2.197h2.596c.399-.2.799-.3 1.198-.499 1.298-.599 2.097-1.697 2.197-3.195-.101-1.699-.999-2.597-2.297-3.196zM4.322 22.355H.427v.499c1.198 4.893 2.496 9.785 3.694 14.578.1.2.499.499.699.499.799.1 1.697 0 2.496 0 .699.1.999-.2 1.198-.899.799-2.896 1.598-5.891 2.496-8.887.1.2.2.3.2.3l2.396 8.687c.1.499.399.799.899.699h2.596c.599 0 .799-.2.899-.699.799-3.095 1.598-6.191 2.297-9.186.499-1.897.999-3.794 1.498-5.791h-3.994c-.799 3.694-1.498 7.289-2.197 10.684a573.835 573.835 0 0 0-2.297-8.288c-.699-2.496-.699-2.396-3.195-2.496-.799 0-1.098.3-1.298.999-.799 3.395-1.697 6.69-2.496 9.885-.499-3.295-1.298-6.89-1.996-10.584zm22.067 14.778c1.598.999 3.395 1.198 5.192.999 2.896-.3 5.092-1.797 6.59-4.393-.999-.499-1.897-.999-2.796-1.398-.2-.1-.399-.1-.499-.2-1.997 2.496-3.595 3.195-5.392 2.297-1.198-.599-1.997-1.997-1.697-3.395h10.584c0-.599-.1-1.098-.1-1.697-.499-6.49-5.592-8.288-10.285-6.89-3.095.999-4.393 3.495-4.893 6.49-.599 3.494.699 6.689 3.296 8.187zm4.293-11.783c1.697 0 2.796 1.098 2.896 2.896h-5.791c-.001-1.698 1.298-2.896 2.895-2.896zM52.35 37.332c1.598-.799 2.396-2.396 2.097-4.194-.2-1.697-1.298-2.596-2.796-2.996-.1 0-.2-.1-.3-.2.1-.1.1-.2.2-.2 1.997-.899 2.696-1.997 2.396-4.094-.2-1.598-1.498-2.996-3.295-3.195-3.095-.2-6.291-.2-9.486-.3v15.776h9.286c.7.002 1.299-.297 1.898-.597zM44.961 25.25c1.398.1 2.796.1 4.194.2.699.1.999.699.999 1.498s-.399 1.398-1.198 1.398c-1.298.1-2.596.1-3.894.2V25.25h-.101zm4.094 9.786c-1.398.1-2.696 0-4.094 0v-3.595h3.994c1.098.1 1.598.699 1.697 1.697 0 1.099-.599 1.798-1.597 1.898zm17.973 2.895c.699 0 1.498-.399 2.197-.699 1.498-.899 2.197-2.297 1.997-3.994-.2-1.598-1.198-2.496-2.696-2.996-.1 0-.3-.1-.499-.2.1-.1.2-.2.3-.2 1.897-.899 2.596-1.997 2.297-3.894-.2-1.697-1.398-3.095-3.195-3.195-3.195-.3-6.39-.3-9.586-.399V38.13c3.094-.099 6.09-.099 9.185-.199zM61.636 25.25c1.398.1 2.796.1 4.094.2.699.1.999.699.999 1.498s-.399 1.298-1.198 1.398c-1.298.1-2.596.1-3.894.2l-.001-3.296zm0 6.291c1.498 0 2.896-.1 4.294 0 .899.1 1.398.899 1.398 1.797 0 .999-.599 1.697-1.598 1.697-1.298.1-2.596 0-3.994 0V31.54h-.1zm6.39 12.981c-2.197-.499-4.593-.399-6.89-.499v13.68c1.797 0 3.595.1 5.392 0 3.495-.2 5.991-2.696 6.39-6.291.301-3.096-1.696-6.291-4.892-6.89zm-1.497 12.181c-1.398.1-2.896 0-4.393 0V44.921c1.797.1 3.495 0 5.192.3 2.996.599 4.593 3.095 4.393 6.191-.1 2.795-2.297 4.992-5.192 5.291zm-10.285-5.491c.999-.599 1.697-1.398 1.797-2.596.3-2.396-1.298-4.194-3.894-4.393-1.897-.1-3.694-.1-5.592-.1-.3 0-.699 0-1.098.1v13.48h.999V52.11c1.298 0 2.496-.1 3.694 0 .399 0 .899.3 1.198.599 1.198 1.398 2.297 2.896 3.395 4.393.399.599.899.799 1.697.599a207.326 207.326 0 0 1-4.294-5.592c.8-.398 1.499-.598 2.098-.897zm-7.589-.2v-5.891c1.997 0 3.994-.1 5.891 0 1.697.2 2.596 1.398 2.596 2.796s-.999 2.796-2.596 2.896c-1.996.299-3.894.199-5.891.199zM34.976 14.566h-8.687v-4.393c0-.799.3-1.098 1.098-.999h6.69c.2-.699 0-.999-.599-.999h-5.692c-.399 0-.899 0-1.298-.1V2.784h8.587c.2-.799-.1-.999-.699-.999h-8.288c-.2 0-.399.1-.499.1v13.48h9.686v-.799h-.299zM12.11 9.174h7.788c.699 0 .899.2.899.999v5.392h.899V1.985c-.699-.2-.999 0-.899.699v5.492H12.11V2.884c0-.799-.2-1.098-.999-.799v13.48h.999V9.174zM6.518 44.022c-.3 0-.599.2-.699.399-.699 1.298-1.298 2.696-1.897 4.094-1.398 2.996-2.796 5.991-4.194 9.086.699.2 1.098.1 1.298-.599.3-.899.699-1.697 1.198-2.496.2-.3.599-.599.899-.599 1.298-.1 2.696 0 3.994 0 1.098 0 2.396-.3 3.195.2.799.499.999 1.797 1.398 2.796.3.599.599.999 1.498.699-1.997-4.393-4.094-8.787-6.091-13.18-.1-.2-.399-.4-.599-.4zm-3.694 8.887c1.198-2.596 2.297-5.092 3.595-7.788 1.198 2.696 2.396 5.192 3.595 7.788h-7.19zm35.846-8.887c-.2 0-.599.3-.699.499-.699 1.398-1.298 2.796-1.997 4.194-1.398 2.996-2.696 5.891-4.094 8.887.699.3 1.098.1 1.298-.599.3-.799.699-1.697 1.098-2.496.2-.3.599-.599.899-.599 1.298-.1 2.696 0 3.994 0 1.098 0 2.396-.3 3.295.2.799.499.999 1.797 1.398 2.796.3.699.599.999 1.398.699-1.997-4.393-3.994-8.787-6.091-13.18.1-.201-.299-.401-.499-.401zm-3.495 8.887c1.198-2.596 2.297-5.092 3.595-7.788 1.198 2.696 2.396 5.192 3.495 7.788h-7.09zM2.025 2.884c.899-.1 1.098.3 1.098 1.198v10.684c0 .3 0 .599.1.799h.999V2.884h4.593c.2-.699 0-.899-.599-.899H-.87c-.699 0-.799.3-.599.999 1.098-.1 2.296 0 3.494-.1z" id="Shape_3"/></svg>