<svg id="Layer_1" xmlns="http://www.w3.org/2000/svg" width="75" height="65.8" viewBox="-17.524 -12.908 75 65.8"><style>.st0{fill:#fff}</style><path class="st0" d="M24.209 14.862l1.394-2.49-1.594-.896-1.394 2.49c-.797-.299-1.594-.498-2.39-.498s-1.693.199-2.39.498l-1.394-2.49-1.594.896 1.394 2.49a6.206 6.206 0 0 0-2.39 4.183h-2.888v1.892h2.888a6.21 6.21 0 0 0 2.39 4.183l-1.394 2.49 1.594.896 1.394-2.49c.797.299 1.594.498 2.39.498s1.693-.199 2.39-.498l1.394 2.49 1.594-.896-1.394-2.49c1.295-.996 2.191-2.49 2.39-4.283h2.888v-1.892h-2.888a7.142 7.142 0 0 0-2.39-4.083zm-4.084 8.965c-2.092 0-3.685-1.693-3.685-3.785s1.693-3.785 3.685-3.785 3.785 1.693 3.785 3.785c-.1 2.091-1.693 3.785-3.785 3.785zm33.665-7.57c-1.693 0-3.187 1.195-3.586 2.789h-4.88a24.22 24.22 0 0 0-3.386-11.753c-2.092-3.685-4.98-6.673-8.367-8.765l2.291-3.984c1.594.498 3.386-.199 4.283-1.693.996-1.793.398-4.084-1.394-5.179-1.793-.996-4.084-.398-5.08 1.394-.896 1.494-.598 3.386.598 4.582l-2.291 3.884c-.1 0-.199-.1-.398-.1-7.072-3.685-15.637-3.884-23.207 0-.1 0-.199 0-.299.1L5.782-6.452c1.196-1.196 1.494-2.988.598-4.582-.996-1.793-3.287-2.39-5.08-1.394-1.793.996-2.39 3.386-1.394 5.179.896 1.494 2.689 2.191 4.283 1.693L6.48-1.572C-.791 3.01-4.875 10.878-5.273 18.946h-4.88c-.398-1.594-1.892-2.789-3.586-2.789a3.783 3.783 0 0 0-3.785 3.785 3.783 3.783 0 0 0 3.785 3.785c1.693 0 3.187-1.195 3.586-2.789h4.88a24.22 24.22 0 0 0 3.386 11.753c2.092 3.685 4.98 6.673 8.367 8.765L4.189 45.44c-1.594-.498-3.386.199-4.283 1.693-.996 1.793-.398 4.084 1.394 5.179 1.793.996 4.084.398 5.08-1.394.896-1.494.598-3.386-.598-4.582l2.291-3.884c.1 0 .199.1.398.1 7.072 3.685 15.637 3.884 23.207 0 .1 0 .199 0 .299-.1l2.291 3.984c-1.195 1.195-1.494 2.988-.598 4.582.996 1.793 3.287 2.39 5.08 1.394 1.793-.996 2.39-3.386 1.394-5.179-.896-1.494-2.689-2.191-4.283-1.693l-2.291-3.984c7.271-4.582 11.355-12.45 11.753-20.518h4.88c.398 1.594 1.892 2.789 3.586 2.789 2.092 0 3.685-1.693 3.685-3.785.001-2.092-1.692-3.785-3.684-3.785zm-19.621 3.785v.896h5.777c.299.697.797 1.295 1.494 1.594-.697 5.777-3.685 11.155-8.566 14.841-.598-.398-1.195-.498-1.892-.398l-2.988-5.279c-.498.398-1.096.697-1.594.896l2.988 5.179c-.498.598-.797 1.295-.797 2.092-5.478 2.39-11.554 2.191-16.833 0 0-.797-.199-1.494-.797-2.092l2.988-5.179c-.598-.299-1.096-.598-1.594-.896l-2.988 5.279c-.697-.1-1.295.1-1.892.398-2.291-1.693-4.283-3.884-5.876-6.574a20.729 20.729 0 0 1-2.689-8.267c.697-.299 1.295-.896 1.494-1.693h5.777v-.896-.896H.404c-.299-.697-.797-1.295-1.494-1.594.697-5.777 3.685-11.155 8.566-14.841.597.398 1.195.497 1.892.398l2.988 5.279c.498-.398 1.096-.697 1.594-.896l-2.988-5.179c.498-.598.797-1.295.797-2.092 5.478-2.39 11.554-2.191 16.833 0 0 .797.199 1.494.797 2.092L26.4 7.392c.598.299 1.096.598 1.594.896l2.988-5.279c.697.1 1.295-.1 1.892-.398 2.291 1.693 4.283 3.884 5.876 6.574a20.729 20.729 0 0 1 2.689 8.267c-.697.299-1.295.896-1.494 1.693h-5.777c-.099.299.001.598.001.897z" id="Yacht"/></svg>