<?xml version="1.0" encoding="utf-8"?>
<!-- Generator: Adobe Illustrator 20.1.0, SVG Export Plug-In . SVG Version: 6.00 Build 0)  -->
<svg version="1.1" id="Layer_1" xmlns="http://www.w3.org/2000/svg" xmlns:xlink="http://www.w3.org/1999/xlink" x="0px" y="0px"
	 viewBox="0 0 300 200" style="enable-background:new 0 0 300 200;" xml:space="preserve">
<style type="text/css">
	.st0{fill:#FFFFFF;}
</style>
<g id="RENT__x26__SAIL">
	<g>
		<path class="st0" d="M99.9,95.6c-2,0-3.7,1.4-4.2,3.3h-5.6c-0.2-4.7-1.4-9.3-3.9-13.6c-2.4-4.3-5.8-7.6-9.7-10l2.6-4.7
			c1.9,0.6,3.9-0.2,4.9-1.9c1.2-2,0.5-4.7-1.6-5.9c-2.1-1.2-4.6-0.5-5.8,1.6c-1,1.7-0.7,3.9,0.6,5.2l-2.6,4.6
			c-0.1,0-0.3-0.1-0.4-0.1c-8.2-4.2-18.1-4.5-26.9,0.1c-0.1,0-0.2,0.1-0.3,0.1l-2.6-4.6c1.3-1.3,1.7-3.5,0.7-5.2
			c-1.2-2-3.9-2.8-5.9-1.6c-2,1.1-2.9,3.8-1.6,5.9c1,1.7,3.1,2.5,4.9,1.9l2.6,4.7C36.9,80.7,32.1,89.6,31.7,99h-5.6
			c-0.5-1.9-2.1-3.3-4.2-3.3c-2.3,0-4.4,1.9-4.4,4.4c0,2.3,1.9,4.4,4.4,4.4c2,0,3.7-1.4,4.2-3.3h5.6c0.2,4.7,1.4,9.3,3.9,13.6
			c2.4,4.3,5.8,7.6,9.7,10l-2.6,4.7c-1.9-0.6-3.9,0.2-4.9,1.9c-1.2,2-0.5,4.7,1.6,5.9c2.1,1.2,4.7,0.5,5.9-1.6
			c1-1.7,0.6-3.9-0.7-5.2l2.6-4.6c0.1,0,0.3,0.1,0.4,0.1c8.2,4.2,18.1,4.5,26.9-0.1c0.1,0,0.2-0.1,0.3-0.1l2.6,4.6
			c-1.3,1.3-1.7,3.5-0.6,5.2c1.2,2,3.9,2.8,5.9,1.6c2-1.1,2.8-3.9,1.6-5.9c-1-1.7-3.1-2.5-4.9-1.9l-2.6-4.7
			c8.5-5.3,13.1-14.3,13.6-23.5H96c0.5,1.9,2.1,3.3,4.2,3.3c2.3,0,4.4-1.9,4.4-4.4C104.2,97.7,102.2,95.6,99.9,95.6z M77.2,100
			c0,0.4,0,0.7-0.1,1h6.7c0.3,0.8,0.9,1.5,1.8,1.9c-0.7,6.6-4.3,12.8-10,17c-0.6-0.4-1.4-0.6-2.1-0.5l-3.5-6c-0.6,0.4-1.2,0.7-1.9,1
			l3.4,6c-0.6,0.6-0.9,1.5-0.8,2.3c-6.3,2.8-13.4,2.5-19.5,0c0-0.8-0.3-1.8-0.8-2.3l3.4-6c-0.6-0.3-1.3-0.6-1.9-1l-3.5,6
			c-0.7-0.1-1.5,0.1-2.1,0.5c-2.6-1.9-5-4.6-6.8-7.5c-1.7-3.1-2.8-6.2-3.2-9.5c0.8-0.4,1.4-1,1.8-1.9h6.7c0-0.4-0.1-0.7-0.1-1
			c0-0.3,0-0.7,0.1-1H38c-0.3-0.8-0.9-1.5-1.8-1.9c0.7-6.6,4.3-12.8,10-17c0.7,0.4,1.4,0.6,2.1,0.5l3.5,6c0.6-0.4,1.2-0.7,1.9-1
			l-3.4-5.9c0.7-0.7,0.9-1.5,0.8-2.3c6.3-2.8,13.4-2.5,19.5,0c0,0.8,0.3,1.8,0.8,2.3l-3.4,5.9c0.7,0.3,1.3,0.7,1.9,1l3.5-6
			c0.7,0.1,1.5-0.1,2.1-0.5c2.6,1.9,5,4.6,6.8,7.5c1.7,3.1,2.8,6.2,3.2,9.5c-0.8,0.4-1.4,1-1.8,1.9h-6.7
			C77.1,99.3,77.2,99.6,77.2,100z M175.2,131.5v-0.9c0-0.7-0.2-1.4-0.5-1.9c-0.4-0.6-0.8-0.9-1.7-1.1c0.7-0.3,1.2-0.7,1.5-1.1
			c0.4-0.5,0.6-1,0.6-1.7c0-1.2-0.4-2.1-1.2-2.9c-0.8-0.7-1.9-1-3.5-1h-4.9v13h2.6v-5.3h2.4c0.6,0,1.1,0.2,1.5,0.6
			c0.4,0.4,0.6,0.8,0.6,1.5v0.9c0,0.4,0,0.8,0.1,1.2c0.1,0.4,0.2,0.7,0.5,0.9h2.8v-0.1c-0.3-0.2-0.4-0.5-0.5-0.8
			C175.2,132.3,175.2,131.9,175.2,131.5z M171.9,126c-0.4,0.3-0.9,0.5-1.6,0.5H168v-3.8h2.2c0.6,0,1.2,0.2,1.6,0.6
			c0.4,0.4,0.6,0.8,0.6,1.4C172.4,125.3,172.2,125.8,171.9,126z M65.6,94.1l1.7-2.9l-1.9-1l-1.7,2.9c-0.8-0.4-1.8-0.6-2.9-0.6
			c-1,0-1.9,0.2-2.9,0.6l-1.7-2.9l-1.9,1l1.7,2.9c-1.5,1.1-2.5,3-2.9,4.8h-3.3v2.1h3.3c0.3,1.9,1.3,3.7,2.9,4.8l-1.7,2.9l1.9,1
			l1.7-2.9c0.8,0.4,1.8,0.6,2.9,0.6c1,0,1.9-0.2,2.9-0.6l1.7,2.9l1.9-1l-1.7-2.9c1.5-1.1,2.5-3,2.9-4.8h3.3v-2.1h-3.3
			C68.1,96.9,67.1,95.3,65.6,94.1z M60.9,104.4c-2.3,0-4.4-1.9-4.4-4.4c0-2.3,1.9-4.4,4.4-4.4c2.3,0,4.4,1.9,4.4,4.4
			C65.2,102.3,63.4,104.4,60.9,104.4z M180.5,128h5.4v-1.9h-5.4v-3.4h6.3v-1.9h-8.9v13h9v-1.9h-6.3L180.5,128L180.5,128z M172.8,68
			c-0.4,0.6-0.9,1.7-1.8,3.2c-0.7,1.4-1.7,3-2.9,4.7c-1,1.8-2.2,3.7-3.5,5.8c-1.2,2-2.5,4.1-3.8,6.1c-1.3,1.9-2.5,4-3.8,5.9
			c-1.2,1.9-2.3,3.5-3.4,4.9c-1,1.4-2.3,2.9-3.9,4.5c-1.5,1.6-3.2,3.1-4.8,4.4c-1.7,1.3-3.4,2.4-5,3.3c-1.7,0.8-3.2,1.3-4.5,1.3
			c-1.7,0-2.5-0.8-2.5-2.5c0-1.1,0.5-2.8,1.5-4.6c1-1.9,2.2-4.1,3.8-6.3c1.5-2.2,3.2-4.7,4.9-7.2c1.8-2.5,3.4-5,4.9-7.4
			c1.5-2.4,2.8-4.7,3.8-6.8c1-2.1,1.5-4,1.5-5.5c0-1-0.2-1.9-0.6-2.5c-0.5-0.7-1-1.2-1.8-1.6c-0.7-0.4-1.5-0.6-2.3-0.8
			c-0.8-0.2-1.7-0.3-2.5-0.3c-3.1,0-5.9,0.6-8.7,1.6c-2.9,1-5.4,2.4-7.5,4.2c-2.2,1.7-4.1,3.7-5.4,5.9c-1.3,2.1-2,4.5-2,6.6
			c0,1.9,0.6,3.3,1.8,4.3c1.1,0.9,2.6,1.3,4.4,1.3c1,0,2-0.2,3-0.5c0.8-0.3,1.7-0.7,2.5-1.3c0.7-0.6,1.5-1.1,2.2-1.8
			c0.6-0.6,1.3-1.3,1.9-2l-0.5-0.3c-0.6,0.6-1.1,1.2-1.7,1.8c-0.6,0.6-1.1,1-1.8,1.5c-0.7,0.5-1.3,0.8-2,1.1
			c-0.7,0.3-1.5,0.4-2.3,0.4c-0.6,0-1.1-0.2-1.6-0.5c-0.5-0.3-0.8-0.6-1.1-1.1c-0.3-0.5-0.5-0.9-0.6-1.5c-0.2-0.6-0.2-1.1-0.2-1.7
			c0-2.1,0.6-4.4,1.6-6.4c1.1-2,2.5-3.9,4.4-5.5c1.8-1.6,3.8-2.9,5.9-3.8s4.4-1.4,6.6-1.4s3.4,1.2,3.4,3.8c0,1.3-0.5,3-1.5,4.9
			c-1,2-2.2,4.2-3.8,6.6c-1.5,2.3-3.2,4.8-4.9,7.3c-1.8,2.5-3.4,5-4.9,7.4c-1.5,2.4-2.8,4.7-3.8,6.8c-1,2-1.5,3.9-1.5,5.4
			c0,1.4,0.4,2.4,1.2,3.3c0.7,0.7,1.9,1.1,3.3,1.1c2.1,0,4.3-0.5,6.3-1.3c2-0.8,4.1-1.9,5.9-3.4c1.9-1.4,3.6-3,5.3-4.6
			c1.6-1.7,3.2-3.3,4.4-4.8l0.1,0.1l-9,13.8c-1.7,2.6-3.5,5.2-5.2,7.4c-1.8,2.2-3.6,4.3-5.4,5.9c-1.9,1.7-3.8,3.1-5.8,4.1
			c-2,0.9-4.1,1.4-6.1,1.4c-1.3,0-2.4-0.2-3.4-0.6c-0.9-0.5-1.7-1-2.2-1.7c-0.6-0.7-1-1.5-1.2-2.3c-0.3-0.8-0.4-1.8-0.4-2.6
			c0-0.8,0.1-1.6,0.4-2.4c0.3-0.7,0.6-1.5,1-2c0.5-0.6,1-1.1,1.7-1.5s1.4-0.6,2.3-0.6c0.6,0,1.3,0.1,1.9,0.3
			c0.6,0.2,1.2,0.4,1.9,0.6l0.1-0.5c-1.2-0.6-2.3-1-3.6-1.4c-1.1-0.4-2.4-0.5-3.8-0.5c-1,0-1.9,0.2-2.8,0.6
			c-0.8,0.4-1.6,0.9-2.3,1.6c-0.7,0.7-1.2,1.5-1.6,2.3c-0.4,0.8-0.6,1.8-0.6,2.8c0,1.7,0.4,3.2,1,4.3c0.7,1.1,1.6,2,2.8,2.8
			c1.1,0.7,2.4,1.2,4.1,1.5c1.5,0.3,3.2,0.5,4.8,0.5c3,0,5.8-0.5,8.5-1.4c2.6-0.9,5.1-2.2,7.4-3.9c2.3-1.6,4.6-3.6,6.5-5.8
			c2-2.1,3.8-4.6,5.5-7L180.9,68L172.8,68z M240.7,126.1c-1-0.3-1.7-0.6-2-0.9c-0.4-0.3-0.6-0.6-0.6-1.1c0-0.5,0.2-0.8,0.6-1.2
			c0.4-0.3,0.9-0.5,1.6-0.5c0.7,0,1.3,0.2,1.7,0.6c0.4,0.4,0.6,0.8,0.6,1.5h2.5v-0.1c0-1.1-0.4-2-1.3-2.9c-0.9-0.8-2-1.1-3.5-1.1
			c-1.4,0-2.5,0.4-3.5,1c-0.9,0.6-1.3,1.5-1.3,2.6c0,1,0.4,1.9,1.2,2.5c0.7,0.6,2,1.1,3.5,1.6c0.8,0.3,1.5,0.6,1.9,0.8
			c0.4,0.3,0.6,0.6,0.6,1.2c0,0.5-0.2,0.8-0.6,1.1s-0.9,0.5-1.6,0.5c-0.8,0-1.5-0.2-2-0.6s-0.7-0.9-0.7-1.7h-2.5v0.1
			c0,1.3,0.5,2.3,1.5,3.2c1,0.7,2.2,1.1,3.7,1.1c1.4,0,2.6-0.3,3.5-0.9c0.8-0.6,1.3-1.5,1.3-2.6c0-1-0.4-1.9-1.1-2.5
			C243.2,127.1,242.1,126.5,240.7,126.1z M196.8,129.6L196.8,129.6l-5.3-8.9h-2.6v13h2.6V125h0.1l5.3,8.9h2.6v-13h-2.6L196.8,129.6
			L196.8,129.6z M282.1,95.5c-1.4,1.9-3,3.8-4.6,5.7c-1.6,1.9-3.2,3.5-4.6,4.8c-2,1.9-4,3.5-5.7,4.6c-1.8,1.1-3.3,1.6-4.3,1.6
			c-0.6,0-1-0.2-1.3-0.5c-0.3-0.4-0.5-0.7-0.5-1.3c0-0.6,0.2-1.4,0.6-2.2c0.4-0.8,0.9-2,1.8-3.5c0.7-1.4,1.9-3.3,3.3-5.5
			c1.3-2.1,3.1-4.9,4.9-8h8.4l0.6-1.1h-8.3l5.4-8.5l-7,0.3L266,90h-5l-0.5,1.1h4.8c-1.3,2.2-2.5,4.3-3.6,5.9c-1.1,1.7-2,3.3-3,4.7
			c-0.3,0.5-0.6,0.9-0.7,1.4c-0.7,0.7-1.4,1.5-2.1,2.2c-1.2,1.2-2.3,2.3-3.5,3.4c-1.1,1-2.1,1.8-3.3,2.4c-1,0.6-1.8,0.9-2.4,0.9
			c-0.9,0-1.3-0.5-1.3-1.5s0.5-2.2,1.4-3.8s1.9-3.2,3.2-4.7c1.2-1.5,2.1-3.3,3.2-4.8c0.9-1.6,1.4-3,1.4-4.2c0-1.4-0.4-2.4-1.1-3.3
			s-1.9-1-3.3-1c-1.7,0-3.3,0.5-4.8,1.3c-1.5,0.9-3.1,1.9-4.5,3.3c-1.4,1.3-2.8,2.8-3.9,4.3c-1.2,1.5-2.2,2.9-3.3,3.9l-0.1-0.1
			l21.4-33.9l-7.1,0.3l-21.6,35.6c-0.7,0.7-1.5,1.5-2.3,2.1c-1.9,1.7-3.9,3.2-6,4.3c-2,1.1-4.2,1.8-6.3,1.8c-1.8,0-3.2-0.6-4.2-1.7
			c-1-1.1-1.5-2.5-1.5-4.2c0-2,0.5-4.1,1.3-6c0.8-1.9,1.9-3.6,3.3-5.1c1.2-1.5,2.5-2.6,4.1-3.6c1.4-0.8,2.8-1.3,3.8-1.3
			c0.6,0,1,0.2,1.4,0.6c0.4,0.5,0.5,1,0.5,1.8c0,1-0.2,2-0.5,3.2c-0.4,1-0.7,2-0.9,3.1c0.5,0.1,0.9,0.1,1.5,0.1s1.3-0.1,1.9-0.4
			c0.7-0.3,1.2-0.6,1.8-1c0.6-0.5,0.9-1,1.2-1.7c0.3-0.6,0.5-1.4,0.5-2.2c0-1.1-0.6-2.1-1.8-3c-1.1-0.7-2.8-1.2-4.7-1.2
			c-2.1,0-4.4,0.5-6.7,1.4c-2.2,0.9-4.4,2.1-6.2,3.8c-1.9,1.5-3.5,3.3-4.7,5.3c-0.8,1.4-1.4,2.8-1.6,4.2c-0.6,0.7-1.3,1.4-1.9,2
			c-2,2-3.8,3.6-5.6,4.8c-1.8,1.2-3.3,1.8-4.3,1.8s-1.6-0.6-1.6-1.6c0-0.7,0.2-1.7,0.7-2.9c0.5-1.1,1-2.2,1.8-3.6
			c0.7-1.2,1.5-2.5,2.4-4c0.8-1.3,1.8-2.6,2.6-4c0.8-1.2,1.7-2.4,2.3-3.6c0.7-1.1,1.3-2,1.7-2.9l-6.7,0.4l-1.6,2.5
			c-0.6-1.4-1.2-2.3-2.1-3.1c-0.8-0.7-2-0.9-3.6-0.9c-1.9,0-4.1,0.6-6.2,1.6c-2.1,1-4.2,2.4-6,4.2c-1.8,1.7-3.3,3.6-4.5,5.8
			c-1.1,2-1.8,4.3-1.8,6.3c0,0.9,0.1,1.8,0.3,2.6s0.6,1.6,1,2.2c0.5,0.6,1,1.2,1.8,1.6c0.7,0.4,1.6,0.6,2.6,0.6
			c1.9,0,3.8-0.5,5.5-1.5c1.7-1,3.3-2.2,4.6-3.8h0.1c-0.1,0.2-0.2,0.4-0.2,0.7c0,0.3-0.1,0.6-0.1,0.9c0,1,0.4,1.9,1.1,2.6
			c0.7,0.7,1.8,1,3.3,1c1.9,0,4-0.6,5.9-1.9c2-1.3,4.1-3.1,6.1-5.1c0.6-0.7,1.3-1.3,1.9-2c0,0.3,0,0.5,0,0.7c0,2.8,0.6,4.8,2,6.1
			c1.4,1.4,3.4,2,6,2c2.8,0,5.3-0.6,7.7-1.7c2.4-1.1,4.7-2.5,6.9-4.3c0.8-0.6,1.6-1.3,2.3-2l-4.3,7l6.7-0.2c0.6-1,1.3-2.3,2.2-3.9
			c0.9-1.5,1.9-3.2,3.3-4.7c1.2-1.6,2.4-3.3,3.8-4.8c1.3-1.6,2.6-3.1,4-4.4c1.3-1.2,2.5-2.2,3.8-3.2c1.2-0.7,2.2-1.2,3.3-1.2
			c0.5,0,0.8,0.2,1.1,0.5c0.4,0.3,0.5,0.7,0.5,1.4c0,0.9-0.5,2-1.4,3.4c-0.9,1.3-2,2.6-3.2,4.2s-2.1,3-3.2,4.6
			c-0.9,1.5-1.4,3.1-1.4,4.6c0,1.1,0.4,2.1,1,3.2c0.7,0.9,1.9,1.3,3.4,1.3c1.7,0,3.4-0.5,5-1.5s3.6-2.8,6-5.2c0.5-0.5,0.9-1,1.4-1.5
			c-0.1,0.2-0.2,0.4-0.3,0.6c-0.5,1.2-0.7,2.3-0.7,3.5c0,1.5,0.5,2.6,1.5,3.3c1,0.6,2.2,0.9,3.6,0.9c1,0,2-0.2,3.1-0.6
			c1-0.4,2-0.9,3.3-1.6c1-0.6,2.1-1.4,3.3-2.3c1-0.8,2-1.8,3.2-2.9c1.8-1.8,3.5-3.7,5-5.5c1.5-1.9,2.8-3.4,3.8-4.7L282.1,95.5z
			 M183.8,104.3c-0.8,1.3-1.7,2.5-2.6,3.6c-0.9,1-1.9,1.9-3,2.6c-1,0.7-2,1.1-2.9,1.1c-1.3,0-2.1-0.5-2.6-1.4
			c-0.4-0.9-0.7-2-0.7-3.3c0-0.8,0.2-1.9,0.5-3.2c0.4-1.2,0.8-2.4,1.4-3.7c0.6-1.3,1.3-2.5,2.1-3.8s1.7-2.3,2.6-3.3
			c0.9-1,1.9-1.8,3-2.3c1-0.6,1.9-0.9,3.1-0.9c1.2,0,2,0.3,2.5,0.9c0.5,0.6,0.6,1.5,0.6,2.8c0,0.8-0.2,1.8-0.6,3.1
			c-0.4,1.2-0.8,2.4-1.5,3.8C185.4,101.6,184.6,103,183.8,104.3z M250.8,120.7l-4.6,13h2.6l0.8-2.9h4.6l0.8,2.9h2.6l-4.5-13
			C253.3,120.7,250.8,120.7,250.8,120.7z M250.5,128.8l1.6-5.1h0.1l1.6,5.1H250.5z M259.6,133.8h2.6v-13h-2.6V133.8z M201.1,122.7
			h3.7v11.1h2.6v-11.1h3.7v-1.9h-10L201.1,122.7L201.1,122.7z M227.5,129.6c0.2-0.6,0.3-1.4,0.3-2.2h-2c0,0.5-0.1,0.9-0.2,1.3
			s-0.3,0.8-0.5,1.1l-2.4-3l0.8-0.6c0.5-0.4,0.9-0.7,1.2-1.2c0.3-0.5,0.5-1,0.5-1.6c0-0.8-0.3-1.5-0.8-2.1c-0.6-0.6-1.3-0.8-2.3-0.8
			c-1,0-2,0.3-2.5,0.9c-0.6,0.6-0.9,1.4-0.9,2.4c0,0.5,0.1,0.9,0.3,1.4c0.2,0.5,0.5,0.9,0.9,1.5c-0.7,0.6-1.4,1.1-1.8,1.6
			c-0.4,0.5-0.6,1.1-0.6,1.8c0,1.1,0.4,1.9,1.1,2.6c0.7,0.6,1.8,1,3.2,1c0.7,0,1.2-0.1,1.7-0.3s1-0.4,1.6-0.7l0.7,0.7h3l0,0
			l-1.9-2.1C227,131,227.4,130.4,227.5,129.6z M221.1,122.9c0.2-0.3,0.5-0.4,0.8-0.4c0.4,0,0.6,0.1,0.8,0.4c0.2,0.2,0.3,0.5,0.3,0.7
			c0,0.2-0.1,0.5-0.2,0.7c-0.1,0.2-0.4,0.5-0.6,0.7l-0.7,0.5c-0.3-0.3-0.5-0.6-0.6-0.9c-0.1-0.3-0.2-0.6-0.2-0.7
			C220.8,123.4,220.9,123.2,221.1,122.9z M222.6,131.8c-0.3,0.1-0.6,0.1-0.9,0.1c-0.6,0-0.9-0.2-1.3-0.5c-0.3-0.4-0.5-0.7-0.5-1.3
			c0-0.3,0.1-0.6,0.2-0.8c0.1-0.3,0.3-0.6,0.7-0.8l0.2-0.1l2.6,3.2C223.4,131.6,222.9,131.7,222.6,131.8z M267.9,120.7h-2.6v13h8.5
			v-1.9h-5.8L267.9,120.7L267.9,120.7z"/>
	</g>
</g>
</svg>
