<?xml version="1.0" encoding="utf-8"?>
<!-- Generator: Adobe Illustrator 20.1.0, SVG Export Plug-In . SVG Version: 6.00 Build 0)  -->
<svg version="1.1" id="Layer_1" xmlns="http://www.w3.org/2000/svg" xmlns:xlink="http://www.w3.org/1999/xlink" x="0px" y="0px"
	 viewBox="0 0 300 200" style="enable-background:new 0 0 300 200;" xml:space="preserve">
<style type="text/css">
	.st0{fill:#FFFFFF;}
</style>
<g id="Zen_By_Design">
	<g>
		<path class="st0" d="M147.8,99.8c1-3.3,0.9-7.1,1-10.8c-0.4,1.5-2,2.7-3,3.6c-4.1,0-8.8-0.1-8.8-5.1s10.1-12.4,12.5-14.7
			c2.5,2.3,13.2,9.8,13.2,14.7c0,2.5-0.4,4.3-6.6,5.1c-0.9-5.6-3.2-11.2-6.3-16.1c1.8,7.6,2,15.7,1,23.4c15.9,0,27.5-4.5,27.5-10.2
			c0-6.2-11.7-14.7-20.4-20.7c2.1-1.7,3.5-4.2,3.5-6.9v-7c0-4-3-7.5-7.1-8.7c0.3-0.4,0.4-0.9,0.4-1.5c0-1.5-1.2-2.7-2.8-3v-0.1
			c0-1.3-1.1-2.2-2.6-2.2c-1.4,0-2.6,1-2.6,2.2v0.1c-1.6,0.3-2.8,1.5-2.8,3c0,0.5,0.2,1,0.4,1.5c-4.1,1.2-7.1,4.7-7.1,8.7v7
			c0,2.7,1.4,5.2,3.5,6.9c-8.7,6-20.4,14.5-20.4,20.7C120.7,97.3,140.1,99.8,147.8,99.8z M173.3,108.2c1.7-0.6,3.4-1.1,5-1.5
			c27.9-8.7-16.7-3.7-29.9-3.7c-7.2,0-22.6-2.6-30-6.3c-6.5-3.4-11.2,6,2,10.1c14.1,4.4,27.9,9.3,42,13.7
			C189.4,128.9,181.9,113.1,173.3,108.2z M134,113.1c-6.5-2-11.1-3.9-13.7,0.2c-3.7,5.7-7.1,14.5,15.9,7.1
			C142,118.5,145.9,116.8,134,113.1z M28.5,142.3v-4.2H10.2v4.6h11.5l-11.5,15.6v4.2h18.6v-4.6H16.9L28.5,142.3z M34.2,162.6h17.3
			V158H39.4v-5.6h11.8v-4.6H39.4v-5.1h12.1v-4.6H34.2V162.6z M73.7,153.5l-11.3-15.4H57v24.4h5.2v-15.9l11.7,15.9h5v-24.4h-5.2
			C73.7,138.2,73.7,153.5,73.7,153.5z M109.9,150c2.2-0.5,4.3-2.5,4.3-5.6c0-3.7-2.6-6.2-6.9-6.2H96.5v24.4h11.1
			c4.5,0,7.1-2.7,7.1-6.6C114.7,153.1,112.5,150.4,109.9,150z M99.5,140.9h7.3c2.7,0,4.2,1.8,4.2,4s-1.5,3.9-4.2,3.9h-7.3V140.9z
			 M107,159.9h-7.5v-8.4h7.5c3,0,4.5,2,4.5,4.2C111.5,158.3,109.9,159.9,107,159.9z M128.5,149.5l-7.6-11.4h-3.6l9.7,14.2v10.3h3
			v-10.3l9.6-14.1H136L128.5,149.5z M164.5,138.2h-9.6v24.4h9.7c7.6,0,12.9-4.8,12.9-12.2C177.4,143,172.1,138.2,164.5,138.2z
			 M164.5,158H160v-15.3h4.5c5,0,7.6,3.3,7.6,7.6C172.1,154.5,169.3,158,164.5,158z M182.6,162.6h17.3V158h-12.1v-5.6h11.8v-4.6
			h-11.8v-5.1h12.1v-4.6h-17.3V162.6z M209.9,144.8c0-1.5,1.2-2.4,3.4-2.4c2.5,0,5.1,0.8,7.1,2.7l2.9-3.9c-2.4-2.2-5.6-3.4-9.5-3.4
			c-5.8,0-9.3,3.4-9.3,7.4c0,9.2,14.1,6.2,14.1,10.5c0,1.4-1.4,2.7-4.3,2.7c-3.4,0-6-1.5-7.8-3.3l-2.9,4.1c2.3,2.3,5.7,3.9,10.4,3.9
			c6.6,0,9.8-3.4,9.8-7.8C223.9,146.1,209.9,148.7,209.9,144.8z M228.9,162.6h5.2v-24.4h-5.2V162.6z M251,153.6h6.4v2.9
			c-1,0.9-3,1.9-5.2,1.9c-4.5,0-7.7-3.4-7.7-8s3.2-8,7.7-8c2.6,0,4.7,1.5,5.8,3.2l4.3-2.3c-1.8-2.9-5-5.5-10.1-5.5
			c-7.2,0-13,4.9-13,12.6s5.9,12.6,13,12.6c4.4,0,7.9-1.8,10.4-4.6V149H251V153.6z M284.9,138.2v15.4l-11.3-15.4h-5.3v24.4h5.2
			v-15.9l11.7,15.9h5v-24.4H284.9z"/>
	</g>
</g>
</svg>
