<svg id="Layer_1" xmlns="http://www.w3.org/2000/svg" width="54" height="60" viewBox="-7.743 -10.317 54 60"><style>.st0{fill:#fff}</style><path class="st0" d="M18.006 32.946c.701-2.303.701-5.107.701-7.711-.3 1.001-1.402 1.903-2.203 2.604-3.004 0-6.309-.1-6.309-3.705 0-3.505 7.211-8.913 9.013-10.616 1.803 1.602 9.514 7.01 9.514 10.616 0 1.803-.3 3.105-4.707 3.605-.601-4.006-2.303-8.012-4.507-11.517 1.302 5.408 1.402 11.317.801 16.825 11.417 0 19.729-3.305 19.729-7.311 0-4.507-8.412-10.515-14.621-14.822a6.168 6.168 0 0 0 2.504-5.007V.899c0-2.904-2.103-5.408-5.107-6.309.2-.3.3-.701.3-1.102 0-1.102-.901-2.003-2.003-2.203 0-.901-.801-1.602-1.803-1.602-1.001 0-1.803.701-1.803 1.602-1.102.2-2.003 1.102-2.003 2.203 0 .401.1.801.3 1.102-3.004.901-5.107 3.405-5.107 6.309v5.007c0 2.003 1.001 3.705 2.504 5.007C6.99 15.22-1.423 21.329-1.423 25.736c0 5.408 13.921 7.21 19.429 7.21zm.4 2.203c-5.107 0-16.224-1.803-21.532-4.607-4.707-2.404-8.012 4.306 1.402 7.211 10.115 3.105 20.029 6.71 30.144 9.814 19.328 6.109 14.121-5.208 7.811-8.713 1.202-.401 2.404-.801 3.505-1.102 20.131-6.108-11.916-2.603-21.33-2.603zM8.091 42.46c-4.607-1.402-7.912-2.804-9.814.1-2.604 4.006-5.107 10.415 11.417 5.107 4.206-1.301 7.01-2.503-1.603-5.207z" id="Zen"/></svg>